<?xml version="1.0" encoding="utf-8"?>
<!-- Generator: Adobe Illustrator 26.0.1, SVG Export Plug-In . SVG Version: 6.00 Build 0)  -->
<svg version="1.1" xmlns="http://www.w3.org/2000/svg" xmlns:xlink="http://www.w3.org/1999/xlink" x="0px" y="0px"
	 viewBox="0 0 2334 2000" enable-background="new 0 0 2334 2000" xml:space="preserve">
<g id="Layer_1">
	<g>
		<g>
			<rect fill="#FFFFFF" width="2334" height="2000"/>
		</g>
	</g>
	<path opacity="0.5" fill="#EAFCFC" d="M921.1,128.8c0,0,475.4-56.4,538.4,216.5c33.3,144.4,278.6,40.1,418.5,90.2
		c99.6,35.7,48.1,156.6,108,188.1c294.9,155.3,371.1,960.7-209.4,971.4L383,1598.2c-212.2-1.6-293.9-246.7-276.3-364.8
		c5.3-35.8,22.4-70.9,58.4-100.6c144-118.9,45.1-173.3,27.6-219.3c-20.1-52.8-92-203.5,112.9-269.4
		c105.2-33.9,137.9-127.6,145.9-190.2c13.6-106.9,83.6-202.1,189.7-254.1C708.4,166.8,799,139.8,921.1,128.8z"/>
	<g>
		<g>
			<path fill="#13375B" d="M1562.8,1182.3l-58-58h0l-58-58c-1.9-1.9-5-1.9-6.9,0c-1.9,1.9-1.9,5,0,6.9l58,58l0,0l58,58
				c1.9,1.9,5,1.9,6.9,0S1564.7,1184.2,1562.8,1182.3z"/>
			<path fill="#13375B" d="M1516.6,1079.8c78.9,41.4,147.9-11.7,145.6-10c1.7-1.5,14.7-5.5,23-8.5c34.6-12.4,58.2-47.1,61.2-84.2
				c50.2-23.3,68.5-81.7,39.4-117.9c13.7-35.6-8.6-78.5-40.2-100.4c-21-45.7-86.8-33.7-124.7-3.4c-19.2,15.4-31.9,39.5-34.1,64.6
				c-42.2,12.3-79.4,42.9-74.6,87.9C1452.9,946.4,1436,1037.6,1516.6,1079.8z"/>
			<path fill="#F48C7F" d="M1412.4,961.1c0,0,7.6-15.5,50-23.6c42.4-8.1,75.9-8.8,75.9-8.8l2.3,51.6c0,0-67.5,11.2-79.4,15.4
				C1449.3,999.9,1412.4,961.1,1412.4,961.1z"/>
			<path fill="#B75742" d="M1512.1,923.1l4.5,70.6c0,0,59.2-3.7,83.9-0.3c31,4.3,65.8-60.8,54.1-69.8
				C1628.3,903.2,1512.1,923.1,1512.1,923.1z"/>
			<path fill="#F47458" d="M1735,1038.6c8.6-56.8,14.7-107.1,14.7-107.1c-11.8-7.2-79.3-10.1-98.5-12c-4-0.4-11.9-2.5-12.3-2.5
				c-9.7,3.2-44,12.2-64.6,55.2c-24.9,52-12.9,84.5-9.8,144.6c2,39.2-11.6,127.9-11.6,127.9c30.3,40.8,141.5,43.8,180.8,11.9
				l-27.2-119.6C1706.4,1106.2,1732.3,1047.4,1735,1038.6z"/>
			<path fill="#F7A491" d="M1685.9,869.9c0,0-7.2,39-5.8,54.4c1.4,15.4-5.5,65-36.8,65.1c-31.3,0.2-5.9-63-3-78.1
				c2.9-15.1,3.6-61.8,3.6-61.8L1685.9,869.9z"/>
			<path fill="#F47458" d="M1643.4,873c0.5-12.8,0.6-23.4,0.6-23.4l41.9,20.3c0,0-1.5,8-3,18.1
				C1664.6,891.9,1651.3,884.8,1643.4,873z"/>
			<path fill="#F7A491" d="M1701.3,762.2c0,0,16.2,9.3,22.1,29.6c5.9,20.2-0.8,72.5-42.6,85.1c-41.8,12.6-59.8-28.7-51.2-61.1
				C1638.1,783.5,1656.8,742.5,1701.3,762.2z"/>
			<path fill="#F7A491" d="M1624.3,803.3c0.8,8.7,5.4,15.3,10.3,14.8c4.9-0.5,8.1-7.9,7.3-16.6c-0.8-8.7-5.4-15.3-10.3-14.8
				C1626.8,787.1,1623.5,794.6,1624.3,803.3z"/>
			<path fill="#F7A491" d="M1711.3,836.7c-4.9,7.6-4.9,16.5,0,20c4.9,3.5,12.9,0.1,17.8-7.5c4.9-7.6,4.9-16.5,0-20
				C1724.2,825.8,1716.2,829.1,1711.3,836.7z"/>
			<path fill="#13375B" d="M1656.9,745.6c0,0,36.9,86.2,65.8,82.3c28.9-3.9,7.1-51.5,7.1-52.7c0-1.2-17.6-26.5-22.2-26.5
				c-4.6,0-32.9-3.1-32.9-3.1H1656.9z"/>
			<path fill="#F8A492" d="M1530.5,1083.5c0.2-3.4-0.5-6.8-2.2-9.8c-17.4-31.4-52.5-81.7-59.3-88.8c-33.8-35.7-47.9-29.7-54.4-25.7
				c-11.9,7.3,4.5,36.1,14.2,49.9c12.9,18.6,65,72.2,67.4,74.5c-1.6,1.8-8.2,9.3-9.2,10.1c-1,0.8-8.2,14.4-9.4,16.5
				c-1.2,2.2-2.3,7.8-2.3,7.8l-4.4,9.3c-3.2,6.8,4.8,7.9,4.8,7.9c-1.5,3.2-1,5.4,0.6,6.8c1.6,1.4,4,1.7,4.3,2c0.3,0.3,0,1.4,0,1.4
				c-1,2,0.7,4.6,2.1,5.5c1.4,0.9,4.5,1,5.7,0.4c1.1-0.6,1.6-0.2,1.6-0.2c1,1.9,6.9,4.3,9.1,2.9s7.4-10.9,8.4-11.5
				c1-0.7,2.9-1.7,3.7-3c0.8-1.4,9.7-9.7,10.8-11.6c1.1-1.9,4.7-10,5.7-14.4C1528.2,1109.9,1529.8,1092.6,1530.5,1083.5z"/>
			<g>
				<path fill="#50BFA5" d="M1567.5,1169.8H1556h-79.5v25.1c0,29.3,13.5,53.1,30.1,53.1h49.4h11.5h49.4c16.6,0,30.1-23.8,30.1-53.1
					v-25.1H1567.5z"/>
				<path opacity="0.5" fill="#C6E3FD" d="M1496,1194.9v-25.1h-19.5v25.1c0,29.3,13.5,53.1,30.1,53.1h19.5
					C1509.5,1248,1496,1224.2,1496,1194.9z"/>
			</g>
			<path fill="#F8A492" d="M1812.8,1111c-0.1-7.9-31.2-85.5-31.2-85.5l-46.2,21.3c0,0,19.5,46,20.6,50.8c0,0-62.1,47.5-94.2,68.6
				c-3.5,0.5-15.1,3.5-18.5,2.4c0,0-0.1,0-0.1,0c-5.2-1.6-16.1-3.5-18.7-3.2c-3.1,0.3-9.4,1.1-13.2,1.6c-3.8,0.5-8.3,1-10.2,1.5
				c-1.2,0.3-4-0.1-5.9-0.4c-2.9-0.5-5,2.9-3.1,5.2c1.7,2.2,5.7,3,8.1,3.5c6.9,1.3,18-0.6,17.7,0.5s-16.8,10.4-18.7,11.5
				c-1.8,1.2-21.1,12.1-24.1,15.5s-1.4,5.8,1.2,5.7c2.2-0.1,29.9-13.3,29.9-13.3s3.5-1.7,3,0.3c-0.6,2-25.7,14-29.1,16.5
				c-3.4,2.5-4.5,5.8-0.7,6.8c4.7,1.3,30.7-13.1,30.7-13.1s3.3-1.8,3.5-0.2c0.2,1.6-21.3,11.4-22.8,13.3s-1.1,5,2.6,5.2
				c4.4,0.3,27.5-12.8,27.5-12.8s2-0.5,1.7,0.7c-0.3,1.2-18.1,10.9-19.1,13.4c-0.9,2.1,1,3,1,3c3.7,2.7,19.6-9.2,28.5-12.3
				c2.6-0.9,19.4-11,42.2-25c0,0-0.1-0.1-0.1-0.1c27-14.1,100.8-51.6,100.8-51.6S1812.9,1118.8,1812.8,1111z"/>
			<path fill="#F47458" d="M1753.4,933.1c0,0-12.5-11.3-26.7,3.1c-14.2,14.5-26.5,40.5-19.4,94.7c2.4,5.1,6,26.1,6,26.1
				c17.3,5.5,74.1-25,74.1-25S1762.5,943.5,1753.4,933.1z"/>
			<path fill="#FFFFFF" d="M1674.3,854.9l-24.2-9.1c0,0-2.9,9.4,7.6,13.7C1670.5,864.8,1674.3,854.9,1674.3,854.9z"/>
		</g>
		<path fill="#FAE0B2" d="M1722.7,921c-3.3-0.1-6.4,1.6-8.5,4.2c-6.5,8.3-24.4,32.9-32.6,59.9c-10.1,33.3-28.5,64.5-22.8,75
			c0,0,2.6-5.4,20.2,3.3c17.5,8.6,21.1,10.5,35.1,7.1c0,0,8.3-117.6,23.2-142.6c1-1.7,0.2-3.9-1.7-4.5
			C1732.1,922.3,1727,921,1722.7,921z"/>
		<path opacity="0.5" fill="#FAE0B2" d="M1679,1063.3c0.6,0.3,1.1,0.6,1.7,0.8c2.1-29.4,7.4-60.8,7.4-60.8
			c-9.6,21-17.1,44.7-20.9,55.5C1670.1,1059.5,1673.9,1060.8,1679,1063.3z"/>
	</g>
	<g>
		<g>
			<path fill="#13375B" d="M1128.7,1106.2c0.3-17.2,0.7-34.5,14.4-50.2c11.1-12.7,26.4-17.9,42.2-16.1c44.8,5.2,25.8,43.6,84.5,66.9
				c18.3,7.2,35.2,14,48.7,27.2c24.5,23.8,28.7,53.5-0.7,93.4c-72.1,97.6-160.4-23.1-172.7-46.4
				C1132.9,1158,1128.5,1117.3,1128.7,1106.2z"/>
			<g>
				<g>
					<path fill="#F7A491" d="M1315.2,1101.8c10.3-10.6,31.8-47.5,39.1-60c-0.2-1.2-0.8-8.5,4.9-19.2c4-7.6,4.9-22.9,9.4-19.6
						c4.5,3.3-1.8,16.7,2.3,15.9c4.1-0.8,19.2-28.1,23.3-25.1c4.1,3-11.9,27.8-8.2,27c3.7-0.8,15.7-24.9,21.5-20.7
						c5.8,4.2-16.8,27.1-13.7,29.4c3.1,2.3,17-12.6,21.6-9.2c4.6,3.4-19.9,19.3-17.7,18.9c2.2-0.4,17.5-4.3,18.3-1.4
						c0.9,3.3-37.1,17.4-40.6,24.3l0,0c-6.6,18.6-18.1,52.5-33.6,69.8c-19,21.1-63.6,66.8-63.6,66.8l-33.5-27.7
						C1244.5,1171,1303,1114.4,1315.2,1101.8z"/>
					<path fill="#F48C7F" d="M1372.5,1026.1c1.5,1.8,2.4,3.8,3,5.9c0,0.4,2.5,7.2-2.2,13.8C1374.6,1041,1376.1,1035.6,1372.5,1026.1
						z"/>
				</g>
				<g>
					<path fill="#F7A491" d="M1067.5,1119.1c-12-8.6-39.7-41.1-49.1-52.1c-0.1-1.3-0.7-8.5-8.2-18c-5.3-6.7-8.9-21.7-12.8-17.6
						c-3.8,4,4.7,16.2,0.6,16.1c-4.2-0.1-23.8-24.2-27.3-20.6c-3.5,3.7,16.6,25.2,12.9,25.1c-3.7-0.1-19.9-21.8-24.8-16.6
						c-4.9,5.2,21.4,23.7,18.7,26.5s-18.9-9.4-22.9-5.2c-4,4.2,23,15.5,20.8,15.5c-2.2-0.1-18-1.2-18.2,1.9
						c-0.3,3.4,39.6,10.5,44.3,16.7l0,0c9.8,17.2,27.1,48.5,45.5,62.7c22.4,17.4,74.4,54.4,74.4,54.4l28-33.2
						C1149.4,1174.5,1081.8,1129.3,1067.5,1119.1z"/>
					<path fill="#F48C7F" d="M997.7,1054.7c-1.1,2-1.7,4.2-1.9,6.4c0.1,0.4-1.2,7.5,4.7,13.2
						C998.3,1069.8,995.9,1064.7,997.7,1054.7z"/>
				</g>
				<path fill="#86B1F2" d="M1100.5,1137.6l-21.5,46.6l50.5,47.8c0,0,5.9,42.6,3.3,56.9s-22,75-22,75s87.3,29.7,160.7,6
					c0,0-3.3-113.5,0.2-125.3c3.6-11.8,49.1-76.4,49.1-76.4l-37.9-38.6l-42,37.4c0,0-90.8,5.6-96,2.3
					C1139.9,1166.1,1100.5,1137.6,1100.5,1137.6z"/>
				<path fill="#F7A491" d="M1206.3,1107.8c-0.9,7.3,2.4,13.6,7.3,14.2s9.6-4.8,10.5-12c0.9-7.3-2.4-13.6-7.3-14.2
					C1211.9,1095.1,1207.2,1100.5,1206.3,1107.8z"/>
				<path fill="#F7A491" d="M1131.7,1110.3c1.3,7.2,6.2,12.3,11.1,11.5c4.9-0.9,7.8-7.4,6.5-14.6c-1.3-7.2-6.2-12.3-11.1-11.5
					C1133.4,1096.6,1130.5,1103.1,1131.7,1110.3z"/>
				<path fill="#F7A491" d="M1171.2,1148.8c0.1,0.5,0,17.9-0.1,27c0,3.4,2.4,6.4,5.7,7.1c9,1.9,26.1,3.5,34.9-9
					c0.8-1.1,1-2.6,0.7-3.9l-10.2-39.1L1171.2,1148.8z"/>
				<path fill="#F48C7F" d="M1171.2,1158.5c9.6,2.4,20.4,0.1,31-9.8c1.3-1.2,2.6-2.5,3.7-3.9l-3.7-14l-31,18
					C1171.3,1149,1171.2,1153.2,1171.2,1158.5z"/>
				<path fill="#F7A491" d="M1174.4,1052.4c0,0,15.4,0.6,27.2,12.8s25.7,52.2-0.8,77c-26.5,24.8-55,2.1-60.4-24.3
					C1135,1091.5,1139.2,1055.3,1174.4,1052.4z"/>
			</g>
			<path fill="#13375B" d="M1215,1096c0,0-42-3-62.6-39.4l32.8-10.7l24.9,23.2c0,0,11.6,14.2,11.6,15.9
				C1221.8,1086.7,1215,1096,1215,1096z"/>
		</g>
		<path fill="#FFFFFF" d="M1187.1,1127l-24.6,0c0,0,0.6,9.3,11.4,9.6C1187.1,1137,1187.1,1127,1187.1,1127z"/>
	</g>
	<g>
		<path fill="#F7A491" d="M793.9,1809.5c0,0-2.3,41.6-2.3,41.7c-0.8,5.3-4.2,18.3-4.2,23.1c0,18,78.8-15.3,61.1-23.3
			c-1.6-0.7-10-6.2-10.5-12.3c-0.8-9.5-2.9-28.6-2.9-28.6L793.9,1809.5z"/>
		<path fill="#F47458" d="M848.3,1850.8c0,0-18.5,5.5-28,6.9c-9.5,1.4-22-10.2-28.7-7.1c-7.4,3.5-6.6,37.5-6.6,37.5
			s98.7,5.9,126.6-3.2C922.7,1881.2,886.1,1863.7,848.3,1850.8z"/>
		<path fill="#F7A491" d="M620.3,1813.5c0,0-2.3,41.6-2.3,41.7c-0.8,5.3-4.2,18.3-4.2,23.1c0,18,78.8-15.3,61.1-23.3
			c-1.6-0.7-12.5-10.3-13-16.4c-0.8-9.5-0.4-24.5-0.4-24.5L620.3,1813.5z"/>
		<path fill="#F47458" d="M674.7,1854.8c0,0-18.5,5.5-28,6.9c-9.5,1.4-22-10.2-28.7-7.1c-7.4,3.5-7.7,34.5-7.7,34.5
			s105.6,7.8,130.4,0.5C752,1886.3,712.6,1867.7,674.7,1854.8z"/>
		<g>
			<path fill="#13375B" d="M684.5,650.4c-5.8-0.7-11.6-1.7-17.2-3.1c-6.4-1.6-14.7-3.4-19.6-3.1c-10.4,0.5-27.4,5.1-34.9,17.4
				c-9.3,15.3-32.5,9.1-14.5,75.7c20.4,75.5,61.2,58.4,62,56.9c0.8-1.5,27.9-56.7,27.9-56.7s18.7,25.6,18.4,24.5
				C706.4,761,754.2,659,684.5,650.4z"/>
			<path fill="#F7A491" d="M1005.4,777.8c-2.4-5.2-24.2,9.7-28.9,6.8c-4.8-3,19.7-27,17.3-31.3c-4.4-7.9-28.4,24.7-30.7,21.2
				c-2.3-3.5,20.8-38.3,12.8-40.3c-8-2-20.2,38.6-24.3,35.9c-4.1-2.7,14.7-36.8,6.9-43.9c-4.1-3.8-24.7,62.3-31.9,65
				c-7.2,2.7-14.8-26.4-21.6-25.4c-6.7,1.1,21.4,53.6,19.9,57.6c-1.5,4-28.3,94.4-44.2,119.9c-9.3-4.6-63.4-24.4-72.1-28.9
				c-3.8,19.7-15.7,34.7-20.5,54c30,13.7,112.5,39.1,121.3,36c26.8-9.5,41.7-138.9,46.3-163c4.6-24.1,16.1-28.7,22.8-41.4
				C985.2,787.5,1007.8,783,1005.4,777.8z"/>
			<path fill="#934437" d="M833.7,999.7c0,0-116.3-33.8-145.2-58.2c-28.9-24.4-34.4-80.7-6.9-99.8c27.5-19.1,173.4,79.8,173.4,79.8
				L833.7,999.7z"/>
			<path fill="#355389" d="M745.2,1213l33.3,14.6l70.1,340.8l-2.8,255.5l-56.2,1.3c0,0-26.1-223.5-26.1-240.8s-121-303.1-121-303.1
				L745.2,1213z"/>
			<path fill="#466EB6" d="M719.5,1231.8c0,0-24.5,262.6-24.5,306.8c0,44.3-19.9,292-19.9,292l-56.3-0.3c0,0-4.1-75.5-10.1-186.6
				c-0.9-17.4,1.2-52.5,0-70.5c-8.8-129.5-26.1-251.5-17.8-299.8c1.3-7.8,3.8-28.1,8.7-33.3C636.4,1201.2,719.5,1231.8,719.5,1231.8
				z"/>
			<path fill="#B75742" d="M626.8,839.1c0,0-38.8,5.5-49.1,13.2c-11.5,8.6-24.3,27.9-24.3,27.9s47.7,229.7,47.8,268.3
				c0.1,29.9-10.3,103.3-10.3,103.3s144.1,9.3,198.7-12.7c0,0-17.2-87.3-17.2-110.2c0-22.9-20.6-231.4-25.3-246
				c-4.3-13.2-12-36.9-38.4-42.8C682.3,834.2,626.8,839.1,626.8,839.1z"/>
			<path fill="#F7A491" d="M637.4,777.3l-9.6,64.1c0,0,35.1,76.4,56.1,69.7c17.6-5.6,6.8-73.1,6.8-73.1c-0.3-1.7-9.9-38.5-6.7-54.4
				C687.5,765.6,637.4,777.3,637.4,777.3z"/>
			<path fill="#F47458" d="M683.9,783.6c2.9-18.2-46.5-6.3-46.5-6.3l-0.8,5.3l-1.5,9.8c0,0,16.7,39.7,52.9,34.2
				C686.5,816.8,682.7,791,683.9,783.6z"/>
			<path fill="#F7A491" d="M654.2,677.9c21.7-8.2,45.5,5.7,49.5,28.3c1.7,9.8,3.4,22.1,4.1,35.7c1.6,32.5-14.3,64.7-29,65.1
				c-14.7,0.4-56.1-19.5-58.9-65.6C618.1,712.9,631.5,686.5,654.2,677.9z"/>
			<path fill="#F7A491" d="M630.8,744.7c0.2,7.2-4.4,13.1-10.2,13.3c-5.9,0.2-10.8-5.5-11-12.7c-0.2-7.2,4.4-13.1,10.2-13.3
				C625.7,731.8,630.6,737.5,630.8,744.7z"/>
			<path fill="#13375B" d="M619.8,732c0,0,18.1,0.8,22.2-11.6c4.1-12.4,22.1-40.9,53.1-36.9c31,4-30.4-18.9-32.8-18.4
				c-2.3,0.5-30.2,6-30.2,6s-17.9,22-18.2,24.1c-0.4,2.1-2.2,24.5-2.2,24.5L619.8,732z"/>
			<path fill="#FFFFFF" d="M691.7,769.7l-26.1,2.5c0,0,1.6,9.8,13.1,9.1C692.7,780.4,691.7,769.7,691.7,769.7z"/>
			<g>
				<path fill="#C6E3FD" d="M779.5,1064.1l37.8-192.5c0,0,18.9,71.1-7.1,198.5L779.5,1064.1z"/>
				
					<rect x="771" y="1064.7" transform="matrix(0.9812 0.1928 -0.1928 0.9812 228.2502 -129.3108)" fill="#13375B" width="14.9" height="86.5"/>
			</g>
			<path fill="#F7A491" d="M808.3,1089.3c-1.2-0.9-1-1.5-1-1.5c1.5-2,0.9-9.1-1.5-10.6c-2.4-1.5-14.6-2.2-15.8-2.8
				c-1.1-0.7-3.1-2.1-4.9-2.2c-1.8-0.1-14.6-5.1-17.1-5.3c-2.5-0.2-10.6,4-15.6,5.2c-5,1.1-12.4,6.6-14.6,7.9
				c-1.6,1-35.2-0.7-43.8-1c-9.4-0.4-16.7-1.2-16.7-1.2s-55.2-8.1-112.7-12.4L575,1018l-54.2-6.3c-3.7,26.9-13.3,68.5-13.7,81.2
				c-0.9,24.9,84.2,22.4,159.5,18.9h0c8.3-0.4,16.1-0.8,23.2-1.2c9.7-0.2,26,0.9,33.5,1.3l0,0c4.7,0.7,11.2,1.6,12,2.1
				c1.3,0.7,9.9,2.3,10.6,2.3c0.7,0,3.7,1.7,5,2.4c1.3,0.7,18.5,1.2,21.3,1.4c2.8,0.2,9-1.5,9-1.5l11.5-0.1c8.5-0.1,5.6-8.7,5.6-8.7
				c4-0.1,6-1.6,6.6-3.9c0.6-2.3-0.2-4.9-0.1-5.3c0.1-0.4,1.4-0.7,1.4-0.7c2.5,0.1,4.3-2.9,4.5-4.8
				C810.9,1093.4,809.5,1090.2,808.3,1089.3z"/>
			<path fill="#B75742" d="M584.8,848.6c0,0-22.7,5.3-46.2,32.2c-21.4,24.5-34.8,161.4-34.8,161.4l73.8,12.2l5.9-66.3l19.7-30.3
				L584.8,848.6z"/>
		</g>
	</g>
	<g>
		<rect x="1048.4" y="666.7" fill="#F47458" width="416" height="12.8"/>
		<g>
			<path fill="#C6E3FD" d="M1187.6,759.1L1187.6,759.1c-4.9-4.9-11.4-8-18.4-8.6l-42.1-3.9v157.2h45.3c13.2,0,23.9-10.7,23.9-23.9
				v-99.8C1196.3,772.3,1193.2,764.7,1187.6,759.1z M1175.7,891.1c-5.2,0-9.5-4.2-9.5-9.5c0-5.2,4.2-9.5,9.5-9.5s9.5,4.2,9.5,9.5
				C1185.2,886.9,1180.9,891.1,1175.7,891.1z"/>
			<rect x="1127.1" y="654.5" fill="#13375B" width="20.6" height="94.2"/>
		</g>
		<g>
			<path fill="#C6E3FD" d="M1219.9,839.7V726.8l16.5,0.2v79.1C1236.4,806.1,1233.5,839.7,1219.9,839.7z"/>
			<rect x="1219.9" y="653.8" fill="#13375B" width="8.9" height="73"/>
		</g>
		<g>
			<path fill="#C6E3FD" d="M1069,725.2v165.5c0,0,27.2-55.8,26.4-165.5H1069z"/>
			<rect x="1069" y="652.3" fill="#13375B" width="12.6" height="73"/>
		</g>
		<g>
			<path fill="#C6E3FD" d="M1272.6,725.2v165.5c0,0,27.2-55.8,26.4-165.5H1272.6z"/>
			<rect x="1272.6" y="652.3" fill="#13375B" width="12.6" height="73"/>
		</g>
		<g>
			<rect x="1336.6" y="658.1" fill="#C6E3FD" width="5.8" height="154"/>
			<rect x="1334" y="647.2" fill="#13375B" width="10.9" height="73"/>
			<path fill="#C6E3FD" d="M1354.5,808.6h-30c-3.6,0-6.5,2.9-6.5,6.5v41.6c0,3.6,2.9,6.5,6.5,6.5h30c3.6,0,6.5-2.9,6.5-6.5v-41.6
				C1361,811.5,1358.1,808.6,1354.5,808.6z M1328.5,853.1c0,1.2-0.9,2.1-2.1,2.1s-2.1-0.9-2.1-2.1v-34.8c0-1.2,0.9-2.1,2.1-2.1
				s2.1,0.9,2.1,2.1V853.1z M1337.2,853.1c0,1.2-0.9,2.1-2.1,2.1s-2.1-0.9-2.1-2.1v-34.8c0-1.2,0.9-2.1,2.1-2.1s2.1,0.9,2.1,2.1
				V853.1z M1346,853.1c0,1.2-0.9,2.1-2.1,2.1c-1.2,0-2.1-0.9-2.1-2.1v-34.8c0-1.2,0.9-2.1,2.1-2.1c1.2,0,2.1,0.9,2.1,2.1V853.1z
				 M1354.7,853.1c0,1.2-0.9,2.1-2.1,2.1s-2.1-0.9-2.1-2.1v-34.8c0-1.2,0.9-2.1,2.1-2.1s2.1,0.9,2.1,2.1V853.1z"/>
		</g>
		<rect x="1434.5" y="658.1" fill="#C6E3FD" width="5.8" height="154"/>
		<rect x="1432" y="647.2" fill="#13375B" width="10.9" height="73"/>
		<g>
			<rect x="1386.8" y="658.1" fill="#C6E3FD" width="3.3" height="154"/>
			<rect x="1384.3" y="647.2" fill="#13375B" width="8.2" height="73"/>
			<path fill="#C6E3FD" d="M1388.5,807.6c-18.8,2.7-7.6,47.7-7.6,47.7c-0.7-38.7,7.6-38.7,7.6-38.7s8.3,0,7.6,38.7
				C1396.1,855.3,1407.3,810.3,1388.5,807.6z"/>
		</g>
		<g>
			<path fill="#C6E3FD" d="M1437.4,833c13.5,0,24.4-10.9,24.4-24.4H1413C1413,822.1,1423.9,833,1437.4,833z"/>
			<path opacity="0.3" fill="#C6E3FD" d="M1422.8,808.6h-9.8c0,13.5,10.9,24.4,24.4,24.4c1.7,0,3.3-0.2,4.9-0.5
				C1431.2,830.3,1422.8,820.4,1422.8,808.6z"/>
		</g>
	</g>
	<g>
		<g>
			<g>
				<path fill="#86B1F2" d="M743.5,428.2h33c0.7,0,1.2,0.6,1.2,1.2v23c0,0.7-0.6,1.2-1.2,1.2h-33c-0.7,0-1.2-0.6-1.2-1.2v-23
					C742.2,428.7,742.8,428.2,743.5,428.2z"/>
				<path fill="#F47458" d="M733.3,545.4h53.6c0.1,0,0.2-0.1,0.2-0.2v-3.7c0-0.1-0.1-0.2-0.2-0.2h-53.6c-0.1,0-0.2,0.1-0.2,0.2v3.7
					C733.1,545.3,733.2,545.4,733.3,545.4z"/>
				<path fill="#F7CC7F" d="M733.3,458.6h3.2v-3.5c0-0.7-0.6-1.3-1.3-1.3l0,0c-0.7,0-1.3-0.6-1.3-1.3v-5.4c0-0.7,0.6-1.3,1.3-1.3
					h49.7c0.7,0,1.3,0.6,1.3,1.3v5.4c0,0.7-0.6,1.3-1.3,1.3c-0.7,0-1.3,0.6-1.3,1.3v3.5h3.2c5.2,0,9.5,4.2,9.5,9.5v63.8
					c0,5.2-4.2,9.5-9.5,9.5h-53.5c-5.2,0-9.5-4.2-9.5-9.5V468C723.8,462.8,728,458.6,733.3,458.6z"/>
				<path opacity="0.5" fill="#FFFFFF" d="M732.5,511h54.9c1,0,1.8-0.8,1.8-1.8v-32.3c0-1-0.8-1.8-1.8-1.8h-54.9
					c-1,0-1.8,0.8-1.8,1.8v32.3C730.8,510.2,731.6,511,732.5,511z"/>
				<path fill="#F47458" d="M785.4,453.7h-50.8c-0.4-0.2-0.7-0.7-0.7-1.2v-5.4c0-0.7,0.6-1.3,1.3-1.3h49.7c0.7,0,1.3,0.6,1.3,1.3
					v5.4C786.2,453,785.8,453.5,785.4,453.7z"/>
			</g>
			<g>
				<path fill="#F7CC7F" d="M652.4,428.2h33c0.7,0,1.2,0.6,1.2,1.2v23c0,0.7-0.6,1.2-1.2,1.2h-33c-0.7,0-1.2-0.6-1.2-1.2v-23
					C651.2,428.7,651.7,428.2,652.4,428.2z"/>
				<path fill="#86B1F2" d="M642.3,545.4h53.6c0.1,0,0.2-0.1,0.2-0.2v-3.7c0-0.1-0.1-0.2-0.2-0.2h-53.6c-0.1,0-0.2,0.1-0.2,0.2v3.7
					C642.1,545.3,642.2,545.4,642.3,545.4z"/>
				<path fill="#F47458" d="M642.2,458.6h3.2v-3.5c0-0.7-0.6-1.3-1.3-1.3l0,0c-0.7,0-1.3-0.6-1.3-1.3v-5.4c0-0.7,0.6-1.3,1.3-1.3
					h49.7c0.7,0,1.3,0.6,1.3,1.3v5.4c0,0.7-0.6,1.3-1.3,1.3s-1.3,0.6-1.3,1.3v3.5h3.2c5.2,0,9.5,4.2,9.5,9.5v63.8
					c0,5.2-4.2,9.5-9.5,9.5h-53.5c-5.2,0-9.5-4.2-9.5-9.5V468C632.7,462.8,637,458.6,642.2,458.6z"/>
				<path opacity="0.5" fill="#FFFFFF" d="M641.5,511h54.9c1,0,1.8-0.8,1.8-1.8v-32.3c0-1-0.8-1.8-1.8-1.8h-54.9
					c-1,0-1.8,0.8-1.8,1.8v32.3C639.7,510.2,640.5,511,641.5,511z"/>
				<path fill="#86B1F2" d="M694.3,453.7h-50.8c-0.4-0.2-0.7-0.7-0.7-1.2v-5.4c0-0.7,0.6-1.3,1.3-1.3h49.7c0.7,0,1.3,0.6,1.3,1.3
					v5.4C695.1,453,694.8,453.5,694.3,453.7z"/>
			</g>
			<g>
				<path fill="#F47458" d="M562.7,428.2h33c0.7,0,1.2,0.6,1.2,1.2v23c0,0.7-0.6,1.2-1.2,1.2h-33c-0.7,0-1.2-0.6-1.2-1.2v-23
					C561.5,428.7,562,428.2,562.7,428.2z"/>
				<path fill="#F7CC7F" d="M552.5,545.4h53.6c0.1,0,0.2-0.1,0.2-0.2v-3.7c0-0.1-0.1-0.2-0.2-0.2h-53.6c-0.1,0-0.2,0.1-0.2,0.2v3.7
					C552.3,545.3,552.4,545.4,552.5,545.4z"/>
				<path fill="#86B1F2" d="M552.5,458.6h3.2v-3.5c0-0.7-0.6-1.3-1.3-1.3l0,0c-0.7,0-1.3-0.6-1.3-1.3v-5.4c0-0.7,0.6-1.3,1.3-1.3
					h49.7c0.7,0,1.3,0.6,1.3,1.3v5.4c0,0.7-0.6,1.3-1.3,1.3c-0.7,0-1.3,0.6-1.3,1.3v3.5h3.2c5.2,0,9.5,4.2,9.5,9.5v63.8
					c0,5.2-4.2,9.5-9.5,9.5h-53.5c-5.2,0-9.5-4.2-9.5-9.5V468C543,462.8,547.2,458.6,552.5,458.6z"/>
				<path opacity="0.5" fill="#FFFFFF" d="M551.7,511h54.9c1,0,1.8-0.8,1.8-1.8v-32.3c0-1-0.8-1.8-1.8-1.8h-54.9
					c-1,0-1.8,0.8-1.8,1.8v32.3C550,510.2,550.8,511,551.7,511z"/>
				<path fill="#F7CC7F" d="M604.6,453.7h-50.8c-0.4-0.2-0.7-0.7-0.7-1.2v-5.4c0-0.7,0.6-1.3,1.3-1.3h49.7c0.7,0,1.3,0.6,1.3,1.3
					v5.4C605.4,453,605.1,453.5,604.6,453.7z"/>
			</g>
		</g>
		<g>
			<path fill="#FAE0B2" d="M957.8,368.6v-92.7h-23.1v92.7h0c-9.4,0-17,7.7-17,17.1v159.7h57.1V385.7
				C974.8,376.3,967.2,368.6,957.8,368.6L957.8,368.6z"/>
			<rect x="934.7" y="275.9" fill="#F47458" width="23.1" height="45"/>
			<rect x="917.7" y="441.2" fill="#96D9C9" width="57.1" height="81.3"/>
			<path opacity="0.5" fill="#C6E3FD" d="M957.8,368.6v-92.7h-11.9v92.7c9.4,0,17,7.7,17,17.1v159.7h11.9V385.7
				C974.8,376.3,967.2,368.6,957.8,368.6z"/>
		</g>
		<g>
			<path fill="#FAE0B2" d="M877.1,368.6v-92.7H854v92.7h0c-9.4,0-17,7.7-17,17.1v159.7h57.1V385.7
				C894.1,376.3,886.5,368.6,877.1,368.6L877.1,368.6z"/>
			<rect x="854" y="275.9" fill="#F47458" width="23.1" height="45"/>
			<rect x="836.9" y="441.2" fill="#86B1F2" width="57.1" height="81.3"/>
			<path opacity="0.5" fill="#C6E3FD" d="M877.1,368.6v-92.7h-11.9v92.7c9.4,0,17,7.7,17,17.1v159.7h11.9V385.7
				C894.1,376.3,886.5,368.6,877.1,368.6z"/>
		</g>
		<rect x="493.8" y="545.4" fill="#13375B" width="495.5" height="12.4"/>
	</g>
	<g>
		
			<rect x="319.8" y="1273.6" transform="matrix(-1 -1.224647e-16 1.224647e-16 -1 2277.0479 3201.377)" fill="#FAE0B2" width="1637.4" height="654.2"/>
		
			<rect x="683.7" y="1273.5" transform="matrix(-1 -1.224647e-16 1.224647e-16 -1 2640.9312 2572.4229)" fill="#EFEDE8" width="1273.5" height="25.4"/>
		
			<rect x="1577.3" y="1254.9" transform="matrix(-1 -1.224647e-16 1.224647e-16 -1 3159.0889 3182.7529)" fill="#F7CC7F" width="4.4" height="672.9"/>
		
			<rect x="1105.6" y="1254.9" transform="matrix(-1 -1.224647e-16 1.224647e-16 -1 2215.5332 3182.7529)" fill="#F7CC7F" width="4.4" height="672.9"/>
		
			<rect x="679.3" y="1254.9" transform="matrix(-1 -1.224647e-16 1.224647e-16 -1 1363.056 3182.7529)" fill="#F7CC7F" width="4.4" height="672.9"/>
		
			<rect x="892.4" y="1274.8" transform="matrix(-1.836970e-16 1 -1 -1.836970e-16 2380.3452 591.0503)" fill="#F7CC7F" width="4.4" height="421.8"/>
		
			<rect x="892.4" y="1504.6" transform="matrix(-1.836970e-16 1 -1 -1.836970e-16 2610.1191 820.8243)" fill="#F7CC7F" width="4.4" height="421.8"/>
		
			<rect x="1341.4" y="1481.8" transform="matrix(-1.836970e-16 1 -1 -1.836970e-16 3059.1089 371.8345)" fill="#F7CC7F" width="4.4" height="467.4"/>
		<polygon fill="#13375B" points="1642.6,1336.3 1899.7,1336.3 1903.2,1336.3 1903.2,1346 1903.2,1364.5 1899.7,1364.5 1899.7,1346 
			1642.6,1346 1642.6,1364.5 1639.1,1364.5 1639.1,1346 1639.1,1336.3 		"/>
		<polygon fill="#13375B" points="370.3,1336.3 627.3,1336.3 630.9,1336.3 630.9,1346 630.9,1364.5 627.3,1364.5 627.3,1346 
			370.3,1346 370.3,1364.5 366.7,1364.5 366.7,1346 366.7,1336.3 		"/>
		<polygon fill="#13375B" points="767.3,1336.3 1024.4,1336.3 1027.9,1336.3 1027.9,1346 1027.9,1364.5 1024.4,1364.5 1024.4,1346 
			767.3,1346 767.3,1364.5 763.8,1364.5 763.8,1346 763.8,1336.3 		"/>
		<polygon fill="#13375B" points="767.3,1533.9 1024.4,1533.9 1027.9,1533.9 1027.9,1543.6 1027.9,1562.1 1024.4,1562.1 
			1024.4,1543.6 767.3,1543.6 767.3,1562.1 763.8,1562.1 763.8,1543.6 763.8,1533.9 		"/>
		<polygon fill="#13375B" points="767.3,1764.6 1024.4,1764.6 1027.9,1764.6 1027.9,1774.3 1027.9,1792.8 1024.4,1792.8 
			1024.4,1774.3 767.3,1774.3 767.3,1792.8 763.8,1792.8 763.8,1774.3 763.8,1764.6 		"/>
		<polygon fill="#13375B" points="1217.9,1764.6 1474.9,1764.6 1478.5,1764.6 1478.5,1774.3 1478.5,1792.8 1474.9,1792.8 
			1474.9,1774.3 1217.9,1774.3 1217.9,1792.8 1214.4,1792.8 1214.4,1774.3 1214.4,1764.6 		"/>
		
			<rect x="1145.4" y="1318.2" transform="matrix(-1 -1.224647e-16 1.224647e-16 -1 2692.8237 2792.5527)" fill="#13375B" width="402.1" height="156.1"/>
		<g>
			<path fill="#EAFCFC" d="M1458.1,1380.3h31.4c18.1,0,32.7-14.7,32.7-32.7l0,0h-96.8l0,0C1425.3,1365.6,1440,1380.3,1458.1,1380.3z
				"/>
			<path opacity="0.5" fill="#C6E3FD" d="M1509.6,1347.5h12.5c0,18.1-14.7,32.7-32.7,32.7h-12.5
				C1495,1380.3,1509.6,1365.6,1509.6,1347.5z"/>
		</g>
		<g>
			<path fill="#EAFCFC" d="M1343.8,1380.3h31.4c18.1,0,32.7-14.7,32.7-32.7l0,0H1311l0,0C1311,1365.6,1325.7,1380.3,1343.8,1380.3z"
				/>
			<path opacity="0.5" fill="#C6E3FD" d="M1395.3,1347.5h12.5c0,18.1-14.7,32.7-32.7,32.7h-12.5
				C1380.7,1380.3,1395.3,1365.6,1395.3,1347.5z"/>
		</g>
		<g>
			<path fill="#F47458" d="M1344.7,1396.6h31.4c18.1,0,32.7-14.7,32.7-32.7l0,0h-96.8l0,0C1311.9,1382,1326.6,1396.6,1344.7,1396.6z
				"/>
			<path opacity="0.5" fill="#466EB6" d="M1396.2,1363.9h12.5c0,18.1-14.7,32.7-32.7,32.7h-12.5
				C1381.6,1396.6,1396.2,1382,1396.2,1363.9z"/>
		</g>
		<g>
			<path fill="#EAFCFC" d="M1343.8,1417.3h31.4c18.1,0,32.7-14.7,32.7-32.7l0,0H1311l0,0C1311,1402.6,1325.7,1417.3,1343.8,1417.3z"
				/>
			<path opacity="0.5" fill="#C6E3FD" d="M1395.3,1384.5h12.5c0,18.1-14.7,32.7-32.7,32.7h-12.5
				C1380.7,1417.3,1395.3,1402.6,1395.3,1384.5z"/>
		</g>
		<g>
			<path fill="#F47458" d="M1344.7,1437.3h31.4c18.1,0,32.7-14.7,32.7-32.7l0,0h-96.8l0,0
				C1311.9,1422.6,1326.6,1437.3,1344.7,1437.3z"/>
			<path opacity="0.5" fill="#466EB6" d="M1396.2,1404.5h12.5c0,18.1-14.7,32.7-32.7,32.7h-12.5
				C1381.6,1437.3,1396.2,1422.6,1396.2,1404.5z"/>
		</g>
		<g>
			<path fill="#EAFCFC" d="M1343.8,1458h31.4c18.1,0,32.7-14.7,32.7-32.7l0,0H1311l0,0C1311,1443.3,1325.7,1458,1343.8,1458z"/>
			<path opacity="0.5" fill="#C6E3FD" d="M1395.3,1425.2h12.5c0,18.1-14.7,32.7-32.7,32.7h-12.5
				C1380.7,1458,1395.3,1443.3,1395.3,1425.2z"/>
		</g>
		<g>
			<path fill="#F47458" d="M1344.7,1474.3h31.4c18.1,0,32.7-14.7,32.7-32.7l0,0h-96.8l0,0
				C1311.9,1459.7,1326.6,1474.3,1344.7,1474.3z"/>
			<path opacity="0.5" fill="#466EB6" d="M1396.2,1441.6h12.5c0,18.1-14.7,32.7-32.7,32.7h-12.5
				C1381.6,1474.3,1396.2,1459.7,1396.2,1441.6z"/>
		</g>
		<g>
			<path fill="#F7CC7F" d="M1458.9,1396.6h31.4c18.1,0,32.7-14.7,32.7-32.7l0,0h-96.8l0,0C1426.2,1382,1440.9,1396.6,1458.9,1396.6z
				"/>
			<path opacity="0.5" fill="#466EB6" d="M1510.5,1363.9h12.5c0,18.1-14.7,32.7-32.7,32.7h-12.5
				C1495.9,1396.6,1510.5,1382,1510.5,1363.9z"/>
		</g>
		
			<rect x="1145.7" y="1508.4" transform="matrix(-1 -1.224647e-16 1.224647e-16 -1 2693.4844 3172.8242)" fill="#13375B" width="402.1" height="156.1"/>
		<g>
			<path fill="#EAFCFC" d="M1458.1,1417.3h31.4c18.1,0,32.7-14.7,32.7-32.7l0,0h-96.8l0,0C1425.3,1402.6,1440,1417.3,1458.1,1417.3z
				"/>
			<path opacity="0.5" fill="#C6E3FD" d="M1509.6,1384.5h12.5c0,18.1-14.7,32.7-32.7,32.7h-12.5
				C1495,1417.3,1509.6,1402.6,1509.6,1384.5z"/>
		</g>
		
			<rect x="1145.7" y="1318.2" transform="matrix(-1 -1.224647e-16 1.224647e-16 -1 2374.2627 2792.5527)" opacity="0.5" fill="#87ADD0" width="82.9" height="156.1"/>
		<g>
			<path fill="#F7CC7F" d="M1458.9,1437.3h31.4c18.1,0,32.7-14.7,32.7-32.7l0,0h-96.8l0,0
				C1426.2,1422.6,1440.9,1437.3,1458.9,1437.3z"/>
			<path opacity="0.5" fill="#466EB6" d="M1510.5,1404.5h12.5c0,18.1-14.7,32.7-32.7,32.7h-12.5
				C1495.9,1437.3,1510.5,1422.6,1510.5,1404.5z"/>
		</g>
		
			<rect x="1145.7" y="1508.4" transform="matrix(-1 -1.224647e-16 1.224647e-16 -1 2374.2627 3172.8242)" opacity="0.5" fill="#87ADD0" width="82.9" height="156.1"/>
		<g>
			<path fill="#EAFCFC" d="M1458.1,1458h31.4c18.1,0,32.7-14.7,32.7-32.7l0,0h-96.8l0,0C1425.3,1443.3,1440,1458,1458.1,1458z"/>
			<path opacity="0.5" fill="#C6E3FD" d="M1509.6,1425.2h12.5c0,18.1-14.7,32.7-32.7,32.7h-12.5
				C1495,1458,1509.6,1443.3,1509.6,1425.2z"/>
		</g>
		<g>
			<path fill="#F7CC7F" d="M1458.9,1474.3h31.4c18.1,0,32.7-14.7,32.7-32.7l0,0h-96.8l0,0
				C1426.2,1459.7,1440.9,1474.3,1458.9,1474.3z"/>
			<path opacity="0.5" fill="#466EB6" d="M1510.5,1441.6h12.5c0,18.1-14.7,32.7-32.7,32.7h-12.5
				C1495.9,1474.3,1510.5,1459.7,1510.5,1441.6z"/>
		</g>
		<g>
			<g>
				<path fill="#96D9C9" d="M1446.6,1655.7h-79.4l0,0c0,4.9,1.3,8.8,2.9,8.8h73.5C1445.3,1664.5,1446.6,1660.5,1446.6,1655.7
					L1446.6,1655.7z"/>
				<path fill="#50BFA5" d="M1446.6,1646.9h-79.4v7.8c0,0.5,0.4,1,1,1h78.2c0.1,0,0.2-0.1,0.2-0.2V1646.9z"/>
				<path fill="#96D9C9" d="M1446.6,1638.1h-79.4l0,0c0,4.9,1.3,8.8,2.9,8.8h73.5C1445.3,1646.9,1446.6,1642.9,1446.6,1638.1
					L1446.6,1638.1z"/>
				<path fill="#50BFA5" d="M1446.6,1629.3h-79.4l0,0c0,4.9,1.3,8.8,2.9,8.8h73.5C1445.3,1638.1,1446.6,1634.2,1446.6,1629.3
					L1446.6,1629.3z"/>
				<path fill="#96D9C9" d="M1446.6,1620.5h-79.4l0,0c0,4.9,1.3,8.8,2.9,8.8h73.5C1445.3,1629.3,1446.6,1625.4,1446.6,1620.5
					L1446.6,1620.5z"/>
				<path fill="#50BFA5" d="M1446.6,1611.7h-79.4l0,0c0,4.9,1.3,8.8,2.9,8.8h73.5C1445.3,1620.5,1446.6,1616.6,1446.6,1611.7
					L1446.6,1611.7z"/>
			</g>
			<path opacity="0.5" fill="#C6E3FD" d="M1411.1,1620.5h2.9c-1.6,0-2.9-3.9-2.9-8.8h79.4c0,4.9-1.3,8.8-2.9,8.8h2.9
				c0,4.9-1.3,8.8-2.9,8.8h2.9c0,4.9-1.3,8.8-2.9,8.8h2.9c0,4.9-1.3,8.8-2.9,8.8h2.9v5.5c0,1.8-1.5,3.3-3.3,3.3h3.3
				c0,4.9-1.3,8.8-2.9,8.8H1414c-1.6,0-2.9-3.9-2.9-8.8h0.2c-0.1,0-0.2-0.1-0.2-0.2v-8.6h2.9c-1.6,0-2.9-3.9-2.9-8.8h2.9
				c-1.6,0-2.9-3.9-2.9-8.8h2.9C1412.4,1629.3,1411.1,1625.4,1411.1,1620.5z"/>
			<g>
				<path fill="#F47458" d="M1505.5,1655.7h-79.4l0,0c0,4.9,1.3,8.8,2.9,8.8h73.5C1504.2,1664.5,1505.5,1660.5,1505.5,1655.7
					L1505.5,1655.7z"/>
				<path fill="#EAFCFC" d="M1505.5,1646.9h-79.4v7.8c0,0.5,0.4,1,1,1h78c0.2,0,0.4-0.2,0.4-0.4V1646.9z"/>
				<path fill="#F47458" d="M1505.5,1638.1h-79.4l0,0c0,4.9,1.3,8.8,2.9,8.8h73.5C1504.2,1646.9,1505.5,1642.9,1505.5,1638.1
					L1505.5,1638.1z"/>
				<path fill="#EAFCFC" d="M1505.5,1629.3h-79.4l0,0c0,4.9,1.3,8.8,2.9,8.8h73.5C1504.2,1638.1,1505.5,1634.2,1505.5,1629.3
					L1505.5,1629.3z"/>
				<path fill="#F47458" d="M1505.5,1620.5h-79.4l0,0c0,4.9,1.3,8.8,2.9,8.8h73.5C1504.2,1629.3,1505.5,1625.4,1505.5,1620.5
					L1505.5,1620.5z"/>
				<path fill="#EAFCFC" d="M1505.5,1611.7h-79.4l0,0c0,4.9,1.3,8.8,2.9,8.8h73.5C1504.2,1620.5,1505.5,1616.6,1505.5,1611.7
					L1505.5,1611.7z"/>
			</g>
		</g>
		<g>
			<g>
				<path fill="#96D9C9" d="M1222.3,1594.9h86.3c2.9,0,5.3-2.4,5.3-5.3v-65.9h-97v65.9C1217,1592.5,1219.4,1594.9,1222.3,1594.9z"/>
				<path opacity="0.5" fill="#C6E3FD" d="M1293.8,1576.9v-53.2h20.2v53.2c0,9.9-8.1,18-18,18h-20.2
					C1285.7,1594.9,1293.8,1586.8,1293.8,1576.9z"/>
				<path fill="#F7CC7F" d="M1208.3,1530.4l15.4,10.1c0.1,0.1,0.2,0,0.3-0.1l1.8-2.7c0.1-0.1,0-0.2-0.1-0.3l-15.4-10.1
					c-0.1-0.1-0.2,0-0.3,0.1l-1.8,2.7C1208.2,1530.2,1208.2,1530.4,1208.3,1530.4z"/>
				<path fill="#F7CC7F" d="M1322.7,1530.4l-15.4,10.1c-0.1,0.1-0.2,0-0.3-0.1l-1.8-2.7c-0.1-0.1,0-0.2,0.1-0.3l15.4-10.1
					c0.1-0.1,0.2,0,0.3,0.1l1.8,2.7C1322.8,1530.2,1322.8,1530.4,1322.7,1530.4z"/>
			</g>
			<path fill="#13375B" d="M1224.7,1664.5h81.6c0.1,0,0.2-0.1,0.2-0.2v-3.7c0-0.1-0.1-0.2-0.2-0.2h-81.6c-0.1,0-0.2,0.1-0.2,0.2v3.7
				C1224.4,1664.3,1224.5,1664.5,1224.7,1664.5z"/>
			<path fill="#F47458" d="M1210,1660.2h111c3.8,0,6.8-3.1,6.8-6.8v-84.7h-124.7v84.7C1203.1,1657.2,1206.2,1660.2,1210,1660.2z"/>
			<path opacity="0.5" fill="#C6E3FD" d="M1301.8,1637.1v-68.4h25.9v68.4c0,12.8-10.4,23.1-23.1,23.1h-25.9
				C1291.5,1660.2,1301.8,1649.9,1301.8,1637.1z"/>
			<path fill="#F7CC7F" d="M1191.9,1577.4l19.8,13c0.1,0.1,0.3,0,0.4-0.1l2.3-3.5c0.1-0.1,0-0.3-0.1-0.4l-19.8-13
				c-0.1-0.1-0.3,0-0.4,0.1l-2.3,3.5C1191.8,1577.2,1191.8,1577.3,1191.9,1577.4z"/>
			<path fill="#F7CC7F" d="M1339,1577.4l-19.8,13c-0.1,0.1-0.3,0-0.4-0.1l-2.3-3.5c-0.1-0.1,0-0.3,0.1-0.4l19.8-13
				c0.1-0.1,0.3,0,0.4,0.1l2.3,3.5C1339.2,1577.2,1339.1,1577.3,1339,1577.4z"/>
			<path fill="#C6E3FD" d="M1213.9,1518.5h103c0.2,0,0.3,0.1,0.3,0.3v4.6c0,0.2-0.1,0.3-0.3,0.3h-103c-0.2,0-0.3-0.1-0.3-0.3v-4.6
				C1213.7,1518.6,1213.8,1518.5,1213.9,1518.5z"/>
		</g>
		<g>
			<path fill="#EAFCFC" d="M1277.8,1380v-49.5h-12.3v49.5l0,0c-5,0-9.1,4.1-9.1,9.1v85.2h30.5v-85.2
				C1286.9,1384.1,1282.8,1380,1277.8,1380L1277.8,1380z"/>
			<path opacity="0.5" fill="#C6E3FD" d="M1277.8,1380v-49.5h-6.3v49.5c5,0,9.1,4.1,9.1,9.1v85.2h6.3v-85.2
				C1286.9,1384.1,1282.8,1380,1277.8,1380z"/>
			<rect x="1265.5" y="1330.6" fill="#F47458" width="12.3" height="24"/>
			<rect x="1256.4" y="1418.8" fill="#96D9C9" width="30.5" height="43.3"/>
		</g>
		<g>
			<path fill="#EAFCFC" d="M1234.7,1380v-49.5h-12.3v49.5l0,0c-5,0-9.1,4.1-9.1,9.1v85.2h30.5v-85.2
				C1243.8,1384.1,1239.8,1380,1234.7,1380L1234.7,1380z"/>
			<path opacity="0.5" fill="#466EB6" d="M1234.7,1380v-49.5h-6.3v49.5c5,0,9.1,4.1,9.1,9.1v85.2h6.3v-85.2
				C1243.8,1384.1,1239.8,1380,1234.7,1380z"/>
			<rect x="1222.4" y="1330.6" fill="#F47458" width="12.3" height="24"/>
			<rect x="1213.3" y="1418.8" fill="#F7CC7F" width="30.5" height="43.3"/>
		</g>
		<g>
			<path fill="#EAFCFC" d="M1191.7,1380v-49.5h-12.3v49.5l0,0c-5,0-9.1,4.1-9.1,9.1v85.2h30.5v-85.2
				C1200.8,1384.1,1196.7,1380,1191.7,1380L1191.7,1380z"/>
			<path opacity="0.5" fill="#C6E3FD" d="M1191.7,1380v-49.5h-6.3v49.5c5,0,9.1,4.1,9.1,9.1v85.2h6.3v-85.2
				C1200.8,1384.1,1196.7,1380,1191.7,1380z"/>
			<rect x="1179.4" y="1330.6" fill="#F47458" width="12.3" height="24"/>
			<rect x="1170.3" y="1418.8" fill="#86B1F2" width="30.5" height="43.3"/>
		</g>
		
			<rect x="298.4" y="1248.1" transform="matrix(-1 -1.224647e-16 1.224647e-16 -1 2276.3896 2521.6982)" fill="#13375B" width="1679.7" height="25.4"/>
	</g>
	<path fill="#50BFA5" d="M843.7,1233.9c0,0-23.2-58.4-22.1-68.4c1-9.9,10-14.9,15.2-3.5c5.2,11.4,7.1,23.9,11.1,19.4
		c4-4.5-10-51.6,5.8-54.6c15.9-3.1,5.6,60.3,11.9,58.9c6.3-1.4,9.6-69.1,26.5-63.6c16.9,5.4-11.1,68.6-4.6,68.6
		c6.5,0,16.9-59.8,35.7-50.6c18.8,9.2-23.7,55.2-16.9,62.9c6.8,7.7,33.8-48.7,51.2-32.6s-42.7,48.7-40.5,51.2
		c2.2,2.5,51.4-38,62.2-22.6c10.9,15.4-38.1,23.4-35.1,28.4c3,5,28.1-3.3,26.5,6.6c-1.5,9.9-54.7,9.7-54.7,9.7L843.7,1233.9z"/>
	<g>
		<path fill="#3C8F7C" d="M874.3,1191.1c-6.5-3.5-9-8.8-3.2-13.5c7.3-6.3,21.5-3.6,26.7,5.4c4,6.7,2.1,15.9-2.4,21.7
			c-2.3,3.1-5.5,5.6-9.1,7.2c-4.1,2-9.4,2.6-11.2,2.3l0.5,3.8c2.2-0.2,4.3-0.7,6.3-1.3c7.2-2.2,12.3-6,15.7-10.6
			c0-0.1,9.8-12.7,3.1-24.7c-6.9-12.8-27.6-15.5-36.2-4.5c-5.3,6.7-1.1,14.7,6.6,19.1L874.3,1191.1z"/>
		<path fill="#13375B" d="M731.7,1201.1c1.5-17.1,22.1-29.2,46-27.1c17.4,1.6,31.7,10.2,37.6,21.4c35.5,4.6,62.2,16.4,61.2,27.6
			c-0.5,5.2-6.4,8.4-11,10.3c-8.5,3.5-18.1,4.8-27.3,5.6c-11.5,1-23.1,1.2-34.6,0.9c-11.1-0.3-22.4-0.8-33.4-2.6
			c-8.7-1.5-17.3-4.2-24.7-9c-6.1-4-10.9-9.5-12.9-16.2C731.6,1208.4,731.4,1204.7,731.7,1201.1z"/>
		<path fill="#466EB6" d="M858.2,1214.2c0,0-48.8-8.2-53.4-10.1c-4.6-2-2.5-11.9-20.5-17c-18-5.1-29.7-0.5-32.7,8.3
			c-3,8.8,9.3,17.2,14.6,11.6c5.3-5.6,7.3-12.4,17.8-10.2c10.5,2.2,17.9,11.5,17.9,11.5L858.2,1214.2z"/>
		<path fill="#3C8F7C" d="M854.3,1211.9l5,2.9l-4.4,3l5.5,2.2l-5.8,3l-0.2,0.1l5.9,3.8l-5.3,3.4l5.9,3.1l-1.2,3.6
			c17-0.5,21.4-12.5,21.4-12.5c0.4-1.6,0.6-3,0.6-4.3c-0.2-15.4-26.9-17.3-26.9-17.3l3.9,2.8l-2.7,0.5l3,2.8L854.3,1211.9z"/>
	</g>
	<g>
		<path fill="#F48C7F" d="M931.3,1210.6c0.9,15,20.6,29.2,40.5,29.2c19.9,0,38.9-14.9,38.9-29.9c0-21.6-11.2-21.5-25.4-20.4
			c-2.7,0.2-5.5,0.5-8.4,0.6c-1.7,0.1-3.4,0.2-5.1,0.2c-1.8,0-3.6-0.1-5.4-0.2c-2.2-0.2-4.3-0.4-6.5-0.6
			C944.1,1187.8,929.9,1185.8,931.3,1210.6z"/>
		<g>
			<path fill="#50BFA5" d="M982.1,1168.7c0,0,0,0-0.1,0l0-0.1C982.1,1168.6,982.1,1168.7,982.1,1168.7z"/>
			<path fill="#50BFA5" d="M952.4,1180.2c1.9-1.9,3.9,0,3.9,0c-2.7,0-1.5,3.2,0.8,5.5c1.4,1.4,11.6,0.9,15.2,0.2
				c0.2,0,0.4-0.1,0.7-0.1c-2.6-7.7,0.7-25.1,10.8-22l-1.7,4.8c-0.2-0.1-0.7-0.3-1.1-0.4c-4.3-0.5-7.9,11.6-6.8,17.5
				c6.2-0.1,16.9,3.2,18.1,1.3c1.5-2.5-2.2-3-2.2-3l-3.2,0.9c0,0,3.1-4.6,6.3-3.5c5.1,1.8,4,6.6,2.8,7.8c-1,1-10.6,1-15.2,1
				c1.6,0.6,6.8,3.2,9.4,7.3c3,4.7-3.2,11.4-3.2,11.4s3.4-6.6-0.3-10.3c-2.8-2.8-8.7-6.4-11.1-7.9l-0.4,16.5c0,0-3.6-3.2-3.6-9.5
				c0-4.2,0.6-6.5,1.1-7.5l-3.3,0.3c-2,0.6-5.1,1.7-7.6,3.2c-3.8,2.3,1.9,8.5,1.9,8.5s-2.9-1-4.5-3.9c-3-5.6,0.4-7,3.1-8.2
				c-2.1-0.2-4.2-0.1-7.2-0.7C949.8,1188.6,950.4,1182.2,952.4,1180.2z"/>
		</g>
	</g>
	<g>
		<path fill="#B75742" d="M901.3,1221.3c1.1,11.9,17.1,22.6,32.9,22.1c15.8-0.5,30.4-12.8,30-24.7c-0.6-17.1-9.4-16.8-20.6-15.5
			c-2.1,0.2-4.4,0.5-6.6,0.7c-1.3,0.1-2.7,0.2-4,0.3c-1.4,0-2.8,0-4.3,0c-1.7-0.1-3.4-0.2-5.1-0.3
			C910.8,1202.9,899.5,1201.7,901.3,1221.3z"/>
		<g>
			<path fill="#3C8F7C" d="M940.5,1186.8c0,0,0,0-0.1,0L940.5,1186.8C940.4,1186.7,940.5,1186.8,940.5,1186.8z"/>
			<path fill="#3C8F7C" d="M917.2,1196.7c1.5-1.6,3.1-0.1,3.1-0.1c-2.2,0.1-1.1,2.6,0.8,4.4c1.1,1.1,9.2,0.4,12-0.2
				c0.2,0,0.4-0.1,0.5-0.1c-2.3-6-0.1-19.9,8-17.7l-1.2,3.8c-0.2-0.1-0.5-0.3-0.9-0.3c-3.4-0.3-6,9.4-4.9,14.1
				c4.9-0.3,13.5,2.1,14.4,0.5c1.1-2-1.8-2.3-1.8-2.3l-2.6,0.8c0,0,2.4-3.7,4.9-2.9c4.1,1.3,3.3,5.1,2.4,6.1
				c-0.7,0.8-8.3,1.1-12.1,1.2c1.3,0.4,5.5,2.4,7.7,5.6c2.5,3.7-2.3,9.1-2.3,9.1s2.5-5.3-0.5-8.1c-2.3-2.2-7.1-4.9-9-6l0.1,13.1
				c0,0-3-2.4-3.1-7.5c-0.1-3.3,0.3-5.1,0.6-6l-2.6,0.3c-1.6,0.5-4,1.5-5.9,2.7c-2.9,1.9,1.7,6.7,1.7,6.7s-2.3-0.7-3.6-2.9
				c-2.5-4.3,0.1-5.6,2.2-6.6c-1.7-0.1-3.3,0-5.7-0.4C915.4,1203.4,915.7,1198.3,917.2,1196.7z"/>
		</g>
	</g>
	<rect x="656.9" y="1236.2" fill="#F7CC7F" width="359.3" height="11.9"/>
	<g>
		<path fill="#86B1F2" d="M608.3,1177.3H598h-71.6v12.8c0,15,12.1,27.1,27.1,27.1H598h10.4h44.5c15,0,27.1-12.1,27.1-27.1v-12.8
			H608.3z"/>
		<path opacity="0.5" fill="#C6E3FD" d="M543.9,1190.1v-12.8h-17.6v12.8c0,15,12.1,27.1,27.1,27.1H571
			C556,1217.2,543.9,1205.1,543.9,1190.1z"/>
		<path fill="#EAFCFC" d="M609.1,1203.2h-11.9h-81.7v14.6c0,17.1,13.8,30.9,30.9,30.9h50.8h11.9h50.8c17.1,0,30.9-13.8,30.9-30.9
			v-14.6H609.1z"/>
		<path opacity="0.5" fill="#C6E3FD" d="M535.5,1217.8v-14.6h-20v14.6c0,17.1,13.8,30.9,30.9,30.9h20
			C549.4,1248.7,535.5,1234.9,535.5,1217.8z"/>
	</g>
	
		<rect x="196.4" y="1927.1" transform="matrix(-1 -1.224647e-16 1.224647e-16 -1 2276.3901 3865.1289)" fill="#B75742" width="1883.6" height="10.9"/>
</g>
<g id="Layer_3">
	<g>
		<g>
			<path d="M1644.8,808c0.2,0.9,0.5,1.8,1.1,2.4c0.9,0.8,2,0.7,3.1,0.5c1.7-0.3,3.5-0.3,5.2,0c3.6,0.7,6.8,2.5,9.1,5.2
				c1.3,1.5,3.4-0.7,2.1-2.1c-2.3-2.7-5.4-4.6-8.8-5.6c-1.7-0.5-3.4-0.7-5.1-0.7c-0.9,0-1.8,0.1-2.7,0.2c-0.2,0-0.4,0.1-0.7,0.1
				c-0.1,0-0.2,0-0.3,0c-0.2,0-0.2,0.1,0.1,0.2c0-0.3-0.2-0.7-0.3-1c-0.1-0.8-1.1-1.2-1.8-1C1645,806.4,1644.7,807.2,1644.8,808
				L1644.8,808z"/>
		</g>
	</g>
	<g>
		<g>
			<path d="M1698.9,826.2c0.3-0.3,0.3,0.1,0.2-0.3c-0.1-0.3-0.4-0.7-0.6-1c-0.4-0.7-0.9-1.4-1.5-2c-1.2-1.3-2.7-2.1-4.4-2.7
				c-3.5-1.3-7.3-2.4-11.1-2.1c-1.9,0.2-1.9,3.2,0,3c2-0.2,4,0.1,6,0.6c1.9,0.5,3.9,1,5.6,1.9c1.7,0.9,2.3,2.3,3.3,3.8
				c1,1.5,3,2.3,4.5,0.9C1702.3,826.9,1700.2,824.8,1698.9,826.2L1698.9,826.2z"/>
		</g>
	</g>
</g>
<g id="Layer_5">
	<g>
		<g>
			<path d="M1153.6,1105c2.5-0.8,5-1.4,7.6-1.5c1.9-0.1,4.4-0.4,5.8,1.1c1.3,1.4,3.5-0.7,2.1-2.1c-1.9-2-4.8-2.1-7.4-2
				c-3,0.1-6.1,0.7-8.9,1.7C1151,1102.7,1151.7,1105.6,1153.6,1105L1153.6,1105z"/>
		</g>
	</g>
	<g>
		<g>
			<path d="M1178.9,1103.9c5.1-0.8,10.5-1.5,15.4,0.5c0.8,0.3,1.6-0.3,1.8-1c0.2-0.9-0.3-1.5-1-1.8c-5.4-2.2-11.4-1.4-17-0.5
				c-0.8,0.1-1.2,1.1-1,1.8C1177.3,1103.7,1178.1,1104,1178.9,1103.9L1178.9,1103.9z"/>
		</g>
	</g>
</g>
<g id="Layer_2">
	<g>
		<g>
			<path d="M673.2,730.7c-1.3-1-3-0.9-4.5-0.7c-1.9,0.2-3.7,0.5-5.6,0.7c-2.8,0.4-6.2,0.7-7.3,3.8c-0.3,0.8,0.3,1.6,1,1.8
				c0.8,0.2,1.6-0.3,1.8-1c0.2-0.6,1-0.9,1.7-1.1c1.2-0.3,2.4-0.4,3.6-0.6c1.5-0.2,2.9-0.4,4.4-0.6c1.1-0.1,2.3-0.5,3.3,0.2
				c0.7,0.5,1.7,0.1,2.1-0.5C674.2,731.9,673.9,731.1,673.2,730.7L673.2,730.7z"/>
		</g>
	</g>
	<g>
		<g>
			<path d="M687.5,731.4c4.1-0.5,8.2-0.1,12.1,1.1c0.8,0.2,1.6-0.3,1.8-1c0.2-0.8-0.3-1.6-1-1.8c-4.1-1.3-8.6-1.7-12.9-1.2
				c-0.8,0.1-1.5,0.6-1.5,1.5C686,730.6,686.7,731.5,687.5,731.4L687.5,731.4z"/>
		</g>
	</g>
	<g>
		<g>
			<path d="M664.7,731c-1.5,0.1-2.9,0.7-4.1,1.7c-0.8,0.8-0.4,2.2,0.7,2.5c1.5,0.4,3,0.8,4.5,0.3c1.4-0.4,2.6-1.5,2.9-2.9
				c0.2-1.1-0.7-2.2-1.8-1.8c-1.2,0.3-2.4,0.7-3.5,1c-0.8,0.2-1.3,1.1-1,1.8c0.5,1.8,2.4,3,4.3,2.7c1.8-0.3,3.1-2,3.1-3.8
				c0-0.8-0.7-1.5-1.5-1.5c-0.8,0-1.5,0.7-1.5,1.5c0,0.1,0,0.1,0,0.2c0,0.2,0,0.1,0-0.1c0,0.1-0.1,0.3-0.1,0.3c-0.1,0.1,0,0.1,0-0.1
				c0,0.1-0.1,0.1-0.1,0.2c0,0.1-0.1,0.1-0.1,0.2c-0.1,0.1-0.1,0.1,0.1-0.1c0,0-0.3,0.3-0.3,0.3c0-0.1,0.3-0.2,0,0
				c-0.1,0-0.1,0.1-0.2,0.1c-0.1,0.1-0.1,0.1,0.1,0c0,0-0.3,0.1-0.4,0.1c0.3,0,0.3,0,0.1,0c-0.1,0-0.1,0-0.2,0c-0.2,0-0.1,0,0.1,0
				c-0.1,0-0.1,0-0.2,0c-0.1,0-0.2-0.1-0.3-0.1c0.4,0.1,0.1,0,0,0c-0.1,0-0.1-0.1-0.1-0.1c0.2,0.1,0.2,0.2,0.1,0.1
				c-0.1-0.1-0.2-0.2-0.2-0.3c0.1,0.2,0.2,0.2,0.1,0.1c0,0-0.1-0.1-0.1-0.2c-0.1-0.1-0.1-0.1,0,0.1c0-0.1,0-0.1-0.1-0.2
				c-0.3,0.6-0.7,1.2-1,1.8c1.2-0.3,2.4-0.7,3.5-1c-0.6-0.6-1.2-1.2-1.8-1.8c0,0.1,0,0.1,0,0.2c-0.1,0.2,0,0.1,0.1-0.1
				c-0.1,0-0.1,0.2-0.1,0.2c0,0.1-0.1,0.1-0.1,0.1c0.1-0.2,0.2-0.2,0.1-0.1c-0.1,0.1-0.1,0.1-0.2,0.2c-0.1,0.1-0.1,0.1,0.1-0.1
				c0,0-0.1,0.1-0.2,0.1c-0.1,0-0.2,0.1-0.2,0.1c-0.1,0-0.1,0.1-0.2,0.1c0.2-0.1,0.2-0.1,0.1,0c-0.1,0-0.2,0.1-0.3,0.1
				c-0.1,0-0.4,0.2,0,0c-0.1,0-0.3,0-0.4,0c-0.1,0-0.3,0-0.4,0c0,0-0.5-0.1-0.3,0c0.2,0-0.2,0-0.3-0.1c-0.1,0-0.3-0.1-0.4-0.1
				c-0.3-0.1-0.6-0.2-0.9-0.2c0.2,0.8,0.4,1.7,0.7,2.5c0.1-0.1,0.4-0.4,0.1-0.1c0.1-0.1,0.2-0.1,0.3-0.2c0.1-0.1,0.2-0.1,0.4-0.2
				c0,0,0.4-0.2,0.2-0.1c-0.2,0.1,0.2-0.1,0.2-0.1c0.1,0,0.2-0.1,0.3-0.1c0,0,0.3-0.1,0.4-0.1c-0.2,0-0.3,0-0.1,0c0.1,0,0.1,0,0.2,0
				c0.8,0,1.5-0.7,1.5-1.5C666.1,731.8,665.5,731,664.7,731L664.7,731z"/>
		</g>
	</g>
	<g>
		<g>
			<path d="M686.8,730.8c0.3,0.8,0.8,1.4,1.5,1.9c0.6,0.4,1.3,0.6,2.1,0.7c1.5,0.2,3-0.5,3.8-1.8c-0.6,0.2-1.1,0.5-1.7,0.7
				c0.3,0.1-0.2-0.1-0.1-0.1c0.2,0.1-0.3-0.3-0.1-0.1c0.2,0.2-0.2-0.3-0.1-0.1c0.1,0.2-0.1,0.1-0.1-0.2c0,0,0,0.1,0,0.2
				c-0.2-0.3,0-0.4,0-0.2c0,0.1,0,0.1,0,0.2c0,0.2,0.1-0.4,0-0.2c0,0-0.1,0.1-0.1,0.2c0-0.1,0.2-0.4,0.1-0.2
				c-0.1,0.1-0.2,0.1,0.1-0.1c0,0-0.1,0.1-0.1,0.1c0.2-0.2,0.3-0.2,0.2-0.1c0,0,0,0-0.1,0c-0.1,0,0,0,0.2-0.1c0,0-0.1,0-0.1,0
				c0,0-0.1,0-0.1,0c-0.2,0-0.1,0,0.1,0c0,0-0.2,0-0.3,0c0,0-0.1,0-0.1,0c-0.1,0-0.1,0,0.2,0c0,0-0.2,0-0.3-0.1
				c-0.1,0-0.2-0.1-0.3-0.1c-0.1,0-0.1,0-0.2-0.1c-0.1,0-0.1,0,0,0c0.1,0.1,0.1,0.1,0,0c-0.1,0-0.1-0.1-0.2-0.1
				c-0.1,0-0.2-0.1-0.3-0.1c-0.2-0.1-0.4-0.2-0.5-0.3c-0.5-0.2-0.9-0.4-1.4-0.6c-0.6-0.2-1.2-0.2-1.8-0.1c-0.3,0.1-0.7,0.4-0.9,0.7
				c-0.2,0.3-0.3,0.8-0.2,1.2c0.1,0.4,0.3,0.7,0.7,0.9c0.4,0.2,0.7,0.2,1.2,0.2c-0.5,0.1,0,0,0.1,0c0.2,0,0.1,0-0.1,0
				c0.1,0,0.1,0,0.2,0c0.1,0,0.2,0.1,0.4,0.1c0.1,0,0.1,0,0.2,0.1c0.2,0.1,0.1,0-0.1,0c0,0,0.2,0.1,0.3,0.1c0.1,0.1,0.2,0.1,0.4,0.2
				c0.2,0.1,0.5,0.2,0.7,0.3c1.2,0.6,2.6,0.9,3.9,0.2c0.9-0.5,1.5-1.5,1.5-2.5c0-1.1-0.7-2.2-1.8-2.5c-0.7-0.1-1.3,0.1-1.7,0.7
				c-0.1,0.1-0.2,0.2,0.1-0.1c0,0-0.1,0.1-0.1,0.1c-0.1,0.1-0.4,0.3,0,0c-0.1,0.1-0.2,0.1-0.2,0.2c0,0-0.1,0-0.1,0.1
				c-0.2,0.1,0.4-0.1,0.2-0.1c-0.1,0-0.2,0.1-0.3,0.1c-0.2,0-0.5,0,0,0c-0.2,0-0.4,0-0.6,0c-0.1,0-0.3-0.1,0.2,0c0,0-0.1,0-0.1,0
				c-0.1,0-0.2-0.1-0.3-0.1c0,0-0.1,0-0.1-0.1c-0.2-0.1,0.4,0.2,0.2,0.1c-0.1-0.1-0.2-0.1-0.3-0.2c0,0-0.1-0.1-0.1-0.1
				c-0.2-0.1,0.3,0.3,0.1,0.1c-0.1-0.1-0.1-0.1-0.2-0.2c0,0-0.2-0.2,0,0c0.2,0.2,0,0.1,0,0c-0.1-0.1-0.2-0.5,0,0
				c-0.2-0.4-0.3-0.7-0.7-0.9c-0.3-0.2-0.8-0.3-1.2-0.2c-0.4,0.1-0.7,0.3-0.9,0.7C686.8,729.9,686.7,730.4,686.8,730.8L686.8,730.8z
				"/>
		</g>
	</g>
</g>
</svg>
