<svg xmlns="http://www.w3.org/2000/svg" viewBox="0 0 53.95 70"><g id="a7288d1f-eccd-46ff-be4e-4923196ffadf" data-name="Layer 2"><g id="e246d7c8-5e0f-4f4b-9b68-290cd14d62d8" data-name="—ÎÓÈ_1"><path d="M35.53,21.87c0,2.08-3.82,3.78-8.55,3.78s-8.55-1.7-8.55-3.78,3.83-3.78,8.55-3.78S35.53,19.78,35.53,21.87Z" fill="#fec901"/><path d="M27,21.07V13.31s-2-.79-5.37,1-4.18,3.78-4.18,3.78l4.78,3.78H27Z" fill="#f7aa00"/><path d="M13.85,16.69A11.26,11.26,0,0,0,2.32,21.87C.73,24.65,1.12,33.8,1.12,33.8L23.4,30.42l5.17-8.55S17.7,17.35,13.85,16.69Z" fill="#fec901"/><path d="M25.59,23.86a21.79,21.79,0,0,0-12.73-2.79C5.3,21.67,1.12,24.85.13,30.62S4,57,9.28,63.83c1.81,2.34,5.17,3.58,11.34,3.39S25.59,23.86,25.59,23.86Z" fill="#fed501"/><path d="M27,21.07V13.31s2-.79,5.37,1,4.18,3.78,4.18,3.78l-4.77,3.78H27Z" fill="#f7aa00"/><path d="M40.11,16.69a11.25,11.25,0,0,1,11.53,5.18c1.6,2.78,1.2,11.93,1.2,11.93L30.56,30.42l-5.17-8.55S36.26,17.35,40.11,16.69Z" fill="#fcbb03"/><path d="M28.37,23.86A21.82,21.82,0,0,1,41.1,21.07c7.56.6,11.74,3.78,12.73,9.55S49,56.84,43.89,63.83c-1.64,2.24-4.38,3.58-10.54,3.39S28.37,23.86,28.37,23.86Z" fill="#fec901"/><path d="M19,21.42c0,1.54,3.24,4.23,8,4.23V20.08a8.63,8.63,0,0,0-4.77.92C21.15,21.46,19,20.8,19,21.42Z" fill="#649d32"/><path d="M27,20.08v5.57c4.73,0,7.68-2.63,7.68-4.17,0-.91-.8.57-2.9.07C30.33,21.2,28.89,20.08,27,20.08Z" fill="#508419"/><path d="M35.63,2.57C35.4,1.71,35.16.86,34.92,0,23.71.55,22.65,9.4,24.66,20.44c.48,1.3,1.25,1.45,1.75,1.42.17,0,.33,0,.48,0C25.23,11.85,26.33,3.86,35.63,2.57Z" fill="#73b72a"/><path d="M29.46,20.3C28,12.24,28.35,6.18,36.53,5.78l-.9-3.21c-9.3,1.29-10.4,9.28-8.74,19.26C28.82,21.67,29.05,21.17,29.46,20.3Z" fill="#649d32"/><path d="M26.78,70V23.66s-6.76-2-10.94,1.59-3.42,18.69-1.21,28.24,2.21,14.12,6.58,15.12Z" fill="#fde000"/><path d="M26.78,70V23.66s6.77-2,10.94,1.59,3.43,18.69,1.22,28.24-2.21,14.12-6.59,15.12Z" fill="#fcd200"/></g></g></svg>