<svg xmlns="http://www.w3.org/2000/svg" viewBox="0 0 70 70"><g id="b1618ccc-58b6-4340-b7bf-0932d89f7554" data-name="Layer 2"><g id="abb52177-6b44-4fa8-a8ce-8e9cabb6ea0e" data-name="—ÎÓÈ_1"><path d="M26.46,37.56,15.56,48l7.57-11.89-3.3-4.74L16.6,40.61l1.19-11.47-3.27-6.57s2.72,18.72-5,29.18A41.49,41.49,0,0,1,0,61.08l4.57,4.61L30.08,40Z" fill="#8fcc76"/><path d="M30.84,54.65,36.16,50l-1.48-1.62L21.31,55,33.39,44.94l-2.53-4.4-4.62,4.23,4.44-4.42-.6-.39L4.57,65.69,8.84,70a41.89,41.89,0,0,1,9.56-8.79C29.18,54,47.57,57.79,47.57,57.79l-6.32-3.66Z" fill="#6faf58"/><path d="M27.54,42.52h.32c0-.11,0-.23,0-.35Z" fill="#236e09"/><path d="M30.48,35.44a13.37,13.37,0,0,1-6.34-3.56,13.61,13.61,0,0,1-3.06-4.82,13.3,13.3,0,0,1-5.77-2.84,13.59,13.59,0,0,0,3,14.35,13.29,13.29,0,0,0,9.18,4l.34-.34A13.63,13.63,0,0,1,30.48,35.44Z" fill="#236e09"/><path d="M14.43,4.29a13.59,13.59,0,0,0,0,19.12c.28.29.58.55.88.81a13.3,13.3,0,0,0,5.77,2.84,13.56,13.56,0,0,1,3.06-14.31q.32-.3.63-.57a13.48,13.48,0,0,1,6-9.95A13.32,13.32,0,0,0,14.43,4.29Z" fill="#2e7c11"/><path d="M47.6,4A13.32,13.32,0,0,0,30.74,2.23a13.48,13.48,0,0,0-6,10,13.29,13.29,0,0,1,16-1.31,13.32,13.32,0,0,1,9.13-3.82A13.53,13.53,0,0,0,47.6,4Z" fill="#379311"/><path d="M30.48,35.44a13.63,13.63,0,0,0-2.6,6.74l5.82-5.86c0-.16,0-.33,0-.49A12.78,12.78,0,0,1,30.48,35.44Z" fill="#236e09"/><path d="M54.3,46.46A13.37,13.37,0,0,1,46,56.14a11.28,11.28,0,0,0,.8.89,13.34,13.34,0,0,0,19,0,13.6,13.6,0,0,0,2-16.44A13.41,13.41,0,0,1,54.3,46.46Z" fill="#1a5103"/><path d="M54.14,46.44a13.35,13.35,0,0,1-16.58-1.9,13.49,13.49,0,0,1-2.73-4,13.35,13.35,0,0,1-1.13-4.22l-5.82,5.86c0,.12,0,.24,0,.35a13.56,13.56,0,0,0,3.88,10.54A13.38,13.38,0,0,0,54.3,46.46Z" fill="#206307"/><path d="M36.46,9.1a13.32,13.32,0,0,0-11.69,3.08q-.32.27-.63.57a13.65,13.65,0,0,0,0,19.13,13.37,13.37,0,0,0,6.34,3.56,12.78,12.78,0,0,0,3.19.39,12.67,12.67,0,0,1,.09-2.61c0-.35.1-.71.17-1.06a13.46,13.46,0,0,1,2.37-5.25,12.58,12.58,0,0,1,1.26-1.49s0,0,0,0A13.6,13.6,0,0,1,38.4,14a13.38,13.38,0,0,1,2.22-3l.14-.13A13.4,13.4,0,0,0,36.46,9.1Z" fill="#30890b"/><path d="M33.67,35.83c0,.16,0,.33,0,.49l.5-.51Z" fill="#247f03"/><path d="M39.91,30.05c.2,0,.41,0,.61,0-.1-.1-.18-.21-.27-.31Z" fill="#247f03"/><path d="M38.33,27a13.52,13.52,0,0,1-.75-1.65s0,0,0,0a12.58,12.58,0,0,0-1.26,1.49,13.46,13.46,0,0,0-2.37,5.25c-.07.35-.13.71-.17,1.06a12.67,12.67,0,0,0-.09,2.61l.53,0,.89-.9,4.82-4.86.34-.34A13.66,13.66,0,0,1,38.33,27Z" fill="#247f03"/><path d="M66.07,23.59a13.49,13.49,0,0,0-2.6-2,13.54,13.54,0,0,1-3.89,8.58l0,0a13.3,13.3,0,0,1,.87,4.48,13.48,13.48,0,0,1-3.91,9.91,13,13,0,0,1-2.18,1.78s0,.1,0,.14a13.41,13.41,0,0,0,13.49-5.87A13.61,13.61,0,0,0,66.07,23.59Z" fill="#1f6300"/><path d="M54.3,46.46s0-.09,0-.14l-.2.12Z" fill="#247f03"/><path d="M59.56,30.15a13.37,13.37,0,0,1-2.92,2.21,13.36,13.36,0,0,1-13.42-.2L43,32a13.37,13.37,0,0,1-1.82-1.4c-.18-.16-.36-.31-.53-.48l-.1-.11c-.2,0-.41,0-.61,0l-4.82,4.86-.89.9-.5.51a13.35,13.35,0,0,0,1.13,4.22,13.49,13.49,0,0,0,2.73,4,13.35,13.35,0,0,0,16.58,1.9l.2-.12a13,13,0,0,0,2.18-1.78,13.48,13.48,0,0,0,3.91-9.91A13.3,13.3,0,0,0,59.56,30.15Z" fill="#217000"/><path d="M49.89,7.05a13.32,13.32,0,0,0-9.13,3.82l-.14.13a13.38,13.38,0,0,0-2.22,3,13.6,13.6,0,0,0-.82,11.42A13.52,13.52,0,0,0,38.33,27a13.66,13.66,0,0,0,1.92,2.67l1-1,3.28-3.31L47,22.89l1.36-1.37L49.9,20,54,15.83l5.15-5.2A13.27,13.27,0,0,0,49.89,7.05Z" fill="#2e8c07"/><path d="M59.58,11c-.13-.13-.27-.25-.41-.37L54,15.83,49.9,20l-1.53,1.54L47,22.89,44.52,25.4l-3.28,3.31-1,1c.09.1.17.21.27.31l.1.11c.17.17.35.32.53.48A13.37,13.37,0,0,0,43,32l.25.15a13.38,13.38,0,0,0,16.34-2l0,0a13.62,13.62,0,0,0,0-19.13Z" fill="#2a7f03"/><path d="M43.26,31.71a12.72,12.72,0,0,0,1.12-1.33c-.29-.07-.58-.14-.87-.19A13,13,0,0,0,43.26,31.71Z" fill="#2a7f03"/></g></g></svg>