<svg xmlns="http://www.w3.org/2000/svg" viewBox="0 0 70 58.06"><g id="bee4ddd4-4a2b-4896-b49f-e00ec010f8cc" data-name="Layer 2"><g id="aa1830df-cfc9-4dd0-9c20-875e97eeeb6a" data-name="—ÎÓÈ_1"><g id="fafe2fc0-3c82-4c9d-9397-d862d39ec512" data-name="—ÎÓÈ_2_2_"><rect x="35" y="5" width="7.86" height="36.35" fill="#f0f0f0"/><path d="M35,58.06s4-6.24,5-9.29.14-7.42.14-7.42L35,38.42Z" fill="#abde82"/><path d="M62.86,48.77S57.14,47.35,55,50.2s-12.27,3.58-12.14-.89S36,37.88,36,37.88l6.91-2.06s9.68,3.1,13.57,7.85S62.86,48.77,62.86,48.77Z" fill="#9fd174"/><path d="M70,32s0,13.73-10,11.68a52.42,52.42,0,0,1-15.92-5.73S44.29,32,45,30s14.48.21,17.6,2S70,32,70,32Z" fill="#a3d875"/><path d="M49.4,33.06s17.39-.36,18.1-7.14S62.86,10,62.86,10,53.93,3.77,50.71,20.2c-1.6,8.22-1.11,8.49-.13,6.57s2.43-6,2.73-6.57C53.93,19.13,62.65,4.85,57,2.52S42.86-4.08,42.86,10.2,45,12.35,45,12.35Z" fill="#94c95d"/><path d="M47.14,30A7.86,7.86,0,1,0,55,22.17,7.86,7.86,0,0,0,47.14,30Z" fill="#dee2d9"/><path d="M37.86,22.17a7.86,7.86,0,1,0,7.85-7.86A7.84,7.84,0,0,0,37.86,22.17Z" fill="#f0f0f0"/><path d="M47.14,20.2A7.86,7.86,0,1,0,55,12.35,7.86,7.86,0,0,0,47.14,20.2Z" fill="#dee2d9"/><path d="M37.86,10.38a7.86,7.86,0,1,0,7.85-7.86A7.85,7.85,0,0,0,37.86,10.38Z" fill="#dee2d9"/><path d="M37.86,35.82A7.86,7.86,0,1,0,45.71,28,7.84,7.84,0,0,0,37.86,35.82Z" fill="#dee2d9"/><path d="M35.09,39.84A5,5,0,1,0,39,35.91,5,5,0,0,0,35.09,39.84Z" fill="#dee2d9"/><path d="M35.09,4A5,5,0,1,0,39,.09,5,5,0,0,0,35.09,4Z" fill="#dee2d9"/><path d="M48.66,11.37a5,5,0,1,0,3.93-3.93A5,5,0,0,0,48.66,11.37Z" fill="#dee2d9"/><path d="M36.07,28a7.86,7.86,0,1,0,7.86-7.86A7.86,7.86,0,0,0,36.07,28Z" fill="#f0f0f0"/><circle cx="50.5" cy="20.2" r="5" fill="#f0f0f0"/><path d="M36,16.56A5.53,5.53,0,1,0,41.55,11,5.54,5.54,0,0,0,36,16.56Z" fill="#f0f0f0"/><rect x="27.14" y="5" width="7.86" height="36.35" fill="#f0f0f0"/><path d="M35,58.06s-4-6.24-5-9.29-.14-7.42-.14-7.42L35,38.42Z" fill="#c5f49d"/><path d="M7.14,48.77S12.86,47.35,15,50.2s12.27,3.58,12.14-.89,6.91-11.43,6.91-11.43l-6.91-2.06s-9.68,3.1-13.57,7.85S7.14,48.77,7.14,48.77Z" fill="#bde897"/><path d="M0,32S0,45.72,10,43.67a52.42,52.42,0,0,0,15.92-5.73S25.71,32,25,30s-14.49.21-17.6,2S0,32,0,32Z" fill="#abde82"/><path d="M20.6,33.06S3.21,32.7,2.5,25.92,7.14,10,7.14,10s8.93-6.23,12.15,10.2c1.6,8.22,1.11,8.49.13,6.57s-2.43-6-2.73-6.57C16.07,19.13,7.35,4.85,13,2.52s14.18-6.6,14.18,7.68S25,12.35,25,12.35Z" fill="#9ad367"/><path d="M22.86,30A7.86,7.86,0,1,1,15,22.17,7.86,7.86,0,0,1,22.86,30Z" fill="#f0f0f0"/><path d="M32.14,22.17a7.86,7.86,0,1,1-7.85-7.86A7.85,7.85,0,0,1,32.14,22.17Z" fill="#f0f0f0"/><path d="M22.86,20.2A7.86,7.86,0,1,1,15,12.35,7.86,7.86,0,0,1,22.86,20.2Z" fill="#f0f0f0"/><path d="M32.14,10.38a7.86,7.86,0,1,1-7.85-7.86A7.86,7.86,0,0,1,32.14,10.38Z" fill="#f0f0f0"/><path d="M32.14,35.82A7.86,7.86,0,1,1,24.29,28,7.85,7.85,0,0,1,32.14,35.82Z" fill="#f0f0f0"/><path d="M34.91,39.84A5,5,0,1,1,31,35.91,5,5,0,0,1,34.91,39.84Z" fill="#f0f0f0"/><path d="M34.91,4A5,5,0,1,1,31,.09,5,5,0,0,1,34.91,4Z" fill="#f0f0f0"/><path d="M21.34,11.37a5,5,0,1,1-3.93-3.93A5,5,0,0,1,21.34,11.37Z" fill="#f0f0f0"/><path d="M33.93,28a7.86,7.86,0,1,1-7.86-7.86A7.86,7.86,0,0,1,33.93,28Z" fill="#f9f9f9"/><circle cx="19.5" cy="20.2" r="5" fill="#f9f9f9"/><path d="M34,16.56A5.53,5.53,0,1,1,28.45,11,5.54,5.54,0,0,1,34,16.56Z" fill="#f9f9f9"/></g><path d="M36.18,15.38A4.5,4.5,0,0,0,35,6.53V15.2A4.61,4.61,0,0,1,36.18,15.38Z" fill="#f0f0f0"/><path d="M35,6.53a4.5,4.5,0,0,0-1.18,8.85A4.61,4.61,0,0,1,35,15.2Z" fill="#f9f9f9"/><path d="M35,19.45a8.59,8.59,0,0,1,4.41,1.22,5,5,0,0,0,.1-1,4.5,4.5,0,0,0-3.33-4.34,4.61,4.61,0,0,1-1.18.18Z" fill="#f9f9f9"/><path d="M35,15.56a4.61,4.61,0,0,1-1.18-.18,4.5,4.5,0,0,0-3.33,4.34,5,5,0,0,0,.1,1A8.59,8.59,0,0,1,35,19.45Z" fill="#fff"/><path d="M35,15.2a4.61,4.61,0,0,0-1.18.18,4.61,4.61,0,0,0,1.18.18Z" fill="#f9f9f9"/><path d="M35,15.56a4.61,4.61,0,0,0,1.18-.18A4.61,4.61,0,0,0,35,15.2Z" fill="#f9f9f9"/><path d="M35,41.48a4.47,4.47,0,0,0,4.26-5.94A8.55,8.55,0,0,1,35,36.67Z" fill="#f0f0f0"/><path d="M30.74,35.54A4.47,4.47,0,0,0,35,41.48V36.67A8.55,8.55,0,0,1,30.74,35.54Z" fill="#f9f9f9"/><path d="M43.61,28.06a8.61,8.61,0,0,0-4.2-7.39A4.52,4.52,0,0,1,35,24.23v8.22a4.5,4.5,0,0,1,4.26,3.09A8.59,8.59,0,0,0,43.61,28.06Z" fill="#f9f9f9"/><path d="M35,32.45V24.23a4.52,4.52,0,0,1-4.41-3.56,8.6,8.6,0,0,0,.15,14.87A4.5,4.5,0,0,1,35,32.45Z" fill="#fff"/><path d="M35,24.23a4.52,4.52,0,0,0,4.41-3.56A8.59,8.59,0,0,0,35,19.45Z" fill="#f9f9f9"/><path d="M35,24.23V19.45a8.59,8.59,0,0,0-4.41,1.22A4.52,4.52,0,0,0,35,24.23Z" fill="#fff"/><path d="M35,32.45v4.22a8.55,8.55,0,0,0,4.26-1.13A4.5,4.5,0,0,0,35,32.45Z" fill="#f9f9f9"/><path d="M35,32.45a4.5,4.5,0,0,0-4.26,3.09A8.55,8.55,0,0,0,35,36.67Z" fill="#fff"/><path d="M32.87,19.45a3.4,3.4,0,1,1-3.4-3.4A3.4,3.4,0,0,1,32.87,19.45Z" fill="#fff"/><circle cx="27.14" cy="24.23" r="3.4" fill="#fff"/><circle cx="42.26" cy="20.79" r="3.44" fill="#f9f9f9"/><circle cx="42.26" cy="26.62" r="3.44" fill="#f9f9f9"/><circle cx="41.55" cy="30.06" r="3.44" fill="#f9f9f9"/><path d="M31.83,28.51a3.44,3.44,0,1,1-2.7-2.7A3.44,3.44,0,0,1,31.83,28.51Z" fill="#fff"/></g></g></svg>