<svg xmlns="http://www.w3.org/2000/svg" viewBox="0 0 70 70"><g id="a9de94bb-802f-4bb0-83ac-ee448cfccf97" data-name="Layer 2"><g id="fcee8d92-3894-45a1-a5bf-e21d0b1fb70e" data-name="—ÎÓÈ_1"><polygon points="55.55 14.41 59.02 13.15 66.32 5.63 65.28 4.61 55.57 14.35 55.55 14.41" fill="#94af20"/><polygon points="65.28 4.61 64.04 3.4 56.69 10.97 55.57 14.35 65.28 4.61" fill="#abc820"/><path d="M57,0,52.61,13.19c.36.27.73.56,1.08.87s.54.48.8.74l.15.14.17.17.68-.68.08-.08L56.69,11,60,1Z" fill="#def05e"/><path d="M68.92,9.55,59,13.15l-3.47,1.26,0-.06-.08.08-.68.68,0,0c.12.12.22.25.34.36.25.28.5.55.74.83s.55.68.81,1L70,12.55Z" fill="#accf1b"/><path d="M54.64,14.94l-.15-.14c-.26-.26-.53-.5-.8-.74s-.72-.6-1.08-.87C47.38,9.33,41,9.28,36.8,14.72L33.88,18.5c-2.19,2.85-5.42,7.06-9,11.71C21.18,35,17.12,40.29,13.45,45.05l-9,11.66a18,18,0,0,0-1.12,1.68C1.35,61.71-1.2,67.46.63,69.3l.08.07,0,0,9.72-9.77L25.24,44.8,52.66,17.27l.11-.1.06-.07,2-2Z" fill="#f93"/><path d="M56.74,17.38c-.26-.36-.53-.7-.81-1s-.49-.55-.74-.83c-.12-.11-.22-.24-.34-.36l0,0-2,2-.06.07-.11.1L25.24,44.8,10.46,59.63.74,69.4c2.24,2.15,10-2,12.51-3.9L55.08,33.07C60.43,28.92,60.45,22.58,56.74,17.38Z" fill="#ff6903"/><path d="M45.54,20.13,42.3,16.88c-.09-.1-.33,0-.53.19l3.58,3.6C45.55,20.46,45.64,20.22,45.54,20.13Z" fill="#ffd7b3"/><path d="M45.35,20.67l-3.58-3.6c-.2.2-.29.44-.2.54l3.24,3.25C44.91,21,45.15,20.87,45.35,20.67Z" fill="#f78721"/><path d="M38.44,23.2,35.7,20.44c-.08-.08-.31,0-.51.23l3,3C38.42,23.51,38.52,23.28,38.44,23.2Z" fill="#ffd7b3"/><path d="M38.22,23.71l-3-3c-.2.2-.3.43-.22.51l2.74,2.75C37.79,24,38,23.91,38.22,23.71Z" fill="#f78721"/><path d="M29.76,35.31l-2.58-2.6c-.08-.07-.3,0-.5.23l2.85,2.87C29.73,35.61,29.84,35.38,29.76,35.31Z" fill="#ffd7b3"/><path d="M29.53,35.81l-2.85-2.87c-.21.2-.31.43-.23.5L29,36C29.11,36.11,29.33,36,29.53,35.81Z" fill="#f78721"/><path d="M41.52,37.51l-3.58-3.59c-.1-.1-.35,0-.55.18l4,4C41.54,37.87,41.62,37.62,41.52,37.51Z" fill="#ffd7b3"/><path d="M41.34,38.07l-4-4c-.2.2-.28.45-.18.56l3.58,3.58C40.89,38.35,41.14,38.27,41.34,38.07Z" fill="#f78721"/><path d="M50.33,31.26l-2.39-2.41c-.07-.07-.29,0-.5.24l2.65,2.66C50.3,31.55,50.4,31.33,50.33,31.26Z" fill="#ffd7b3"/><path d="M50.09,31.75l-2.65-2.66c-.2.2-.3.43-.23.5L49.6,32C49.67,32.06,49.89,32,50.09,31.75Z" fill="#f78721"/><path d="M53.67,25,50.62,22c-.09-.09-.32,0-.53.21l3.37,3.38C53.66,25.37,53.76,25.13,53.67,25Z" fill="#ffd7b3"/><path d="M53.46,25.57l-3.37-3.38c-.2.2-.29.44-.2.52l3,3.06C53,25.86,53.26,25.77,53.46,25.57Z" fill="#f78721"/><path d="M21.09,46.72,18,43.59c-.09-.1-.31,0-.5.18l3.45,3.46C21.1,47,21.18,46.81,21.09,46.72Z" fill="#ffd7b3"/><path d="M20.91,47.23l-3.45-3.46c-.19.19-.27.41-.18.51l3.12,3.13C20.49,47.5,20.72,47.42,20.91,47.23Z" fill="#f78721"/><path d="M32.56,47.34l-3.12-3.13c-.09-.09-.32,0-.51.18l3.45,3.46C32.57,47.66,32.65,47.43,32.56,47.34Z" fill="#ffd7b3"/><path d="M32.38,47.85l-3.45-3.46c-.19.19-.27.42-.18.51L31.87,48C32,48.12,32.19,48,32.38,47.85Z" fill="#f78721"/><path d="M21.23,56.25l-2.05-2.06c-.06-.06-.24,0-.41.2L21,56.67C21.2,56.5,21.29,56.31,21.23,56.25Z" fill="#ffd7b3"/><path d="M21,56.67l-2.27-2.28c-.17.17-.26.36-.2.42l2.05,2C20.68,56.92,20.87,56.84,21,56.67Z" fill="#f78721"/><path d="M10.2,56.85,8.78,55.42s-.19,0-.33.18L10,57.18C10.16,57,10.24,56.89,10.2,56.85Z" fill="#ffd7b3"/><path d="M10,57.18,8.45,55.6c-.14.14-.22.29-.18.33L9.7,57.36S9.89,57.32,10,57.18Z" fill="#f78721"/><path d="M11,64.05l-1.29-1.3s-.17,0-.3.16l1.43,1.44C11,64.22,11.05,64.09,11,64.05Z" fill="#ffd7b3"/><path d="M10.85,64.35,9.42,62.91c-.12.13-.19.26-.16.3l1.3,1.3S10.73,64.47,10.85,64.35Z" fill="#f78721"/><path d="M3.67,63.63l-.92-.92s-.18.09-.35.25l1,1C3.58,63.81,3.69,63.66,3.67,63.63Z" fill="#ffd7b3"/><path d="M3.41,64l-1-1c-.17.17-.28.33-.26.36l.92.92S3.24,64.15,3.41,64Z" fill="#f78721"/></g></g></svg>