<svg xmlns="http://www.w3.org/2000/svg" viewBox="0 0 70 70"><g id="ed333de1-eaf1-4bfd-a341-ce556cf9ae51" data-name="Layer 2"><g id="f1b63962-010e-43e7-be80-1cab10ad77c3" data-name="—ÎÓÈ_1"><polygon points="5.45 63.84 33.95 31.97 41.34 27 45.39 23.9 44.55 23.06 35.27 29.65 32.99 31.47 34.75 23.98 42.18 20.7 42.18 19.96 34.97 22.73 37.78 16.71 36.3 16.28 33.39 24.3 30.99 30.84 5.74 52.99 5.45 63.84" fill="#89b426"/><polygon points="6.16 64.55 38.03 36.05 43 28.66 46.1 24.61 46.94 25.45 40.35 34.73 38.53 37.01 46.02 35.25 49.3 27.82 50.05 27.89 47.27 35.03 53.23 33.05 53.72 33.7 45.7 36.61 39.16 39.01 17.01 64.26 6.16 64.55" fill="#6d9f1c"/><path d="M45.46,24.45l.44.44c2.77,2.77,7.89,3.79,10.41,1.26L57.5,25l-2.37-2.37c-1.7-1.7-3.42-1.35-5.91-.26Z" fill="#badb2c"/><path d="M45.46,24.45,45,24c-2.77-2.77-3.79-7.89-1.26-10.41l1.19-1.19,2.37,2.37c1.7,1.7,1.35,3.42.27,5.91Z" fill="#badb2c"/><rect x="40.43" y="25.05" width="7.97" height="0.87" transform="translate(-5.01 38.87) rotate(-45)" fill="#badb2c"/><path d="M33.41,14.25l.63-.08c3.88-.5,7.88-3.37,7.51-6.22l-.17-1.34L38.06,7c-2.4.31-3.21,1.6-3.93,3.74Z" fill="#badb2c"/><path d="M33.41,14.25l-.63.08c-3.88.51-8.48-1.24-8.85-4.09L23.75,8.9l3.33-.44c2.39-.31,3.5.74,4.74,2.62Z" fill="#91c422"/><path d="M34.81,9.82l-1.55,3.26-2.33-2.75A6.51,6.51,0,0,1,30,3.25L31.56,0l2.33,2.75A6.51,6.51,0,0,1,34.81,9.82Z" fill="#91c422"/><rect x="33.13" y="12.22" width="0.87" height="6.4" transform="translate(-1.71 4.46) rotate(-7.41)" fill="#cbea68"/><path d="M36.57,14.93l.5.38c3.12,2.37,8.37,2.62,10.57-.29l1-1.37-2.67-2c-1.92-1.45-3.6-.84-5.95.62Z" fill="#badb2c"/><path d="M36.57,14.93l-.51-.38c-3.12-2.36-4.79-7.34-2.59-10.26l1-1.37,2.67,2c1.93,1.46,1.8,3.24,1,5.89Z" fill="#badb2c"/><path d="M41.36,11.84l-3.89,1.89.77-4.25a10.17,10.17,0,0,1,5.47-7.23L47.6.36l-.77,4.25A10.17,10.17,0,0,1,41.36,11.84Z" fill="#badb2c"/><rect x="31.58" y="15.7" width="8.15" height="0.87" transform="translate(1.27 34.83) rotate(-52.88)" fill="#cbea68"/><path d="M41.86,20.74l.55.31c3.4,1.94,8.48,1.8,10.09-1l.76-1.33L50.35,17c-2.09-1.19-3.6-.52-5.6,1Z" fill="#badb2c"/><path d="M41.86,20.74l-.55-.31c-3.4-1.94-5.86-6.39-4.24-9.21l.76-1.34,2.91,1.67c2.09,1.19,2.27,2.83,2,5.32Z" fill="#badb2c"/><path d="M45.93,17.56l-3.4,2V15.63a8.18,8.18,0,0,1,4-7l3.39-2v3.94A8.19,8.19,0,0,1,45.93,17.56Z" fill="#91c422"/><rect x="37.57" y="21.47" width="7.26" height="0.87" transform="translate(1.75 46.82) rotate(-60.28)" fill="#badb2c"/><path d="M42.63,23.45,43,24c2.11,3.3,6.19,5.84,8.33,4.46l1-.64L50.49,25c-1.3-2-2.7-2.29-4.74-2.15Z" fill="#badb2c"/><path d="M42.63,23.45l-.35-.53c-2.11-3.29-2.72-8.06-.59-9.43l1-.65,1.81,2.82c1.3,2,1,3.41,0,5.21Z" fill="#badb2c"/><path d="M46.81,23.09l-3.3-.2L44.7,19.8A5.19,5.19,0,0,1,50,16.39l3.3.2-1.19,3.09A5.21,5.21,0,0,1,46.81,23.09Z" fill="#badb2c"/><rect x="38.91" y="23.58" width="5.66" height="0.87" transform="matrix(0.84, -0.54, 0.54, 0.84, -6.36, 26.37)" fill="#badb2c"/><rect x="35.5" y="18.23" width="5.3" height="0.87" transform="translate(6.39 46.87) rotate(-67.68)" fill="#badb2c"/><path d="M55.75,36.59l-.08.63c-.51,3.88,1.24,8.48,4.09,8.85l1.34.17.44-3.32c.31-2.39-.74-3.5-2.62-4.74Z" fill="#9bc33e"/><path d="M55.75,36.59l.08-.63c.5-3.88,3.37-7.88,6.22-7.51l1.34.17L63,31.94c-.31,2.4-1.6,3.21-3.74,3.92Z" fill="#badb2c"/><path d="M59.67,39.07l-2.75-2.33,3.26-1.55a6.51,6.51,0,0,1,7.07.92L70,38.44,66.75,40A6.51,6.51,0,0,1,59.67,39.07Z" fill="#9bc33e"/><rect x="54.14" y="33.23" width="0.87" height="6.4" transform="translate(11.41 85.86) rotate(-82.6)" fill="#81aa1e"/><path d="M55.07,33.43l.38.51c2.36,3.12,7.34,4.79,10.26,2.59l1.37-1-2-2.67c-1.46-1.93-3.24-1.8-5.89-1Z" fill="#6e9e16"/><path d="M55.07,33.43l-.38-.5c-2.37-3.12-2.62-8.37.29-10.57l1.37-1,2,2.67c1.46,1.92.85,3.6-.61,6Z" fill="#badb2c"/><path d="M60.52,31.76l-4.25.77,1.89-3.89a10.17,10.17,0,0,1,7.23-5.47l4.25-.77-1.89,3.89A10.17,10.17,0,0,1,60.52,31.76Z" fill="#6e9e16"/><rect x="49.79" y="33.91" width="8.15" height="0.87" transform="translate(-9.81 39.47) rotate(-37.12)" fill="#81aa1e"/><path d="M49.26,28.14l.31.55c1.94,3.4,6.39,5.86,9.21,4.24l1.34-.76-1.66-2.91c-1.2-2.09-2.84-2.27-5.33-2Z" fill="#badb2c"/><path d="M49.26,28.14,49,27.59c-1.94-3.4-1.8-8.48,1-10.09l1.34-.76L53,19.65c1.19,2.09.52,3.6-1,5.59Z" fill="#badb2c"/><path d="M54.37,27.47H50.43l2-3.4a8.22,8.22,0,0,1,7-4H63.4l-2,3.4A8.18,8.18,0,0,1,54.37,27.47Z" fill="#97c956"/><polygon points="44.73 31.05 51.46 27.38 51.03 26.62 44.73 30.22 44.73 31.05" fill="#badb2c"/><path d="M46.55,27.37l.53.34c3.29,2.12,8.06,2.73,9.43.6l.65-1-2.82-1.81c-2-1.3-3.41-.95-5.21,0Z" fill="#97c956"/><path d="M46.55,27.37,46,27c-3.3-2.11-5.84-6.19-4.46-8.33l.64-1L45,19.51c2,1.3,2.29,2.7,2.15,4.74Z" fill="#badb2c"/><path d="M50.21,25.3l-3.1,1.19-.2-3.31a5.21,5.21,0,0,1,3.41-5.3l3.09-1.19.2,3.3A5.2,5.2,0,0,1,50.21,25.3Z" fill="#badb2c"/><path d="M5.26,55.16,8,53.87c3.27-5.55,21.61-21.46,21.61-21.46l5-3.11.61-2.39-4.18,2.52,3.56-11.26-1.27-1.26L29.93,27.07,5.61,47.6a21.1,21.1,0,0,0-3.89,4.13c1,.82,1.76.1,2.72,1.06S4.84,54.36,5.26,55.16Z" fill="#cbea68"/><path d="M3.56,56l1.7-.8c-.42-.8,0-1.53-.82-2.37s-1.77-.24-2.72-1.06C0,54.19-1,57.34,1.61,60l4.2,4.19s-1.2-3-1.73-5A13.62,13.62,0,0,1,3.56,56Z" fill="#f2f4cd"/><polygon points="39.25 24.37 36.37 26.22 35.83 28.56 41.17 24.9 39.25 24.37" fill="#badb2c"/><path d="M33.56,33.52,13.8,51.18,8,53.87l-.17.32a18.6,18.6,0,0,0-.9,2,2.06,2.06,0,0,1,1.51.59c1,1,.16,1.84,1.16,2.85A2.24,2.24,0,0,0,10,60L34.89,35.11l7.67-7.69-.48-.18-7.33,5.93,1.08-4.61-1.2.74Z" fill="#cbe783"/><polygon points="42.59 27.43 42.58 27.43 42.58 27.44 42.59 27.43" fill="#badb2c"/><path d="M9.62,59.66c-1-1-.16-1.85-1.16-2.85A2.06,2.06,0,0,0,7,56.22a17.55,17.55,0,0,0-1.14,8L10,60A2.24,2.24,0,0,1,9.62,59.66Z" fill="#f2f4cd"/><polygon points="37.56 21.12 36.74 20.95 35.23 26.91 36.37 26.22 37.56 21.12" fill="#badb2c"/><path d="M8,53.87,5.26,55.16a1.62,1.62,0,0,0,.35.48A1.91,1.91,0,0,0,7,56.22a18.6,18.6,0,0,1,.9-2Z" fill="#cbea68"/><polygon points="35.83 28.56 36.37 26.22 35.23 26.91 34.63 29.3 35.83 28.56" fill="#badb2c"/><path d="M7,56.22a1.91,1.91,0,0,1-1.34-.58,1.62,1.62,0,0,1-.35-.48l-1.7.8a13.62,13.62,0,0,0,.52,3.26c.53,2,1.73,5,1.73,5A17.55,17.55,0,0,1,7,56.22Z" fill="#f2f4cd"/><path d="M22.4,64.39,42.93,40.07l10.16-3.43-1.26-1.26L40.57,38.94l2.52-4.18-2.39.61-3.11,5S21.67,58.71,16.13,62l-1.07,2.28a2,2,0,0,1,1.43.58c1,1,.16,1.85,1.17,2.85a1.8,1.8,0,0,0,.78.48A21.32,21.32,0,0,0,22.4,64.39Z" fill="#81aa1e"/><polygon points="45.8 29.35 47.88 26.11 47.14 25.64 45.16 28.72 41.44 34.17 43.78 33.63 45.8 29.35" fill="#badb2c"/><path d="M16.49,64.84a2,2,0,0,0-1.43-.58l-1,2.18a13.62,13.62,0,0,1-3.26-.52c-2-.53-5-1.73-5-1.73L10,68.38c2.72,2.73,6,1.55,8.44-.21a1.8,1.8,0,0,1-.78-.48C16.65,66.69,17.49,65.84,16.49,64.84Z" fill="#e9eac2"/><path d="M13.3,63.22c-.44-.81,0-1.54-.83-2.39S10.85,60.39,10,60L5.81,64.19A17.41,17.41,0,0,0,13.3,63.22Z" fill="#e9eac2"/><polygon points="42.57 27.41 42.56 27.42 42.58 27.43 42.57 27.41" fill="#badb2c"/><polygon points="42.58 27.44 42.58 27.43 42.56 27.42 34.89 35.11 42.58 27.44" fill="#badb2c"/><path d="M13.3,63.22a1.9,1.9,0,0,0,.34.45,2,2,0,0,0,1.42.59L16.13,62l-.32.17A18.15,18.15,0,0,1,13.3,63.22Z" fill="#badb2c"/><path d="M58.53,34.9a4.46,4.46,0,0,0-1.89-2.38,4.58,4.58,0,0,0,4.19-2.44l1.58-2.75-3.06-.86a4.59,4.59,0,0,0-4.7,1.21,4.5,4.5,0,0,0-.32-3l-1.28-3.1L52,22c-2.2.91-2.33,5.65-.85,9.27l.08.18-2.58,1.06-4.89,1.14-2.34.54-4.61,1.08,5.93-7.33-.18-.48-7.69,7.67L10,60c.81.43,1.59,0,2.43.87s.39,1.58.83,2.39a18.15,18.15,0,0,0,2.51-1.07l.32-.17,2.69-5.78L36.48,36.44l4.22-1.07,2.39-.61,5.08-1.28,3.41-1.24.08.18c1.48,3.62,4.91,6.91,7.11,6l1-.42ZM53,30.2l-.37.65-.46.19Zm0,1.46.72.2H52.54Z" fill="#b4e140"/><path d="M14,66.44l1-2.18a2,2,0,0,1-1.42-.59,1.9,1.9,0,0,1-.34-.45,17.41,17.41,0,0,1-7.49,1s3,1.2,5,1.73A13.62,13.62,0,0,0,14,66.44Z" fill="#e9eac2"/><path d="M54.05,13.08a9.77,9.77,0,0,0-6.27,6.28l-1.28,4L58.1,11.8Z" fill="#badb2c"/><path d="M56.82,15.85l1.28-4L46.5,23.4l4-1.28A9.75,9.75,0,0,0,56.82,15.85Z" fill="#a1cd2e"/><path d="M38.16,18.58l.59.25c3.62,1.48,8.36,1.35,9.27-.85l.42-1-3.1-1.28c-2.23-.91-3.5-.38-5.05.8Z" fill="#b4e140"/><path d="M38.16,18.58l-.58-.24c-3.62-1.48-6.91-4.91-6-7.11l.42-1,3.1,1.27c2.23.92,2.76,2.19,3,4.11Z" fill="#b4e140"/><path d="M41.29,16.11l-2.76,1.57-.86-3.06a4.61,4.61,0,0,1,2.25-5.45l2.75-1.58.86,3.06A4.61,4.61,0,0,1,41.29,16.11Z" fill="#b4e140"/><path d="M30.14,28.19l-.93.92c-.6.57-1.44,1.42-2.49,2.38s-2.26,2.11-3.59,3.29-2.77,2.43-4.2,3.68-2.9,2.46-4.28,3.59-2.69,2.15-3.8,3-2.08,1.59-2.73,2.1L7.06,48,8,47.05c.6-.57,1.44-1.42,2.49-2.38s2.26-2.11,3.6-3.29,2.76-2.44,4.2-3.68,2.89-2.46,4.27-3.59,2.69-2.15,3.8-3.05,2.08-1.59,2.74-2.1Z" fill="#b4e140"/><path d="M30.24,30.18l-.86.9c-.57.56-1.35,1.38-2.34,2.32s-2.12,2.05-3.37,3.21-2.6,2.37-4,3.58-2.72,2.4-4,3.49-2.53,2.1-3.58,3-2,1.55-2.58,2.05l-1,.75.87-.9c.57-.56,1.35-1.38,2.34-2.32s2.11-2,3.37-3.21,2.59-2.37,3.94-3.58,2.73-2.39,4-3.49,2.53-2.1,3.58-3,2-1.55,2.58-2Z" fill="#b4e140"/><path d="M33.43,34.63l-.85.9c-.56.55-1.33,1.38-2.29,2.31S28.2,39.89,27,41s-2.55,2.37-3.87,3.58-2.68,2.39-4,3.48-2.5,2.09-3.53,3-1.93,1.55-2.54,2l-1,.76.85-.9c.56-.56,1.33-1.38,2.3-2.32s2.08-2,3.31-3.19,2.55-2.37,3.88-3.58,2.68-2.39,4-3.48,2.49-2.1,3.52-3,1.93-1.55,2.54-2Z" fill="#b4e140"/><path d="M33.74,35.36l-.83.92c-.54.57-1.29,1.42-2.24,2.38s-2,2.11-3.23,3.29S25,44.39,23.65,45.64s-2.62,2.47-3.87,3.6-2.45,2.16-3.46,3.06-1.89,1.6-2.49,2.11l-1,.78.83-.92c.54-.57,1.29-1.42,2.23-2.38s2-2.11,3.24-3.29,2.49-2.44,3.79-3.68,2.62-2.47,3.87-3.6,2.45-2.17,3.46-3.06,1.89-1.6,2.49-2.12Z" fill="#b4e140"/><path d="M35.1,36.72l-.75,1c-.5.61-1.18,1.51-2,2.54s-1.86,2.26-3,3.53-2.3,2.62-3.49,4-2.42,2.65-3.57,3.87S20,54,19.09,54.92s-1.76,1.73-2.32,2.29l-.89.85.75-1c.5-.61,1.17-1.51,2-2.54s1.86-2.25,3-3.53,2.29-2.61,3.49-3.95,2.42-2.66,3.57-3.88,2.27-2.34,3.2-3.31,1.76-1.74,2.32-2.3Z" fill="#aad12f"/><path d="M34.37,36.41l-.78,1c-.51.59-1.22,1.48-2.11,2.49s-1.93,2.2-3.06,3.45-2.37,2.56-3.6,3.87-2.49,2.6-3.69,3.79-2.33,2.29-3.29,3.24S16,55.91,15.46,56.46s-.92.83-.92.83l.78-1c.51-.6,1.22-1.48,2.11-2.49s1.92-2.21,3.07-3.45,2.36-2.56,3.59-3.88,2.5-2.59,3.69-3.79,2.33-2.28,3.29-3.23,1.81-1.7,2.38-2.24Z" fill="#aad12f"/><path d="M41.28,40l-.74,1c-.49.65-1.16,1.6-2,2.69s-1.83,2.39-2.92,3.74-2.27,2.77-3.45,4.2-2.38,2.82-3.53,4.13-2.24,2.49-3.17,3.53-1.74,1.85-2.29,2.45l-.89.91.74-1c.49-.64,1.16-1.59,2-2.69S26.86,56.6,28,55.25s2.26-2.78,3.44-4.2,2.39-2.83,3.53-4.13,2.24-2.49,3.17-3.53,1.74-1.86,2.29-2.45Z" fill="#b4e140"/><path d="M39.85,39.78l-.75,1c-.49.61-1.16,1.51-2,2.55s-1.84,2.26-2.93,3.54-2.27,2.63-3.45,4-2.4,2.67-3.54,3.9S24.91,57.09,24,58.06s-1.75,1.75-2.3,2.31l-.89.86.74-1c.5-.61,1.17-1.51,2-2.55s1.84-2.26,2.94-3.54,2.27-2.63,3.45-4,2.39-2.67,3.54-3.89,2.24-2.36,3.17-3.33S38.4,41.2,39,40.64Z" fill="#b4e140"/></g></g></svg>