<?xml version="1.0" encoding="utf-8"?>
<!-- Generator: Adobe Illustrator 26.0.2, SVG Export Plug-In . SVG Version: 6.00 Build 0)  -->
<svg version="1.1" id="Layer_1" xmlns="http://www.w3.org/2000/svg" xmlns:xlink="http://www.w3.org/1999/xlink" x="0px" y="0px"
	 viewBox="0 0 54.4 83.7" style="enable-background:new 0 0 54.4 83.7;" xml:space="preserve">
<style type="text/css">
	.st0{fill:#89B426;}
	.st1{fill:#6D9F1C;}
	.st2{fill:#BADB2C;}
	.st3{fill:#91C422;}
	.st4{fill:#CBEA68;}
	.st5{fill:#9BC33E;}
	.st6{fill:#81AA1E;}
	.st7{fill:#6E9E16;}
	.st8{fill:#97C956;}
	.st9{fill:#F2F4CD;}
	.st10{fill:#CBE783;}
	.st11{fill:#E9EAC2;}
	.st12{fill:#B4E140;}
	.st13{fill:#A1CD2E;}
	.st14{fill:#AAD12F;}
</style>
<g id="ed333de1-eaf1-4bfd-a341-ce556cf9ae51">
	<g id="f1b63962-010e-43e7-be80-1cab10ad77c3">
		<polygon class="st0" points="26.7,83.7 24.3,32 26,23.3 26.7,18.2 25.5,18.2 23.6,29.4 23.3,32.3 19.2,25.8 22.1,18.2 21.6,17.7 
			18.5,24.7 16.2,18.5 14.9,19.2 18.5,27 21.4,33.3 19.2,75.8 		"/>
		<polygon class="st1" points="27.7,83.7 30.1,32 28.4,23.3 27.7,18.2 28.9,18.2 30.8,29.4 31.1,32.3 35.2,25.8 32.2,18.2 
			32.8,17.7 35.9,24.7 38.7,19.1 39.5,19.2 35.9,27 33,33.3 35.2,75.8 		"/>
		<path class="st2" d="M27.1,18.5l0.6,0c3.9,0,8.3-2.9,8.3-6.5l0-1.7h-3.4c-2.4,0-3.4,1.5-4.4,4L27.1,18.5z"/>
		<path class="st2" d="M27.1,18.5l-0.6,0c-3.9,0-8.3-2.9-8.3-6.5l0-1.7l3.4,0c2.4,0,3.4,1.5,4.4,4L27.1,18.5z"/>
		<rect x="26.7" y="16" class="st2" width="0.9" height="8"/>
		<path class="st2" d="M11.4,19.9l0.4-0.5c2.4-3.1,3.2-8,0.9-9.7l-1.1-0.8l-2.1,2.6c-1.5,1.9-1.1,3.4-0.1,5.4L11.4,19.9z"/>
		<path class="st3" d="M11.4,19.9L11,20.4c-2.4,3.1-6.9,5.1-9.1,3.4l-1.1-0.8l2-2.7c1.5-1.9,3-2,5.2-1.5L11.4,19.9z"/>
		<path class="st3" d="M9.2,15.7l1.2,3.4l-3.6-0.3c-2.6-0.2-4.8-1.9-5.7-4.3L0,11.1l3.6,0.3C6.2,11.6,8.4,13.3,9.2,15.7z"/>
		<rect x="11.9" y="17.4" transform="matrix(0.61 -0.7924 0.7924 0.61 -11.499 17.7884)" class="st4" width="0.9" height="6.4"/>
		<path class="st2" d="M14.1,18.1l0.6-0.1c3.9-0.5,7.8-4.1,7.3-7.7l-0.3-1.7l-3.3,0.5c-2.4,0.3-3.1,2-3.8,4.6L14.1,18.1z"/>
		<path class="st2" d="M14.1,18.1l-0.6,0.1c-3.9,0.5-8.6-1.8-9.1-5.4l-0.3-1.7l3.3-0.5c2.4-0.3,3.6,1,4.9,3.5L14.1,18.1z"/>
		<path class="st2" d="M15.3,12.5l-1.4,4.1l-2.5-3.5c-1.8-2.6-2.3-6-1.2-9L11.6,0l2.5,3.5C15.9,6.2,16.3,9.5,15.3,12.5z"/>
		<rect x="13.9" y="15.5" transform="matrix(0.9906 -0.1371 0.1371 0.9906 -2.5526 2.1463)" class="st4" width="0.9" height="8.1"/>
		<path class="st2" d="M21.9,18.5l0.6-0.2c3.8-1,7.3-4.7,6.4-7.8L28.6,9l-3.3,0.8c-2.3,0.6-2.9,2.2-3.3,4.7L21.9,18.5z"/>
		<path class="st2" d="M21.9,18.5l-0.6,0.2c-3.8,1-8.7-0.4-9.5-3.5l-0.4-1.5l3.2-0.9c2.3-0.6,3.6,0.4,5.2,2.3L21.9,18.5z"/>
		<path class="st3" d="M22.6,13.3l-1,3.8l-2.8-2.8c-2-2-2.8-5-2.1-7.8l1-3.8l2.8,2.8C22.5,7.6,23.3,10.6,22.6,13.3z"/>
		<rect x="21.9" y="16.1" transform="matrix(0.9646 -0.2635 0.2635 0.9646 -4.4183 6.5755)" class="st2" width="0.9" height="7.3"/>
		<path class="st2" d="M24.4,19.8l0.7,0.1c3.8,0.8,8.5-0.2,9-2.7l0.3-1.2l-3.3-0.7c-2.3-0.5-3.5,0.3-4.9,1.8L24.4,19.8z"/>
		<path class="st2" d="M24.4,19.8l-0.6-0.1c-3.8-0.8-7.6-3.8-7.1-6.3l0.2-1.2l3.3,0.7c2.3,0.5,3.1,1.7,3.7,3.7L24.4,19.8z"/>
		<path class="st2" d="M27.1,16.6l-2.5,2.2l-1.3-3c-1-2.1-0.4-4.6,1.3-6.2l2.5-2.2l1.3,3C29.4,12.6,28.9,15.1,27.1,16.6z"/>
		<rect x="21.3" y="20.5" transform="matrix(0.2124 -0.9772 0.9772 0.2124 -1.437 40.04)" class="st2" width="5.7" height="0.9"/>
		<rect x="17.4" y="17" transform="matrix(0.9227 -0.3856 0.3856 0.9227 -6.1885 8.4029)" class="st2" width="0.9" height="5.3"/>
		<path class="st5" d="M43,19.9l0.4,0.5c2.4,3.1,6.9,5.1,9.1,3.4l1.1-0.8l-2-2.7c-1.5-1.9-3-2-5.2-1.5L43,19.9z"/>
		<path class="st2" d="M43,19.9l-0.4-0.5c-2.4-3.1-3.2-8-0.9-9.7l1.1-0.8l2.1,2.6c1.5,1.9,1.1,3.4,0.1,5.4L43,19.9z"/>
		<path class="st5" d="M47.5,18.8l-3.6,0.3l1.2-3.4c0.9-2.4,3.1-4.2,5.6-4.3l3.6-0.3l-1.2,3.4C52.3,16.9,50.1,18.6,47.5,18.8z"/>
		
			<rect x="38.8" y="20.1" transform="matrix(0.7923 -0.6101 0.6101 0.7923 -3.8277 29.9183)" class="st6" width="6.4" height="0.9"/>
		<path class="st7" d="M40.3,18.1l0.6,0.1c3.9,0.5,8.6-1.8,9.1-5.4l0.3-1.7l-3.3-0.5c-2.4-0.3-3.6,1-4.9,3.5L40.3,18.1z"/>
		<path class="st2" d="M40.3,18.1L39.6,18c-3.9-0.5-7.8-4.1-7.3-7.7l0.3-1.7l3.3,0.5c2.4,0.3,3.1,1.9,3.8,4.7L40.3,18.1z"/>
		<path class="st7" d="M42.9,13.1l-2.5,3.5l-1.4-4.1c-1-3-0.6-6.3,1.2-9L42.8,0l1.4,4.1C45.2,7.1,44.7,10.4,42.9,13.1z"/>
		<rect x="36" y="19.2" transform="matrix(0.1371 -0.9906 0.9906 0.1371 15.1524 56.5985)" class="st6" width="8.2" height="0.9"/>
		<path class="st2" d="M32.4,18.5l0.6,0.2c3.8,1,8.7-0.4,9.5-3.5l0.4-1.5l-3.2-0.9c-2.3-0.6-3.6,0.4-5.2,2.4L32.4,18.5z"/>
		<path class="st2" d="M32.4,18.5l-0.6-0.2c-3.8-1-7.3-4.7-6.4-7.8l0.4-1.5l3.2,0.9c2.3,0.6,2.9,2.2,3.2,4.7L32.4,18.5z"/>
		<path class="st8" d="M35.6,14.4l-2.8,2.8l-1-3.8c-0.7-2.8,0.1-5.7,2.1-7.8l2.8-2.8l1,3.8C38.4,9.4,37.6,12.3,35.6,14.4z"/>
		<polygon class="st2" points="31.3,23.7 33.4,16.4 32.6,16.1 30.7,23.1 		"/>
		<path class="st8" d="M30,19.8l0.6-0.1c3.8-0.8,7.6-3.8,7.1-6.2l-0.2-1.2L34.1,13c-2.3,0.5-3.1,1.7-3.7,3.7L30,19.8z"/>
		<path class="st2" d="M30,19.8L29.3,20c-3.8,0.8-8.5-0.2-9-2.7L20,16.1l3.3-0.7c2.3-0.5,3.5,0.3,4.9,1.8L30,19.8z"/>
		<path class="st2" d="M31.1,15.8l-1.4,3l-2.5-2.2c-1.8-1.5-2.3-4-1.3-6.2l1.3-3l2.5,2.2C31.5,11.1,32.1,13.7,31.1,15.8z"/>
		<path class="st4" d="M20.4,77.7l1-2.8c-1.6-6.2,0.1-39.5,0.1-39.5l1.3-5.7l-1.3-2.1l-1.2,4.7L15,21.8l-1.8,0l4.8,9.6l-2.7,40.7
			c-0.2,1.9-0.1,3.8,0.2,5.7c1.3-0.1,1.3-1.2,2.7-1.2S19.5,77.4,20.4,77.7z"/>
		<path class="st9" d="M19.8,79.5l0.6-1.8c-0.9-0.3-1.1-1.1-2.3-1.1c-1.2,0-1.4,1.1-2.7,1.2c0.5,2.9,2,5.9,5.7,5.9l5.9,0
			c0,0-3-1.3-4.8-2.3C21.5,80.8,20.6,80.2,19.8,79.5z"/>
		<polygon class="st2" points="22.7,22.9 21.9,26.2 23.2,28.3 24.4,21.9 		"/>
		<path class="st10" d="M25.1,33.4l-1.5,35.5l-2.2,6l0.1,0.3c0.2,0.7,0.5,1.4,0.8,2.1c0.4-0.4,0.9-0.6,1.5-0.7
			c1.4,0,1.4,1.2,2.8,1.2c0.2,0,0.4,0,0.5,0V33.6l0-10.9l-0.5,0.2l-1,9.4l-2.5-4l-0.3,1.4L25.1,33.4z"/>
		<polygon class="st2" points="27.2,22.7 27.2,22.7 27.2,22.7 		"/>
		<path class="st9" d="M26.7,77.8c-1.4,0-1.4-1.2-2.8-1.2c-0.5,0-1.1,0.2-1.4,0.6c1.1,2.5,2.8,4.7,4.9,6.5l-0.1-5.9
			C27,77.8,26.8,77.8,26.7,77.8z"/>
		<polygon class="st2" points="19.2,21.8 18.5,22.2 21.6,27.5 21.9,26.2 		"/>
		<path class="st4" d="M21.4,74.8l-1,2.8c0.2,0.1,0.4,0.1,0.6,0.1c0.5,0,1-0.2,1.4-0.6c-0.3-0.7-0.6-1.4-0.8-2.1L21.4,74.8z"/>
		<polygon class="st2" points="23.2,28.3 21.9,26.2 21.6,27.5 22.9,29.6 		"/>
		<path class="st9" d="M22.4,77.2c-0.4,0.4-0.9,0.5-1.4,0.5c-0.2,0-0.4,0-0.6-0.1l-0.6,1.8c0.8,0.8,1.7,1.4,2.7,1.9
			c1.8,1,4.8,2.3,4.8,2.3C25.1,81.9,23.5,79.7,22.4,77.2z"/>
		<path class="st6" d="M39.1,72.1l-2.7-40.7l4.8-9.6h-1.8l-5.4,10.5l-1.2-4.7l-1.3,2.1l1.3,5.7c0,0,1.7,33.2,0.1,39.5l0.9,2.4
			c0.4-0.4,0.9-0.6,1.4-0.6c1.4,0,1.4,1.2,2.8,1.2c0.3,0,0.6-0.1,0.9-0.2C39.2,75.8,39.3,73.9,39.1,72.1z"/>
		<polygon class="st2" points="30.8,21.8 30,18 29.1,18.2 29.9,21.8 31.1,28.3 32.4,26.2 		"/>
		<path class="st11" d="M35.2,76.6c-0.5,0-1,0.2-1.4,0.6l0.8,2.2c-0.8,0.8-1.7,1.4-2.7,1.9c-1.8,1-4.8,2.3-4.8,2.3l5.9,0
			c3.9,0,5.3-3.1,5.8-6.1c-0.3,0.1-0.6,0.2-0.9,0.2C36.6,77.8,36.6,76.6,35.2,76.6z"/>
		<path class="st11" d="M31.8,77.7c-0.9-0.3-1.1-1.1-2.3-1.1c-1.2,0-1.5,0.8-2.3,1.2l0,5.9C29.1,82.1,30.7,80,31.8,77.7z"/>
		<polygon class="st2" points="27.2,22.7 27.2,22.7 27.2,22.7 		"/>
		<polygon class="st2" points="27.2,22.7 27.2,22.7 27.2,22.7 27.2,33.6 		"/>
		<path class="st2" d="M31.8,77.7c0.2,0.1,0.4,0.1,0.6,0.1c0.5,0,1-0.2,1.4-0.6l-0.8-2.4l-0.1,0.3C32.5,76,32.2,76.9,31.8,77.7z"/>
		<path class="st12" d="M43.7,16.7c-0.9-0.5-2-0.6-3-0.3c1.3-1.2,1.8-3,1.2-4.7l-0.8-3.1l-2.8,1.6c-1.6,0.8-2.5,2.4-2.5,4.2
			c-0.5-0.9-1.4-1.6-2.3-1.9l-3.1-1.3l-0.4,1c-0.9,2.2,2.3,5.6,6,7.2l0.2,0.1L35.1,22l-2.7,4.3l-1.3,2l-2.5,4l-1-9.4l-0.5-0.2
			l0,10.9l0,44.2c0.9-0.3,1.1-1.1,2.3-1.1s1.4,0.8,2.3,1.1c0.4-0.8,0.7-1.7,1-2.5l0.1-0.3l-2.2-6l-1.5-35.5l2.2-3.7l1.3-2.1l2.7-4.5
			l1.5-3.3l0.2,0.1c3.6,1.5,8.4,1.4,9.3-0.8l0.4-1L43.7,16.7z M36.5,17.3l0.2,0.7l-0.2,0.5L36.5,17.3z M37.5,18.3l0.7-0.4l-0.8,0.8
			L37.5,18.3z"/>
		<path class="st11" d="M34.6,79.5l-0.8-2.2c-0.4,0.4-0.9,0.6-1.4,0.6c-0.2,0-0.4,0-0.6-0.1c-1.1,2.3-2.6,4.4-4.6,6
			c0,0,3-1.3,4.8-2.3C32.9,80.9,33.8,80.2,34.6,79.5z"/>
		<path class="st2" d="M25.2,4.4c-1.4,2.8-1.4,6.1,0,8.9l1.9,3.7l0-16.4L25.2,4.4z"/>
		<path class="st13" d="M29.1,4.4l-1.9-3.7l0,16.4l1.9-3.7C30.5,10.5,30.5,7.2,29.1,4.4z"/>
		<path class="st12" d="M17.8,19.6l0.6-0.2c3.6-1.5,6.9-5,6-7.2l-0.4-1l-3.1,1.3c-2.2,0.9-2.7,2.2-3,4.1L17.8,19.6z"/>
		<path class="st12" d="M17.8,19.6l-0.6,0.2C13.6,21.3,8.9,21.2,8,19l-0.4-1l3.1-1.3c2.2-0.9,3.5-0.4,5,0.8L17.8,19.6z"/>
		<path class="st12" d="M18.3,15.6l-0.8,3.1l-2.8-1.6c-2-1-2.9-3.3-2.3-5.4l0.8-3.1l2.8,1.6C18,11.2,18.9,13.5,18.3,15.6z"/>
		<path class="st12" d="M18.9,32l0,1.3c0,0.8,0,2-0.1,3.4c-0.1,1.4-0.1,7.1-0.2,8.9s-0.2,7.7-0.4,9.6c-0.1,1.9-0.3,3.8-0.5,5.6
			c-0.2,1.8-0.4,4.4-0.6,5.8C17,68,16.9,69.2,16.8,70l-0.1,1.4l0-1.3c0-0.8,0-2,0.1-3.4s0.1-4.1,0.2-5.9c0.1-1.8,0.2-3.7,0.4-5.6
			c0.1-1.9,0.3-7.8,0.5-9.6c0.2-1.8,0.4-7.4,0.5-8.8c0.1-1.4,0.3-2.6,0.5-3.4L18.9,32z"/>
		<path class="st12" d="M20.4,33.4l0,1.2c0,0.8,0,1.9,0,3.3c0,1.4,0,6.9-0.1,8.7c-0.1,1.7-0.2,7.5-0.3,9.4c-0.1,1.8-0.2,3.6-0.4,5.3
			s-0.3,4.3-0.4,5.7c-0.1,1.4-0.3,2.5-0.4,3.3l-0.2,1.2l0-1.3c0-0.8,0-1.9,0-3.3c0-1.4,0.1-3.9,0.1-5.7c0-1.7,0.2-3.5,0.3-5.3
			s0.2-7.6,0.4-9.3c0.1-1.7,0.3-7.3,0.4-8.7c0.1-1.4,0.3-2.5,0.4-3.2L20.4,33.4z"/>
		<path class="st12" d="M25.8,34.3l0,1.2c0,0.8,0,1.9,0,3.3s0,6.9-0.1,8.6c-0.1,1.6-0.1,7.5-0.2,9.3c-0.1,1.8-0.2,3.6-0.4,5.3
			c-0.2,1.7-0.3,4.2-0.4,5.6s-0.3,2.5-0.4,3.2l-0.2,1.2l0-1.2c0-0.8,0-1.9,0-3.3c0-1.4,0.1-3.9,0.1-5.6c0-1.7,0.1-3.5,0.2-5.3
			c0.1-1.8,0.2-7.6,0.4-9.3s0.3-7.2,0.4-8.6c0.1-1.4,0.3-2.5,0.4-3.2L25.8,34.3z"/>
		<path class="st12" d="M26.5,34.5l0.1,1.2c0,0.8,0.1,1.9,0.1,3.3c0,1.4,0.1,6.9,0,8.6c0,1.7,0,7.5-0.1,9.3s-0.1,3.6-0.2,5.3
			c-0.1,1.7-0.2,4.3-0.3,5.6c-0.1,1.4-0.2,2.5-0.3,3.3l-0.2,1.3l-0.1-1.2c0-0.8-0.1-1.9-0.1-3.3c0-1.3-0.1-3.9,0-5.6
			c0-1.7,0-3.5,0.1-5.3c0-1.8,0.1-7.6,0.2-9.3c0.1-1.7,0.2-7.3,0.3-8.6c0.1-1.3,0.2-2.5,0.3-3.3L26.5,34.5z"/>
		<path class="st14" d="M28.5,34.5l0.2,1.2c0.1,0.8,0.2,1.9,0.4,3.2c0.1,1.3,0.3,6.9,0.4,8.6c0.1,1.7,0.2,7.5,0.4,9.3
			c0.1,1.8,0.2,3.6,0.2,5.3c0,1.7,0,4.3,0,5.6c0,1.3,0,2.5,0,3.3l0,1.2L29.8,71c-0.1-0.8-0.2-1.9-0.4-3.2c-0.1-1.3-0.3-3.9-0.4-5.6
			c-0.1-1.7-0.2-3.5-0.3-5.3s-0.2-7.6-0.2-9.3c0-1.7,0-7.3-0.1-8.6c0-1.3,0-2.5,0-3.3L28.5,34.5z"/>
		<path class="st14" d="M27.7,34.8l0.2,1.3c0.1,0.8,0.2,1.9,0.3,3.3c0.1,1.3,0.2,6.9,0.3,8.6c0.1,1.7,0.1,7.5,0.2,9.3
			c0.1,1.8,0.1,3.6,0.1,5.3c0,1.7,0,4.3,0,5.6c0,1.4-0.1,2.5-0.1,3.2s-0.1,1.2-0.1,1.2l-0.2-1.3c-0.1-0.8-0.2-1.9-0.3-3.3
			c-0.1-1.3-0.2-3.9-0.3-5.6c-0.1-1.7-0.1-3.5-0.2-5.3c-0.1-1.8-0.1-7.6-0.1-9.3c0-1.7,0-7.3,0-8.6c0-1.4,0.1-2.5,0.1-3.3L27.7,34.8
			z"/>
		<path class="st12" d="M35.2,32.5l0.2,1.2c0.1,0.8,0.3,2,0.5,3.3s0.4,7,0.6,8.7s0.4,7.6,0.5,9.4c0.2,1.8,0.3,3.7,0.4,5.4
			c0.1,1.7,0.2,4.3,0.3,5.7c0.1,1.4,0.1,2.5,0.1,3.4l0,1.3l-0.2-1.2c-0.1-0.8-0.3-1.9-0.5-3.3c-0.2-1.4-0.4-4-0.5-5.7
			c-0.1-1.8-0.4-3.6-0.5-5.4c-0.2-1.8-0.3-7.7-0.4-9.4s-0.2-7.3-0.3-8.7c-0.1-1.4-0.1-2.5-0.1-3.4L35.2,32.5z"/>
		<path class="st12" d="M34,33.4l0.2,1.2c0.1,0.8,0.2,1.9,0.4,3.2s0.3,6.9,0.4,8.6c0.1,1.7,0.3,7.5,0.4,9.3c0.1,1.8,0.2,3.6,0.3,5.3
			c0.1,1.7,0,4.2,0.1,5.6s0,2.5,0,3.3l0,1.2l-0.2-1.2c-0.1-0.8-0.2-1.9-0.4-3.2c-0.1-1.3-0.3-3.9-0.4-5.6c-0.1-1.7-0.3-3.5-0.4-5.3
			c-0.1-1.8-0.2-7.6-0.2-9.3c0-1.7-0.1-7.3-0.1-8.6c0-1.3,0-2.5,0-3.3L34,33.4z"/>
	</g>
</g>
</svg>
