<svg xmlns="http://www.w3.org/2000/svg" viewBox="0 0 64.45 66"><g id="a4a6f037-f2b1-4bdd-85e7-a1beab8e7366" data-name="Layer 2"><g id="b1e1ab67-983c-448e-82b3-81c4ed48fddd" data-name="—ÎÓÈ_1"><path d="M14.82,40.91,1.19,54.54a4.62,4.62,0,0,0,.33,6.51l1.72,1.71L20,46.05Z" fill="#8ece60"/><path d="M20,46.05,3.24,62.76,5,64.48a4.62,4.62,0,0,0,6.51.33L25.09,51.18Z" fill="#82bf52"/><path d="M5.23,56.61h0a.61.61,0,0,1,0-.85l9.43-9.43.9.91L6.08,56.66A.6.6,0,0,1,5.23,56.61Z" fill="#74a341"/><path d="M58.73,5.73,55.17,9.29s-8.4,3.49-7.83-.88c.45-3.47,3.71-6,8.75-6.59C57.59,1.64,59.76,4.7,58.73,5.73Z" fill="#bae24b"/><path d="M35.23,11.31s7.92-7.07,15.45-6.79,10.19-.93,10.19-.93L41.58,22.88S25.3,22.75,35.23,11.31Z" fill="#deff9f"/><path d="M36.84,4.86A25.9,25.9,0,0,1,47.79,1.91c1.57-.07,2.88-.16,4-.24,1.38-.11,1.82,1.15.88,2.09L50.17,6.22S34.78,27,36,20.17A89.76,89.76,0,0,0,36.84,4.86Z" fill="#e0f9b7"/><path d="M38.59,25.87a5.53,5.53,0,0,1-2.26-8.28c3.32-5.68,10.26-6.67,13.21-7s3.17,1.15,3.17,1.15Z" fill="#ceefa3"/><path d="M41.16,3.5A2.94,2.94,0,0,0,37.94.2C34.26.67,28.62,2.11,24.5,6.41c-6.64,6.92-7.45,15.2-4.38,17.66s15.74-2.6,15.74-2.6,1.78.86,3.5-8C40.2,9.06,40.78,5.75,41.16,3.5Z" fill="#bfe593"/><path d="M28.47.51,23.54,18.16l-15,7.78S8.13,11.15,18.91,4.52,28.47.51,28.47.51Z" fill="#add385"/><path d="M18.09,28.45s5.46-10.58,16.47-9.68,11.35-.22,11.35-.22L30.25,34.2s-6.79,4.16-8.56,3S18.09,28.45,18.09,28.45Z" fill="#add385"/><path d="M58.73,5.73,55.17,9.29s-3.5,8.39.87,7.82c3.47-.45,6-3.71,6.59-8.75C62.81,6.86,59.76,4.7,58.73,5.73Z" fill="#b0d844"/><path d="M53.14,29.22s7.07-7.92,6.79-15.45.94-10.18.94-10.18L41.58,22.88S41.7,39.15,53.14,29.22Z" fill="#ceefa3"/><path d="M59.59,27.6a25.82,25.82,0,0,0,2.95-10.94c.07-1.57.15-2.88.24-4a1.57,1.57,0,0,0-2.56-1.35l-2.46,2.47S36.14,29.77,43,28.59A109.73,109.73,0,0,1,59.59,27.6Z" fill="#a2ce78"/><path d="M60.94,23.29a2.94,2.94,0,0,1,3.31,3.22C63.78,30.19,62.34,35.83,58,40c-6.92,6.64-15.2,7.45-17.66,4.38S43,28.59,43,28.59s-.86-1.78,8.05-3.5C55.39,24.25,58.7,23.67,60.94,23.29Z" fill="#9bc474"/><path d="M38.59,25.87S41,31.3,46.72,28s6.68-10.27,7-13.21-1-3-1-3Z" fill="#add385"/><path d="M63.94,36,46.29,40.91l-7.78,15s14.79.43,21.41-10.34S63.94,36,63.94,36Z" fill="#7cad4d"/><path d="M36,46.36s10.58-5.46,9.68-16.47.23-11.34.23-11.34L30.25,34.2s-4.16,6.79-3,8.56S36,46.36,36,46.36Z" fill="#a2ce78"/><path d="M28.45,36l1.62-18.33a1.81,1.81,0,0,0-2.29-2L8.87,22s-1.62,10.18,2.62,13S28.45,36,28.45,36Z" fill="#a2ce78"/><path d="M9.85,44.08C8.2,43.18,5,39.35,4.75,32.81,4.59,28.61,6.23,21.13,8,15.87c.38-1.14,2.13-.74,2.2.5.23,4.11,1,9.26,3.13,12.53,4.07,6.18,7.24,10.2,4.58,12S10.4,44.37,9.85,44.08Z" fill="#9bc474"/><path d="M8.87,40.86s-.74-3.55,8.55-5.78c4-1,13.14-1.19,13.14-1.19L13.42,51S7.72,44.77,8.87,40.86Z" fill="#8cbf62"/><path d="M28.45,36l18.33-1.62a1.81,1.81,0,0,1,2,2.29L42.41,55.58S32.23,57.2,29.4,53,28.45,36,28.45,36Z" fill="#8ab557"/><path d="M20.37,54.6c.9,1.65,4.73,4.85,11.27,5.1,4.2.16,11.68-1.48,16.94-3.27,1.14-.38.74-2.13-.5-2.2-4.11-.23-9.26-1-12.53-3.13-6.18-4.07-10.2-7.24-12-4.58S20.08,54.05,20.37,54.6Z" fill="#74a341"/><path d="M23.59,55.58s3.54.74,5.78-8.55c1-4,1.19-13.14,1.19-13.14L13.42,51S19.67,56.73,23.59,55.58Z" fill="#7cad4d"/></g></g></svg>