<svg xmlns="http://www.w3.org/2000/svg" viewBox="0 0 70 70"><g id="a76b8dfa-c68a-4ef7-b618-47a59dbf6f6d" data-name="Layer 2"><g id="a395dfcc-87e7-4b9d-8b83-3ff7eb0d877d" data-name="—ÎÓÈ_1"><path d="M21.25,39.7c2-3.09,3.3-5.18,3.3-5.18s22-22,21.86-34.52c0,0-9.12,12.41-19.35,25.12L22.41,36.86S22,38,21.25,39.7Z" fill="#88c836"/><path d="M44.88,42.94C57.59,32.71,70,23.59,70,23.59c-12.48-.1-34.52,21.86-34.52,21.86s-2.09,1.32-5.18,3.3c1.75-.74,2.84-1.16,2.84-1.16Z" fill="#88c836"/><path d="M4.87,65.46C7,67.59,9.64,68.81,12.3,68.11s10.41-6.53,12.32-8.4C35.36,49.18,57.11,26.09,59.1,22.36s4.79-9.25,1.45-12.58S51.68,9.23,48,11.22,21.15,35,10.62,45.7C8.74,47.62,2.92,55.36,2.22,58S2.73,63.32,4.87,65.46Z" fill="#ffb600"/><path d="M11.06,56.54a1.34,1.34,0,0,0,0-1.77l-1-1.21a.93.93,0,0,0-1.51,0L7.46,54.9a1.59,1.59,0,0,0,0,1.87c.41.51,2,1.5,2.45,1Z" fill="#ffde17"/><path d="M8,56.3a.85.85,0,0,1,0-.94L9.13,54a.28.28,0,0,1,.16-.1.2.2,0,0,1,.15.08l1.07,1.26a.59.59,0,0,1,0,.78l-1,1.13a3.5,3.5,0,0,1-1.36-.8Z" fill="#ffe35a"/><path d="M15.93,51.43l.79-.8a1.26,1.26,0,0,0,0-1.73l-1.2-1.36a1.08,1.08,0,0,0-1.62-.06l-1,1-.26.26a1.37,1.37,0,0,0,0,1.72L13.9,51.8a1.1,1.1,0,0,0,1.63,0Z" fill="#ffde17"/><path d="M13.3,50a.6.6,0,0,1,0-.73L14.47,48a.36.36,0,0,1,.25-.11A.34.34,0,0,1,15,48l1.24,1.39a.53.53,0,0,1,0,.71L15,51.32a.36.36,0,0,1-.26.11.32.32,0,0,1-.26-.11Z" fill="#ffe35a"/><path d="M13.87,53.56a1.33,1.33,0,0,0,0-1.76l-1.17-1.35a1,1,0,0,0-1.55,0l-1.1,1.28a1.53,1.53,0,0,0,0,1.85l1,1.21a1.08,1.08,0,0,0,1.62,0Z" fill="#ffde17"/><path d="M10.63,53.07a.77.77,0,0,1,0-.88l1.1-1.28a.26.26,0,0,1,.19-.1.28.28,0,0,1,.19.08l1.2,1.4a.56.56,0,0,1,0,.75l-1.17,1.24a.34.34,0,0,1-.25.12.34.34,0,0,1-.25-.11Z" fill="#ffe35a"/><path d="M7.45,56.77a.88.88,0,0,0-1.46,0L4.93,58.25a1.63,1.63,0,0,0,0,1.81c.36.45,1.79,1.26,2.23.77l1.14-1.28C8.72,59.06,7.86,57.28,7.45,56.77Z" fill="#ffde17"/><path d="M5.49,59.59a.87.87,0,0,1,.06-.91l1-1.45a.19.19,0,0,1,.13-.09s.09,0,.11.06a4.68,4.68,0,0,1,.82,1.93l-1,1.1a2.54,2.54,0,0,1-1.15-.61Z" fill="#ffe35a"/><path d="M10.34,60l-.44-.44a1.08,1.08,0,0,0-1.62,0L7.14,60.83a1.27,1.27,0,0,0-.08,1.66l.39.39.38.38a1.28,1.28,0,0,0,1.66-.07L10.77,62a1.08,1.08,0,0,0,0-1.62Z" fill="#ffde17"/><path d="M7.59,62a.56.56,0,0,1,.11-.65l1.14-1.27a.31.31,0,0,1,.25-.12.34.34,0,0,1,.26.11l.91.91a.35.35,0,0,1,0,.54L9,62.63a.56.56,0,0,1-.66.09Z" fill="#ffe35a"/><path d="M31.22,36.21a1.18,1.18,0,0,0,0-1.68L30,33.34a1.23,1.23,0,0,0-1.71,0l-1.18,1.14a1.2,1.2,0,0,0,0,1.69l1.21,1.23a1.21,1.21,0,0,0,1.7,0Z" fill="#ffde17"/><path d="M27.64,35.64a.43.43,0,0,1-.12-.31.44.44,0,0,1,.13-.31l1.18-1.15a.49.49,0,0,1,.67,0l1.2,1.18a.43.43,0,0,1,0,.62l-1.21,1.19a.45.45,0,0,1-.63,0Z" fill="#ffe35a"/><path d="M34.13,33.34a1.17,1.17,0,0,0,0-1.68l-1.18-1.13a1.25,1.25,0,0,0-1.72,0L30,31.67a1.17,1.17,0,0,0,0,1.67l1.2,1.19a1.22,1.22,0,0,0,1.7,0Z" fill="#ffde17"/><path d="M30.54,32.81a.42.42,0,0,1-.12-.3.43.43,0,0,1,.13-.3l1.18-1.14a.52.52,0,0,1,.7,0l1.18,1.13a.42.42,0,0,1,.12.3.41.41,0,0,1-.12.3L32.4,34a.48.48,0,0,1-.65,0Z" fill="#ffe35a"/><path d="M19.62,47.74a1.25,1.25,0,0,0,0-1.72l-1.22-1.34a1.11,1.11,0,0,0-1.64,0l-1.16,1.15a1.34,1.34,0,0,0-.07,1.76l1.2,1.36a1.15,1.15,0,0,0,1.66,0Z" fill="#ffde17"/><path d="M16.12,47.05a.58.58,0,0,1,0-.74l1.16-1.15a.36.36,0,0,1,.53,0l1.25,1.37a.51.51,0,0,1,0,.69l-1.2,1.2a.39.39,0,0,1-.28.12.36.36,0,0,1-.28-.12Z" fill="#ffe35a"/><path d="M28.32,39.09a1.2,1.2,0,0,0,0-1.69l-1.21-1.23a1.2,1.2,0,0,0-1.69,0l-1.18,1.14a1.23,1.23,0,0,0,0,1.71l1.22,1.27a1.18,1.18,0,0,0,1.68,0Z" fill="#ffde17"/><path d="M24.75,38.48a.47.47,0,0,1,0-.65l1.18-1.15a.46.46,0,0,1,.64,0l1.21,1.23a.46.46,0,0,1,0,.64l-1.2,1.19a.44.44,0,0,1-.62,0Z" fill="#ffe35a"/><path d="M22.51,44.85a1.23,1.23,0,0,0,0-1.71l-1.22-1.3a1.15,1.15,0,0,0-1.66-.05l-1.17,1.15a1.29,1.29,0,0,0-.06,1.74L19.65,46a1.15,1.15,0,0,0,1.66,0Z" fill="#ffde17"/><path d="M19,44.18a.55.55,0,0,1,0-.71l1.16-1.15a.4.4,0,0,1,.57,0L22,43.65a.48.48,0,0,1,0,.67l-1.21,1.2a.41.41,0,0,1-.58,0Z" fill="#ffe35a"/><path d="M47.27,25.73a1.29,1.29,0,0,0,0,1.74l1,1.07a1.05,1.05,0,0,0,1.6,0l1.14-1.22a1.38,1.38,0,0,0,0-1.79l-.88-1a1.11,1.11,0,0,0-1.64,0Z" fill="#ffde17"/><path d="M47.8,27a.53.53,0,0,1,0-.71L49,25a.37.37,0,0,1,.27-.12.4.4,0,0,1,.27.11l.89,1a.65.65,0,0,1,0,.79l-1.13,1.22a.31.31,0,0,1-.24.12.37.37,0,0,1-.23-.1Z" fill="#ffe35a"/><path d="M9.49,63.19a1,1,0,0,0-.05,1.53c.46.4,2.09,1,2.63.67l1.46-1.06a.88.88,0,0,0,0-1.46c-.52-.41-2.3-1.27-2.79-.83Z" fill="#ffde17"/><path d="M9.92,64.14A.18.18,0,0,1,9.85,64a.32.32,0,0,1,.14-.24l1.21-1.09a4.76,4.76,0,0,1,1.89.79l0,0a.2.2,0,0,1,.07.11.29.29,0,0,1-.11.15l-1.4,1a3.55,3.55,0,0,1-1.75-.59Z" fill="#ffe35a"/><path d="M32.92,40.31a1.2,1.2,0,0,0,0,1.69l1.23,1.21a1.19,1.19,0,0,0,1.68,0L37,42a1.24,1.24,0,0,0,0-1.71L35.8,39.1a1.19,1.19,0,0,0-1.69,0Z" fill="#ffde17"/><path d="M33.45,41.47a.47.47,0,0,1,0-.64l1.19-1.2a.45.45,0,0,1,.62,0l1.19,1.2a.48.48,0,0,1,0,.67l-1.14,1.18a.49.49,0,0,1-.32.14.46.46,0,0,1-.31-.13l-1.23-1.21Z" fill="#ffe35a"/><path d="M12.54,60.42a1.06,1.06,0,0,0,0,1.61s.48.43,1,.84a1.58,1.58,0,0,0,1.86,0l1.36-1.09a.93.93,0,0,0,0-1.5l-1.21-1a1.34,1.34,0,0,0-1.77,0Z" fill="#ffde17"/><path d="M13,61.45a.29.29,0,0,1-.1-.24A.34.34,0,0,1,13,61l1.25-1.16a.6.6,0,0,1,.77,0l1.22,1,0,0a.24.24,0,0,1,.09.16.26.26,0,0,1-.11.17L15,62.28a.85.85,0,0,1-.94,0c-.49-.39-1-.81-1-.81Z" fill="#ffe35a"/><path d="M41.54,31.58a1.23,1.23,0,0,0,0,1.71l1.08,1.16a1.1,1.1,0,0,0,1.63,0l1.14-1.2a1.33,1.33,0,0,0,0-1.76l-1-1.12a1.15,1.15,0,0,0-1.66,0Z" fill="#ffde17"/><path d="M42.07,32.78a.5.5,0,0,1,0-.68l1.19-1.21a.41.41,0,0,1,.29-.13.44.44,0,0,1,.28.12l1,1.12a.59.59,0,0,1,0,.75L43.7,34a.36.36,0,0,1-.27.12.38.38,0,0,1-.26-.11Z" fill="#ffe35a"/><path d="M30,43.21a1.18,1.18,0,0,0,0,1.68l1.27,1.22a1.21,1.21,0,0,0,1.7,0l1.14-1.17a1.21,1.21,0,0,0,0-1.7L32.93,42a1.2,1.2,0,0,0-1.69,0Z" fill="#ffde17"/><path d="M30.57,44.35a.43.43,0,0,1,0-.61l1.19-1.21a.46.46,0,0,1,.64,0l1.23,1.21a.47.47,0,0,1,0,.65L32.5,45.56a.47.47,0,0,1-.66,0l-1.27-1.21Z" fill="#ffe35a"/><path d="M38.67,34.49a1.23,1.23,0,0,0,0,1.71l1.14,1.18a1.13,1.13,0,0,0,1.65,0l1.14-1.19a1.3,1.3,0,0,0,0-1.74l-1.08-1.16a1.17,1.17,0,0,0-1.67,0Z" fill="#ffde17"/><path d="M39.2,35.68a.48.48,0,0,1,0-.67l1.19-1.21a.42.42,0,0,1,.3-.12.42.42,0,0,1,.29.12L42.06,35a.55.55,0,0,1,0,.72l-1.14,1.19a.39.39,0,0,1-.28.12.4.4,0,0,1-.29-.12Z" fill="#ffe35a"/><path d="M35.8,37.4a1.2,1.2,0,0,0,0,1.7L37,40.3a1.16,1.16,0,0,0,1.67,0l1.14-1.18a1.27,1.27,0,0,0,0-1.73L38.66,36.2a1.17,1.17,0,0,0-1.67,0Z" fill="#ffde17"/><path d="M36.33,38.58a.47.47,0,0,1,0-.66l1.19-1.2a.39.39,0,0,1,.3-.13.42.42,0,0,1,.3.12l1.14,1.19a.52.52,0,0,1,0,.69l-1.14,1.18a.38.38,0,0,1-.3.13.42.42,0,0,1-.3-.12Z" fill="#ffe35a"/><path d="M18.89,54.4l-.4.39a1.1,1.1,0,0,0,0,1.63l1.35,1.17a1.37,1.37,0,0,0,1.73,0l.25-.26,1-1a1.09,1.09,0,0,0-.07-1.62l-1.36-1.2a1.27,1.27,0,0,0-1.73,0Z" fill="#ffde17"/><path d="M19,55.85a.36.36,0,0,1-.11-.26.35.35,0,0,1,.12-.26l1.21-1.2a.52.52,0,0,1,.7,0l1.38,1.22a.4.4,0,0,1,.13.27.36.36,0,0,1-.11.25l-1.25,1.24a.65.65,0,0,1-.73-.08L19,55.86Z" fill="#ffe35a"/><path d="M15.53,57.62a1.08,1.08,0,0,0,0,1.62l1.21,1a1.5,1.5,0,0,0,1.84,0l1.29-1.1a1,1,0,0,0,0-1.55l-1.35-1.17a1.34,1.34,0,0,0-1.76,0Z" fill="#ffde17"/><path d="M16,58.66a.34.34,0,0,1-.11-.24.36.36,0,0,1,.12-.25L17.28,57A.57.57,0,0,1,18,57l1.38,1.19c.09.09.12.15.11.21a.27.27,0,0,1-.11.2l-1.27,1.1a.78.78,0,0,1-.9,0l-1.19-1Z" fill="#ffe35a"/><path d="M21.38,51.91a1.14,1.14,0,0,0,0,1.65l1.36,1.2a1.32,1.32,0,0,0,1.76-.07l1.16-1.16a1.11,1.11,0,0,0-.06-1.64L24.3,50.68a1.24,1.24,0,0,0-1.72,0Z" fill="#ffde17"/><path d="M21.91,53a.39.39,0,0,1,0-.56l1.2-1.2a.51.51,0,0,1,.69,0l1.34,1.23a.37.37,0,0,1,0,.55L24,54.16a.58.58,0,0,1-.75,0L21.92,53Z" fill="#ffe35a"/><path d="M24.27,49a1.17,1.17,0,0,0,0,1.67l1.34,1.21a1.28,1.28,0,0,0,1.74-.06l1.15-1.16a1.15,1.15,0,0,0,0-1.66l-1.31-1.22a1.22,1.22,0,0,0-1.71,0Z" fill="#ffde17"/><path d="M24.8,50.12a.41.41,0,0,1,0-.58l1.2-1.2a.48.48,0,0,1,.67,0L28,49.55a.41.41,0,0,1,0,.59l-1.15,1.17a.56.56,0,0,1-.72,0l-1.32-1.21Z" fill="#ffe35a"/><path d="M27.16,46.11a1.18,1.18,0,0,0,0,1.68L28.49,49a1.25,1.25,0,0,0,1.72,0l1.15-1.17a1.19,1.19,0,0,0,0-1.68l-1.27-1.22a1.23,1.23,0,0,0-1.71,0Z" fill="#ffde17"/><path d="M27.69,47.24a.42.42,0,0,1,0-.6l1.19-1.2a.48.48,0,0,1,.66,0l1.27,1.22a.43.43,0,0,1,0,.62l-1.14,1.17a.52.52,0,0,1-.69,0l-1.3-1.22Z" fill="#ffe35a"/><path d="M25.41,42a1.21,1.21,0,0,0,0-1.7L24.21,39a1.18,1.18,0,0,0-1.68,0l-1.17,1.14a1.26,1.26,0,0,0,0,1.73l1.22,1.3a1.16,1.16,0,0,0,1.67,0Z" fill="#ffde17"/><path d="M21.86,41.33a.51.51,0,0,1,0-.68l1.17-1.15a.45.45,0,0,1,.61,0l1.23,1.28a.48.48,0,0,1,0,.66l-1.21,1.2a.43.43,0,0,1-.6,0Z" fill="#ffe35a"/><path d="M32.92,36.21a1.22,1.22,0,0,0-1.7,0L30,37.4a1.19,1.19,0,0,0,0,1.69l.61.61.61.61a1.19,1.19,0,0,0,1.69,0l1.19-1.21a1.21,1.21,0,0,0,0-1.7l-.59-.59Z" fill="#ffde17"/><path d="M30.54,38.57a.44.44,0,0,1-.13-.32.48.48,0,0,1,.13-.32l1.21-1.19a.47.47,0,0,1,.64,0l1.19,1.19a.46.46,0,0,1,0,.65l-1.19,1.2a.42.42,0,0,1-.32.13.39.39,0,0,1-.31-.12l-.61-.61Z" fill="#ffe35a"/><path d="M41.67,27.59a1.23,1.23,0,0,0-1.71,0l-1.21,1.19a1.18,1.18,0,0,0,0,1.68l.56.55.55.56a1.19,1.19,0,0,0,1.68,0l1.19-1.22a1.24,1.24,0,0,0,0-1.71l-.54-.53Z" fill="#ffde17"/><path d="M39.27,29.92a.43.43,0,0,1-.13-.3.42.42,0,0,1,.13-.3l1.21-1.2a.5.5,0,0,1,.67,0l1.05,1.05a.48.48,0,0,1,0,.67L41,31.05a.44.44,0,0,1-.31.13.39.39,0,0,1-.3-.13Z" fill="#ffe35a"/><path d="M30,39.09a1.2,1.2,0,0,0-1.69,0l-1.21,1.19a1.21,1.21,0,0,0,0,1.7l.62.62.63.62a1.2,1.2,0,0,0,1.69,0l1.2-1.2a1.21,1.21,0,0,0,0-1.7l-.61-.61Z" fill="#ffde17"/><path d="M27.63,41.45a.46.46,0,0,1,0-.64l1.2-1.19a.47.47,0,0,1,.64,0l1.22,1.22a.45.45,0,0,1,0,.64l-1.19,1.21a.47.47,0,0,1-.64,0l-.62-.62Z" fill="#ffe35a"/><path d="M35.83,33.33a1.21,1.21,0,0,0-1.7,0l-1.21,1.19a1.18,1.18,0,0,0,0,1.68l.6.6.59.59a1.19,1.19,0,0,0,1.69,0L37,36.19a1.22,1.22,0,0,0,0-1.7l-.58-.58Z" fill="#ffde17"/><path d="M33.45,35.68a.43.43,0,0,1,0-.62l1.2-1.19a.47.47,0,0,1,.66,0L36.46,35a.49.49,0,0,1,0,.66l-1.2,1.21a.43.43,0,0,1-.62,0Z" fill="#ffe35a"/><path d="M38.75,30.46a1.23,1.23,0,0,0-1.71,0l-1.21,1.19a1.2,1.2,0,0,0,0,1.68l.58.58.58.58a1.18,1.18,0,0,0,1.68,0l1.19-1.21a1.23,1.23,0,0,0,0-1.71L39.31,31Z" fill="#ffde17"/><path d="M36.36,32.8a.4.4,0,0,1-.13-.31.39.39,0,0,1,.13-.3L37.57,31a.49.49,0,0,1,.66,0l1.1,1.1a.48.48,0,0,1,0,.67L38.14,34a.43.43,0,0,1-.31.12.41.41,0,0,1-.31-.12Z" fill="#ffe35a"/><path d="M27.1,42a1.19,1.19,0,0,0-1.69,0l-1.2,1.19a1.21,1.21,0,0,0,0,1.7l.63.64.63.63a1.21,1.21,0,0,0,1.7,0l1.19-1.2a1.2,1.2,0,0,0,0-1.69l-.63-.62Z" fill="#ffde17"/><path d="M24.73,44.34a.48.48,0,0,1,0-.65l1.21-1.19a.44.44,0,0,1,.63,0l1.25,1.25a.44.44,0,0,1,0,.63l-1.2,1.21a.47.47,0,0,1-.65,0L25.35,45Z" fill="#ffe35a"/><path d="M24.2,44.86a1.2,1.2,0,0,0-1.69,0l-1.2,1.2a1.22,1.22,0,0,0,0,1.7l.64.64.64.64a1.21,1.21,0,0,0,1.7,0l1.2-1.2a1.18,1.18,0,0,0,0-1.68l-.63-.63Z" fill="#ffde17"/><path d="M21.83,47.24a.48.48,0,0,1,0-.66l1.2-1.2a.44.44,0,0,1,.62,0l.64.65.64.63a.44.44,0,0,1,0,.62l-1.19,1.21a.48.48,0,0,1-.66,0l-.63-.62Z" fill="#ffe35a"/><path d="M12.7,56.54a1.11,1.11,0,0,0-1.64,0L9.9,57.79a1.3,1.3,0,0,0,0,1.75l.44.44.44.44a1.32,1.32,0,0,0,1.76,0l1.25-1.16a1.1,1.1,0,0,0,0-1.63l-.55-.55Z" fill="#ffde17"/><path d="M10.43,59a.55.55,0,0,1,0-.72L11.61,57a.38.38,0,0,1,.26-.12.36.36,0,0,1,.27.12l.57.57.57.56h0a.41.41,0,0,1,.12.28.37.37,0,0,1-.12.27L12,59.88a.56.56,0,0,1-.73,0Z" fill="#ffe35a"/><path d="M15.52,53.56a1.13,1.13,0,0,0-1.65,0L12.7,54.79a1.3,1.3,0,0,0,0,1.75l.54.54.55.55a1.28,1.28,0,0,0,1.74,0l1.23-1.17a1.13,1.13,0,0,0,0-1.65l-.62-.61C15.63,53.69,15.52,53.56,15.52,53.56Z" fill="#ffde17"/><path d="M13.24,56a.53.53,0,0,1,0-.71l1.17-1.24a.42.42,0,0,1,.28-.12.39.39,0,0,1,.28.12l.64.64.64.64h0a.39.39,0,0,1,.12.28.36.36,0,0,1-.12.28L15,57.08a.55.55,0,0,1-.72,0l-.53-.52Z" fill="#ffe35a"/><path d="M21.29,47.75a1.17,1.17,0,0,0-1.67,0l-1.2,1.2a1.22,1.22,0,0,0,0,1.71l.63.64.64.64a1.24,1.24,0,0,0,1.71,0l1.2-1.2a1.18,1.18,0,0,0,0-1.68l-.64-.64Z" fill="#ffde17"/><path d="M19.56,50.76l-.63-.63a.48.48,0,0,1,0-.66l1.2-1.2a.43.43,0,0,1,.61,0l.65.65.65.64a.45.45,0,0,1,0,.62l-1.2,1.2a.49.49,0,0,1-.67,0Z" fill="#ffe35a"/><path d="M18.4,50.65a1.18,1.18,0,0,0-1.68,0l-.79.8-.4.41a1.25,1.25,0,0,0,0,1.72s.11.13.62.63l.62.61a1.26,1.26,0,0,0,1.73,0l.4-.39.8-.8a1.16,1.16,0,0,0,0-1.67L19,51.29Z" fill="#ffde17"/><path d="M16.66,53.66l-.6-.61a.53.53,0,0,1,0-.7l1.19-1.19a.41.41,0,0,1,.6,0l.66.66.65.64h0a.43.43,0,0,1,.13.31.42.42,0,0,1-.12.3L18,54.26a.52.52,0,0,1-.7,0Z" fill="#ffe35a"/><path d="M40,27.59a1.13,1.13,0,0,0,0-1.65l-1.12-1a1.34,1.34,0,0,0-1.76,0l-1.2,1.14a1.11,1.11,0,0,0,0,1.64L37,28.8a1.24,1.24,0,0,0,1.72,0Z" fill="#ffde17"/><path d="M36.37,27.15a.34.34,0,0,1-.12-.26.44.44,0,0,1,.13-.27l1.19-1.14a.6.6,0,0,1,.76,0l1.1,1a.37.37,0,0,1,.13.29.44.44,0,0,1-.12.28l-1.22,1.19a.51.51,0,0,1-.68,0Z" fill="#ffe35a"/><path d="M45.8,21.87a1.11,1.11,0,0,0,0-1.64l-1-.89a1.42,1.42,0,0,0-1.8,0l-1.22,1.14a1.05,1.05,0,0,0,0,1.6l1.07,1a1.28,1.28,0,0,0,1.74,0Z" fill="#ffde17"/><path d="M42.25,21.53a.26.26,0,0,1-.1-.23.33.33,0,0,1,.11-.23l1.22-1.14a.66.66,0,0,1,.81,0l1,.88a.34.34,0,0,1,.12.27.36.36,0,0,1-.12.27l-1.21,1.19a.53.53,0,0,1-.71,0Z" fill="#ffe35a"/><path d="M48.74,19a1.1,1.1,0,0,0,0-1.63s-.45-.41-1-.81a1.4,1.4,0,0,0-1.78.06l-1.25,1.13a1,1,0,0,0,0,1.58l1,.89a1.29,1.29,0,0,0,1.74,0Z" fill="#ffde17"/><path d="M45.22,18.75a.34.34,0,0,1-.1-.22.33.33,0,0,1,.12-.22l1.24-1.13a.68.68,0,0,1,.81,0c.48.4.92.8.92.8h0a.38.38,0,0,1,.13.28.37.37,0,0,1-.12.26L47,19.66a.55.55,0,0,1-.72,0Z" fill="#ffe35a"/><path d="M51.77,16.12a1,1,0,0,0-.07-1.53c-.49-.43-2.12-1.11-2.6-.71s-2.5,1.46-1.34,2.69C49.76,18.68,51.33,16.53,51.77,16.12Z" fill="#ffde17"/><path d="M48.3,16.05a.46.46,0,0,1-.15-.27c0-.34.77-.85,1.08-1.07l.28-.2a3.52,3.52,0,0,1,1.69.63h0a.36.36,0,0,1,.14.26.21.21,0,0,1-.08.16l-.2.21c-.31.33-.89,1-1.52,1a1.7,1.7,0,0,1-1.16-.61Z" fill="#ffe35a"/><path d="M44.6,24.72a1.24,1.24,0,0,0-1.72,0l-1.21,1.19a1.17,1.17,0,0,0,0,1.67l.53.53.54.53a1.17,1.17,0,0,0,1.67,0l1.19-1.22a1.23,1.23,0,0,0,0-1.71l-.5-.51Z" fill="#ffde17"/><path d="M42.19,27.05a.41.41,0,0,1-.13-.3.42.42,0,0,1,.13-.3l1.21-1.19a.5.5,0,0,1,.68,0l1,1a.49.49,0,0,1,0,.67l-1.19,1.21a.37.37,0,0,1-.29.13.41.41,0,0,1-.3-.12Z" fill="#ffe35a"/><path d="M37,30.46a1.14,1.14,0,0,0,0-1.66l-1.15-1.08a1.3,1.3,0,0,0-1.75,0l-1.19,1.15a1.14,1.14,0,0,0,0,1.65l1.18,1.13a1.22,1.22,0,0,0,1.71,0Z" fill="#ffde17"/><path d="M33.45,30a.39.39,0,0,1-.12-.28.41.41,0,0,1,.13-.29l1.19-1.14a.55.55,0,0,1,.72,0l1.15,1.07a.42.42,0,0,1,.12.3.4.4,0,0,1-.12.29l-1.21,1.19a.49.49,0,0,1-.67,0Z" fill="#ffe35a"/><path d="M42.88,24.73a1.13,1.13,0,0,0,0-1.65l-1.07-1a1.35,1.35,0,0,0-1.77,0L38.8,23.3a1.07,1.07,0,0,0,0,1.61l1.12,1a1.27,1.27,0,0,0,1.73,0Z" fill="#ffde17"/><path d="M39.3,24.34a.36.36,0,0,1-.11-.25.34.34,0,0,1,.12-.25l1.21-1.14a.63.63,0,0,1,.78,0l1.06.95a.44.44,0,0,1,.12.29.39.39,0,0,1-.12.28l-1.22,1.18a.51.51,0,0,1-.69,0Z" fill="#ffe35a"/><path d="M50.46,19a1.26,1.26,0,0,0-1.72,0L47.52,20.2a1.15,1.15,0,0,0,0,1.66l.47.47.47.46a1.13,1.13,0,0,0,1.65,0l1.19-1.22a1.26,1.26,0,0,0,0-1.72l-.44-.43Z" fill="#ffde17"/><path d="M48,21.32a.45.45,0,0,1-.13-.3.41.41,0,0,1,.13-.29l1.22-1.18a.52.52,0,0,1,.69,0l.85.85a.51.51,0,0,1,0,.67l-1.18,1.22a.41.41,0,0,1-.29.13.42.42,0,0,1-.29-.12Z" fill="#ffe35a"/><path d="M47.53,21.86a1.26,1.26,0,0,0-1.73,0l-1.21,1.18a1.16,1.16,0,0,0,0,1.67l.5.5.5.51a1.16,1.16,0,0,0,1.67,0l1.19-1.21a1.27,1.27,0,0,0,0-1.73L48,22.33Z" fill="#ffde17"/><path d="M45.12,24.18a.42.42,0,0,1-.14-.3.41.41,0,0,1,.13-.29l1.22-1.19a.5.5,0,0,1,.68,0l.92.92a.51.51,0,0,1,0,.68l-1.18,1.21a.43.43,0,0,1-.3.13.4.4,0,0,1-.29-.12Z" fill="#ffe35a"/><path d="M52.78,15.19c.89-.79,2-1.74,2-1.74A1,1,0,0,0,55,12c-.4-.36-1.89-.92-2.45-.57,0,0-1.15.73-2.09,1.38l-.12.08c-.18.14.06.56.53.94a13.5,13.5,0,0,0,1.89,1.39Z" fill="#ffde17"/><path d="M51.21,13.19c.84-.56,1.7-1.11,1.7-1.11a3,3,0,0,1,1.55.49.4.4,0,0,1-.17.31l-1.65,1.44L51.3,13.27Z" fill="#ffe35a"/><path d="M52.72,15.24c-.08.07.22.47.67.89l.4.4.41.41c.41.44.81.74.89.66l0-.06,1.73-2A1.23,1.23,0,0,0,57,14l-.33-.34-.34-.33a1.22,1.22,0,0,0-1.57.15s-1.11,1-2,1.74Z" fill="#ffde17"/><path d="M53.91,15.6l-.22-.22L55.26,14a.63.63,0,0,1,.58-.17l.66.66a.71.71,0,0,1-.19.56s-.68.79-1.37,1.57l-.08-.08Z" fill="#ffe35a"/><path d="M53.39,16.13a1.21,1.21,0,0,0-1.62,0c-.44.41-1.78,2.43-1.31,2.88l.43.43.44.43a1.13,1.13,0,0,0,1.64,0l1.24-1.31a1.21,1.21,0,0,0,0-1.61l-.41-.41Z" fill="#ffde17"/><path d="M51.12,18.6a6.3,6.3,0,0,1,1.16-1.94.47.47,0,0,1,.6,0l.79.79a.45.45,0,0,1,0,.58l-1.23,1.3a.41.41,0,0,1-.29.13.36.36,0,0,1-.26-.11Z" fill="#ffe35a"/><path d="M44.41,28.66a1.25,1.25,0,0,0,0,1.72l1,1.12a1.09,1.09,0,0,0,1.62,0l1.14-1.21a1.37,1.37,0,0,0,0-1.78l-1-1.07a1.12,1.12,0,0,0-1.64,0Z" fill="#ffde17"/><path d="M44.94,29.88a.52.52,0,0,1,0-.7L46.13,28a.34.34,0,0,1,.28-.12.35.35,0,0,1,.27.11l1,1.08a.62.62,0,0,1,0,.77L46.48,31a.32.32,0,0,1-.25.12A.35.35,0,0,1,46,31Z" fill="#ffe35a"/><path d="M15.42,62.86a.85.85,0,0,0,.05,1.43l1.32.83a2.15,2.15,0,0,0,2-.11l1.51-1.08a.68.68,0,0,0-.1-1.26l-1.55-1a1.69,1.69,0,0,0-1.9.08Z" fill="#ffde17"/><path d="M15.84,63.63s0-.06,0-.07a.2.2,0,0,1,.09-.11l1.35-1.1a.94.94,0,0,1,1,0l1.58,1,.05,0-1.5,1.07a1.39,1.39,0,0,1-1.24.06l-1.28-.8Z" fill="#ffe35a"/><path d="M10.07,66.66a4.68,4.68,0,0,1-5.64-.77c2.26,2.26,5,3.58,7.77,2.91a4.49,4.49,0,0,0,.79-.27c.6-.29.65-.78.12-1.09s-2.36-1.16-2.77-.91Z" fill="#ffde17"/><path d="M8.75,67.88a7.59,7.59,0,0,0,1.63-.54l.22-.11a7.81,7.81,0,0,1,1.87.71,4.36,4.36,0,0,1-.45.13A5.63,5.63,0,0,1,8.75,67.88Z" fill="#ffe35a"/><path d="M12.07,65.39a.78.78,0,0,0,0,1.37s.51.37,1,.68a2.21,2.21,0,0,0,2,0l1.73-1.06a.65.65,0,0,0-.05-1.22l-1.32-.83a1.76,1.76,0,0,0-1.94,0Z" fill="#ffde17"/><path d="M12.42,66.07,12.5,66,14,64.93a1,1,0,0,1,1.08,0l1.33.85-1.66,1a1.51,1.51,0,0,1-1.23,0,10.72,10.72,0,0,1-1-.65l-.07-.05S12.42,66.08,12.42,66.07Z" fill="#ffe35a"/><path d="M18.61,60.24a.87.87,0,0,0,.07,1.45l1.55,1a2,2,0,0,0,2-.19l1.32-1.06a.74.74,0,0,0-.15-1.32L21.77,59a1.58,1.58,0,0,0-1.87.1Z" fill="#ffde17"/><path d="M19.05,61S19,61,19,61s0-.08.1-.14l1.28-1.11a.86.86,0,0,1,1-.05L23,60.73l.13.07-.06.05-1.31,1a1.29,1.29,0,0,1-1.19.1l-1.5-.94Z" fill="#ffe35a"/><path d="M24.54,54.69a1,1,0,0,0,.11,1.56s1,.76,1.55,1.09a1.65,1.65,0,0,0,1.88-.25l1-1a.94.94,0,0,0-.14-1.5c-.54-.36-2.8-1.5-3.26-1Z" fill="#ffde17"/><path d="M25.05,55.62a.26.26,0,0,1,0-.4l1.05-1.06a8.11,8.11,0,0,1,2.43,1h0c.15.15.09.27,0,.34l-1,1a.89.89,0,0,1-1,.13c-.44-.25-1.21-.83-1.48-1Z" fill="#ffe35a"/><path d="M21.85,57.36l-.25.26A.89.89,0,0,0,21.77,59l1.64,1.06c.59.3,1.18.45,1.31.32l.1-.09,1.57-1.55a.87.87,0,0,0-.19-1.44c-.57-.33-2.89-1.42-3.35-1Z" fill="#ffde17"/><path d="M22.14,58.38a.25.25,0,0,1-.08-.14.09.09,0,0,1,0-.07L23.27,57a8.85,8.85,0,0,1,2.56,1l.07.06a.09.09,0,0,1,0,.07.23.23,0,0,1-.08.14s-.74.74-1.46,1.44a2.78,2.78,0,0,1-.64-.25l-1.58-1Z" fill="#ffe35a"/><path d="M5.8,62.39l.13-.18c.23-.26.08-.86-.32-1.32S4,59.57,3.79,60l-.13.28a4.66,4.66,0,0,0,.77,5.63C4,65.44,4.29,64.31,5.8,62.39Z" fill="#ffde17"/><path d="M4,63.78a4.3,4.3,0,0,1,.29-3A3.33,3.33,0,0,1,5,61.3l.08.08a1,1,0,0,1,.24.45l-.08.1A11.88,11.88,0,0,0,4,63.78Z" fill="#ffe35a"/><path d="M6,56.79a1.77,1.77,0,0,0,0-1.94L5.2,53.53a.65.65,0,0,0-1.22,0L2.92,55.22a2.19,2.19,0,0,0,0,2c.31.53,1.68,1.58,2.05,1Z" fill="#ffde17"/><path d="M3.71,57.05a.87.87,0,0,1-.18-.22,1.43,1.43,0,0,1,0-1.24l1-1.65.83,1.31a1.06,1.06,0,0,1,0,1.09l-.92,1.27a2.94,2.94,0,0,1-.77-.56Z" fill="#ffe35a"/><path d="M3.66,60.26,3.79,60a1.77,1.77,0,0,0-.23-1.73s-.37-.51-.68-1-.8-.47-1.08.12a4.49,4.49,0,0,0-.27.79c-.68,2.75.64,5.51,2.9,7.77A4.66,4.66,0,0,1,3.66,60.26Z" fill="#ffde17"/><path d="M2.44,61.57a5.72,5.72,0,0,1-.19-3.27c0-.19.1-.34.14-.46.29.47.55.83.57.85a1.14,1.14,0,0,1,.19.9l0,.08L3,59.94A7.12,7.12,0,0,0,2.44,61.57Z" fill="#ffe35a"/><path d="M10.07,66.66l.27-.13c.41-.25.38-.75-.07-1.12s-1.89-1.25-2.16-1l-.18.14c-1.92,1.5-3,1.81-3.5,1.36A4.68,4.68,0,0,0,10.07,66.66Z" fill="#ffde17"/><path d="M6.55,66.35a12.72,12.72,0,0,0,1.81-1.21A7.5,7.5,0,0,1,9.77,66l0,0A4.39,4.39,0,0,1,6.55,66.35Z" fill="#ffe35a"/><path d="M7.93,64.53l.18-.14c.27-.23.14-.74-.28-1.13l-.38-.38-.39-.39c-.39-.42-.9-.54-1.13-.28l-.13.18c-1.51,1.92-1.82,3-1.37,3.5S6,66,7.93,64.53Z" fill="#ffde17"/><path d="M5,65.34c0-.22.17-.93,1.38-2.47a1.1,1.1,0,0,1,.12.11l.82.81a1.53,1.53,0,0,1,.14.17A5.57,5.57,0,0,1,5,65.34Z" fill="#ffe35a"/><path d="M27.38,51.83a1.06,1.06,0,0,0,.09,1.6s1,.77,1.49,1.13a1.51,1.51,0,0,0,1.82-.21l1-1a1,1,0,0,0-.09-1.55c-.52-.39-2.71-1.56-3.17-1.09Z" fill="#ffde17"/><path d="M27.9,52.82a.31.31,0,0,1,0-.46l1-1a7.35,7.35,0,0,1,2.3,1h0a.28.28,0,0,1,0,.43l-1,1a.77.77,0,0,1-.88.1c-.5-.33-1.42-1.07-1.43-1.08Z" fill="#ffe35a"/><path d="M38.65,40.29a1.24,1.24,0,0,0,0,1.72l1.2,1.24a1.1,1.1,0,0,0,1.62,0l1-1.09a1.34,1.34,0,0,0,.06-1.75c-.41-.48-2.3-1.75-2.76-1.27Z" fill="#ffde17"/><path d="M40.39,42.74l-1.2-1.25a.51.51,0,0,1,0-.68l1-1.05A5.41,5.41,0,0,1,42,40.83a.61.61,0,0,1,0,.79l-1,1.09a.42.42,0,0,1-.28.14.33.33,0,0,1-.24-.1Z" fill="#ffe35a"/><path d="M47,31.53A1.38,1.38,0,0,0,47,33.32s.61.73,1,1.25a.93.93,0,0,0,1.49,0l1-1.15a1.58,1.58,0,0,0,.15-1.85c-.36-.53-2-1.78-2.48-1.3Z" fill="#ffde17"/><path d="M48.56,34.13c-.39-.53-1-1.26-1-1.29a.65.65,0,0,1,0-.8l1-1.06a4.25,4.25,0,0,1,1.33.9A.94.94,0,0,1,50,32,.82.82,0,0,1,50,33l-1.06,1.16a.27.27,0,0,1-.18.11.17.17,0,0,1-.12-.06Z" fill="#ffe35a"/><path d="M49.8,28.57a1.43,1.43,0,0,0-.07,1.81s.56.71.92,1.24a.88.88,0,0,0,1.45.07l1.06-1.2a1.64,1.64,0,0,0,.17-1.86c-.34-.54-1.94-1.76-2.39-1.28Z" fill="#ffde17"/><path d="M51.27,31.2c-.37-.55-.94-1.25-1-1.28a.69.69,0,0,1,0-.84l1-1.07a3.85,3.85,0,0,1,1.19.83.7.7,0,0,1,.17.19.89.89,0,0,1-.1,1l-1.06,1.19a.24.24,0,0,1-.16.1.11.11,0,0,1-.07,0Z" fill="#ffe35a"/><path d="M52.56,25.59a1.5,1.5,0,0,0-.08,1.84s.51.66.85,1.2a.84.84,0,0,0,1.41.07l1.07-1.24A1.71,1.71,0,0,0,56,25.58c-.33-.54-1.85-1.72-2.29-1.23Z" fill="#ffde17"/><path d="M54,28.28l0-.06c-.36-.55-.87-1.22-.89-1.25a.74.74,0,0,1,0-.87l1-1.09a3.55,3.55,0,0,1,1.07.74,1.63,1.63,0,0,1,.19.22,1,1,0,0,1-.12,1l-1.06,1.23a.26.26,0,0,1-.14.09Z" fill="#ffe35a"/><path d="M57.87,21.32a.86.86,0,0,0-1.43-.09c-.4.48-1.62,2.66-1.24,3.2,0,0,.46.61.79,1.15a.79.79,0,0,0,1.36.05l1.08-1.35a1.82,1.82,0,0,0,.15-1.9C58.26,21.86,57.87,21.32,57.87,21.32Z" fill="#ffde17"/><path d="M56.67,25.24a.11.11,0,0,1,0,0c-.27-.44-.61-.91-.76-1.11A7.54,7.54,0,0,1,57,21.7a.22.22,0,0,1,.1-.07.16.16,0,0,1,.1.07.12.12,0,0,1,0,.05s.38.53.68,1a1.09,1.09,0,0,1-.11,1.06l-1.07,1.33a.29.29,0,0,1-.1.09Z" fill="#ffe35a"/><path d="M33,46.08a1.15,1.15,0,0,0,0,1.66s.85.79,1.34,1.2a1.29,1.29,0,0,0,1.72-.11l1-1.06a1.17,1.17,0,0,0,0-1.66c-.47-.44-2.51-1.67-3-1.2Z" fill="#ffde17"/><path d="M33.57,47.18a.41.41,0,0,1,0-.58l1-1.05a6.36,6.36,0,0,1,2,1.1h0a.42.42,0,0,1,0,.6l-1,1.06a.54.54,0,0,1-.7.06c-.48-.41-1.32-1.17-1.32-1.18Z" fill="#ffe35a"/><path d="M35.84,43.19a1.2,1.2,0,0,0,0,1.69s.8.79,1.27,1.23A1.19,1.19,0,0,0,38.8,46l1-1.08a1.25,1.25,0,0,0,0-1.71c-.44-.46-2.41-1.71-2.86-1.24Z" fill="#ffde17"/><path d="M36.38,44.34a.45.45,0,0,1,0-.63l1-1.05a5.78,5.78,0,0,1,1.91,1.1.52.52,0,0,1,0,.69l-1,1.07a.43.43,0,0,1-.61,0c-.46-.43-1.26-1.21-1.26-1.21Z" fill="#ffe35a"/><path d="M44.24,34.46a1.35,1.35,0,0,0,0,1.77s.66.75,1.06,1.26a1,1,0,0,0,1.53,0l1-1.13A1.51,1.51,0,0,0,48,34.57c-.38-.52-2.13-1.78-2.58-1.31Z" fill="#ffde17"/><path d="M45.84,37c-.4-.51-1.08-1.28-1.08-1.28a.59.59,0,0,1,0-.76l1-1.06a4.86,4.86,0,0,1,1.47,1,.53.53,0,0,1,.1.12.74.74,0,0,1-.07.87l-1,1.13a.31.31,0,0,1-.21.12.23.23,0,0,1-.16-.08Z" fill="#ffe35a"/><path d="M30.21,49a1.1,1.1,0,0,0,.07,1.63s.9.78,1.42,1.17a1.38,1.38,0,0,0,1.76-.16l1-1.05a1.1,1.1,0,0,0-.06-1.61c-.49-.41-2.6-1.62-3.06-1.15Z" fill="#ffde17"/><path d="M30.74,50a.36.36,0,0,1,0-.52l1-1a6.69,6.69,0,0,1,2.17,1.08h0a.35.35,0,0,1,0,.52l-1,1a.65.65,0,0,1-.79.08c-.48-.37-1.36-1.12-1.37-1.13Z" fill="#ffe35a"/><path d="M41.45,37.38a1.29,1.29,0,0,0,0,1.75s.71.77,1.12,1.25a1,1,0,0,0,1.58,0l1-1.11a1.43,1.43,0,0,0,.1-1.79c-.4-.51-2.22-1.77-2.67-1.3Z" fill="#ffde17"/><path d="M43.12,39.89C42.7,39.4,42,38.62,42,38.62a.54.54,0,0,1,0-.72l1-1a4.9,4.9,0,0,1,1.61,1,.23.23,0,0,1,.07.07.68.68,0,0,1-.05.82l-1,1.11a.37.37,0,0,1-.24.12.3.3,0,0,1-.2-.08Z" fill="#ffe35a"/><path d="M8.55,53.55a1.69,1.69,0,0,0,.08-1.91l-1-1.55A.69.69,0,0,0,6.4,50L5.32,51.5a2.13,2.13,0,0,0-.12,2L6,54.85a.83.83,0,0,0,1.42,0Z" fill="#ffde17"/><path d="M6.65,54.43l-.81-1.29a1.37,1.37,0,0,1,.09-1.21L7,50.43,8,52a1,1,0,0,1,0,1L6.88,54.43c-.06.08-.11.1-.12.1l-.06,0Z" fill="#ffe35a"/><path d="M50.42,12.83c.94-.65,2.09-1.38,2.09-1.38a.74.74,0,0,0,.15-1.29,4.17,4.17,0,0,0-2.74-.61s-1,.45-1.86.92l-.26.14c-.45.31-.38.82.14,1.14s2.18,1.3,2.36,1.16Z" fill="#ffde17"/><path d="M48.41,11.13c.87-.46,1.82-.91,1.83-.91a4.16,4.16,0,0,1,2,.53.35.35,0,0,1-.09.07s-1,.67-2,1.29a18.87,18.87,0,0,1-1.75-1Z" fill="#ffe35a"/><path d="M54.58,10.26c-.58.3-.74.81-.34,1.14s1.86.93,2.37.52c0,0,4-3.2,4.49-2.7C59.56,7.68,54.58,10.26,54.58,10.26Z" fill="#ffde17"/><path d="M54.93,10.92a15.47,15.47,0,0,1,3.51-1.3c-.63.42-1.38,1-2.29,1.72a3.34,3.34,0,0,1-1.26-.4Z" fill="#ffe35a"/><path d="M56.61,11.92c-.51.41-.63,1-.26,1.38l.34.33L57,14c.35.37,1,.25,1.38-.26,0,0,3.2-4,2.7-4.49S56.61,11.92,56.61,11.92Z" fill="#ffde17"/><path d="M56.88,12.77a.56.56,0,0,1,.2-.27c.89-.71,1.93-1.47,2.72-2-.51.8-1.27,1.83-2,2.72a.53.53,0,0,1-.27.2Z" fill="#ffe35a"/><path d="M61.1,9.22c-2.71-2.7-9-.57-9-.57-.62.21-.76.63-.31.92s2.18,1,2.76.69C54.58,10.26,59.56,7.68,61.1,9.22Z" fill="#ffde17"/><path d="M52.79,9.22a16.26,16.26,0,0,1,3.73-.61,20.23,20.23,0,0,0-2.28,1A3.78,3.78,0,0,1,52.79,9.22Z" fill="#ffe35a"/><path d="M50.12,22.8a1.3,1.3,0,0,0,0,1.75l.88,1a1,1,0,0,0,1.58,0l1.14-1.24a1.43,1.43,0,0,0,.06-1.79c-.41-.49-2-1.45-2.45-1Z" fill="#ffde17"/><path d="M50.66,24.05a.55.55,0,0,1,0-.73l1.08-1.11a3.43,3.43,0,0,1,1.4.78.68.68,0,0,1,0,.86L52,25.09a.29.29,0,0,1-.22.11.28.28,0,0,1-.21-.1Z" fill="#ffe35a"/><path d="M49.1,13.88A.86.86,0,0,0,49,12.46s-.54-.4-1.07-.71a1.82,1.82,0,0,0-1.9.15L44.7,13a.8.8,0,0,0,0,1.35C46.89,16.09,48.61,14.28,49.1,13.88Z" fill="#ffde17"/><path d="M45.17,13.71a.41.41,0,0,1-.08-.1s0,0,.08-.06l1.34-1.07a1.11,1.11,0,0,1,1.05-.1c.49.3,1,.67,1,.68l.06,0a.24.24,0,0,1,.06.11s0,0-.07.09l-.15.13c-.91.8-1.94,1.39-3.25.31Z" fill="#ffe35a"/><path d="M58.87,17.81a1.56,1.56,0,0,0,.05-1.72c-.32-.4-1.62-1-2.05-.54l-1.73,2,0,.06c-.08.08.22.54.65,1s1.54,1.57,1.67,1.4l.08-.13C58.14,19,58.87,17.81,58.87,17.81Z" fill="#ffde17"/><path d="M56.72,18.58l-.43-.45c-.13-.15-.24-.29-.32-.4.59-.68,1.21-1.39,1.4-1.62a2.13,2.13,0,0,1,1,.44.93.93,0,0,1-.1.86s-.51.8-1.05,1.61C57.06,18.91,56.9,18.76,56.72,18.58Z" fill="#ffe35a"/><path d="M53,19.86a1.3,1.3,0,0,0,0,1.75s.41.46.82.95a1,1,0,0,0,1.53,0s.75-.85,1.15-1.33a1.44,1.44,0,0,0,0-1.74c-.38-.47-1.85-1.38-2.26-.94Z" fill="#ffde17"/><path d="M54.33,22.09c-.42-.51-.84-1-.84-1a.56.56,0,0,1,0-.74l1.12-1.18a3.42,3.42,0,0,1,1.22.72.69.69,0,0,1,0,.84c-.39.48-1.13,1.32-1.13,1.32a.38.38,0,0,1-.21.12.23.23,0,0,1-.16-.08Z" fill="#ffe35a"/><path d="M46,16.63a.94.94,0,0,0-.08-1.51s-.62-.46-1.16-.79a1.73,1.73,0,0,0-1.88.18l-1.23,1.07A.83.83,0,0,0,41.7,17c.53.35,2.55,1.22,3,.77Z" fill="#ffde17"/><path d="M42.05,16.32a.05.05,0,0,1,0,0s0-.07.1-.14l1.23-1.06a1,1,0,0,1,1-.11,11.72,11.72,0,0,1,1.09.75l0,0a.19.19,0,0,1,.08.14.22.22,0,0,1-.09.17L44.3,17.14a6,6,0,0,1-2.2-.77Z" fill="#ffe35a"/><path d="M58.4,13.71a1.35,1.35,0,0,0-.09,1.66c.35.4,1.45,1,1.76.37,0,0,2.57-5,1-6.52C61.6,9.73,58.4,13.71,58.4,13.71Z" fill="#ffde17"/><path d="M58.86,14.87a.64.64,0,0,1,.13-.69c.73-.92,1.29-1.67,1.72-2.3a15.74,15.74,0,0,1-1.22,3.35,1.57,1.57,0,0,1-.61-.35Z" fill="#ffe35a"/><path d="M57.49,19.9l-.08.13c-.13.17.07.75.46,1.29,0,0,.39.54.71,1.06s.83.59,1.14.15l.13-.27c.47-.89.93-1.85.93-1.85a2.19,2.19,0,0,0,0-1.91c-.3-.45-1.52-1.24-1.88-.69C58.87,17.81,58.14,19,57.49,19.9Z" fill="#ffde17"/><path d="M59.18,21.94c-.32-.53-.7-1-.71-1.06a2.7,2.7,0,0,1-.33-.6c.49-.71,1-1.53,1.24-1.88a2,2,0,0,1,.68.44l.07.07a1.51,1.51,0,0,1,0,1.18s-.45.95-.91,1.83Z" fill="#ffe35a"/><path d="M60.07,15.74a2,2,0,0,0,.09,1.93c.36.47,1.3,1.15,1.51.52,0,0,2.14-6.26-.57-9C62.64,10.77,60.07,15.74,60.07,15.74Z" fill="#ffde17"/><path d="M60.88,17.36a.75.75,0,0,1-.12-.14,1.25,1.25,0,0,1,0-1.14,18.58,18.58,0,0,0,1-2.29,16.5,16.5,0,0,1-.62,3.76C61,17.5,61,17.43,60.88,17.36Z" fill="#ffe35a"/><path d="M28.31,33.34a1.17,1.17,0,0,0,0-1.67l-1.24-1.2a1.27,1.27,0,0,0-1.71,0l-1.07,1a1.18,1.18,0,0,0-.07,1.67c.44.46,2.44,1.75,2.91,1.29Z" fill="#ffde17"/><path d="M24.76,32.67a.43.43,0,0,1,0-.61l1.07-1a.52.52,0,0,1,.69,0l1.23,1.19h0a.39.39,0,0,1,.13.3.41.41,0,0,1-.13.29l-1.05,1a5.81,5.81,0,0,1-2-1.14Z" fill="#ffe35a"/><path d="M22.53,39a1.25,1.25,0,0,0,0-1.72s-.78-.86-1.2-1.35a1.09,1.09,0,0,0-1.61,0l-1,1a1.37,1.37,0,0,0-.16,1.77c.38.51,2.32,1.94,2.79,1.48Z" fill="#ffde17"/><path d="M19.26,38.28a.94.94,0,0,1-.1-.1.64.64,0,0,1,.08-.78l1.05-1a.36.36,0,0,1,.5,0c.45.52,1.24,1.39,1.24,1.39a.51.51,0,0,1,0,.68l-1,1a5.43,5.43,0,0,1-1.73-1.15Z" fill="#ffe35a"/><path d="M25.42,36.15a1.2,1.2,0,0,0,0-1.69l-1.22-1.27a1.17,1.17,0,0,0-1.66,0l-1.06,1a1.27,1.27,0,0,0-.12,1.71c.42.49,2.39,1.85,2.86,1.39Z" fill="#ffde17"/><path d="M22,35.42a.52.52,0,0,1,.06-.69l1.06-1a.44.44,0,0,1,.6,0L24.91,35a.48.48,0,0,1,0,.64l-1,1A5.83,5.83,0,0,1,22,35.46Z" fill="#ffe35a"/><path d="M19.66,41.79A1.3,1.3,0,0,0,19.73,40s-.78-.9-1.16-1.41a1,1,0,0,0-1.56-.1l-1,1a1.5,1.5,0,0,0-.2,1.82c.35.54,2.25,2,2.72,1.58Z" fill="#ffde17"/><path d="M16.57,41.15a1.13,1.13,0,0,1-.18-.2.76.76,0,0,1,.1-.87l1-1a.28.28,0,0,1,.41,0c.43.57,1.19,1.46,1.23,1.5a.56.56,0,0,1,0,.73l-1,1a5.43,5.43,0,0,1-1.56-1.1Z" fill="#ffe35a"/><path d="M16.79,44.63a1.37,1.37,0,0,0,.1-1.78s-.77-1-1.12-1.49a.94.94,0,0,0-1.5-.14l-1,1A1.62,1.62,0,0,0,13,44.12c.33.57,2.18,2.13,2.64,1.66Z" fill="#ffde17"/><path d="M13.92,44.08a2.62,2.62,0,0,1-.29-.33.92.92,0,0,1,.13-1l1-1c.08-.08.2-.14.31,0,.42.62,1.18,1.56,1.21,1.6a.63.63,0,0,1,0,.78l-1,1a5,5,0,0,1-1.36-1Z" fill="#ffe35a"/><path d="M13,48.47l1-1a1.43,1.43,0,0,0,.13-1.81s-.75-1-1.08-1.55a.87.87,0,0,0-1.45-.18s-.81.81-1.54,1.56l-.1.1c-.12.14,0,.73.32,1.31l1.06,1.64a.88.88,0,0,0,1.42.18Z" fill="#ffde17"/><path d="M12,48.19l-.06-.07-1-1.61a3,3,0,0,1-.22-.59l1.44-1.46a.23.23,0,0,1,.14-.08.1.1,0,0,1,.08,0,.56.56,0,0,1,.05.08c.35.6,1.1,1.58,1.14,1.63a.68.68,0,0,1-.07.82L12.17,48.2s-.06.07-.08.07a.23.23,0,0,1-.14-.08Z" fill="#ffe35a"/><path d="M40,22.16a1,1,0,0,0-.07-1.56s-.71-.57-1.24-.93a1.57,1.57,0,0,0-1.84.16L35.7,20.88a.92.92,0,0,0,.06,1.49c.51.37,2.56,1.38,3,.93Z" fill="#ffde17"/><path d="M36.15,21.73a.17.17,0,0,1,0-.12.28.28,0,0,1,.1-.18l1.16-1.05a.82.82,0,0,1,.92-.09c.5.34,1.19.88,1.19.89l0,0a.26.26,0,0,1,.11.21.27.27,0,0,1-.11.2l-1.11,1.06a6.28,6.28,0,0,1-2.19-.91Z" fill="#ffe35a"/><path d="M37.06,24.94A1,1,0,0,0,37,23.36s-.74-.62-1.25-1a1.52,1.52,0,0,0-1.83.12l-1.13,1a1,1,0,0,0,0,1.54c.5.39,2.55,1.47,3,1Z" fill="#ffde17"/><path d="M33.27,24.45a.21.21,0,0,1-.07-.16.31.31,0,0,1,.11-.21l1.13-1a.77.77,0,0,1,.88-.07c.49.36,1.2,1,1.21,1h0a.32.32,0,0,1,.12.23.33.33,0,0,1-.11.23l-1.1,1.05a6.36,6.36,0,0,1-2.15-1Z" fill="#ffe35a"/><path d="M43,19.38a1,1,0,0,0-.07-1.53s-.67-.51-1.2-.86a1.65,1.65,0,0,0-1.87.17l-1.19,1.06a.88.88,0,0,0,.06,1.45c.53.36,2.57,1.3,3,.85Z" fill="#ffde17"/><path d="M39.07,19a.11.11,0,0,1,0-.08.24.24,0,0,1,.1-.16l1.19-1.06a.91.91,0,0,1,1-.1,13.71,13.71,0,0,1,1.15.82l0,0a.22.22,0,0,1,.1.18.3.3,0,0,1-.1.19L41.33,19.9a6.54,6.54,0,0,1-2.21-.84Z" fill="#ffe35a"/><path d="M31.22,30.53a1.12,1.12,0,0,0,0-1.64s-.78-.71-1.26-1.12a1.34,1.34,0,0,0-1.75.06l-1.09,1a1.1,1.1,0,0,0,0,1.61c.46.44,2.49,1.66,3,1.2Z" fill="#ffde17"/><path d="M27.57,29.93a.34.34,0,0,1-.09-.24.41.41,0,0,1,.13-.29l1.09-1a.62.62,0,0,1,.75,0c.48.41,1.24,1.11,1.24,1.11h0a.41.41,0,0,1,.13.29.37.37,0,0,1-.12.27l-1.07,1a6.34,6.34,0,0,1-2.05-1.09Z" fill="#ffe35a"/><path d="M34.13,27.73a1.07,1.07,0,0,0,0-1.61s-.75-.66-1.25-1.05a1.42,1.42,0,0,0-1.79.09l-1.11,1a1,1,0,0,0,0,1.58c.48.41,2.53,1.56,3,1.11Z" fill="#ffde17"/><path d="M30.41,27.18a.25.25,0,0,1-.09-.19.34.34,0,0,1,.13-.25l1.11-1a.68.68,0,0,1,.82-.06c.49.39,1.22,1,1.22,1h0a.39.39,0,0,1,.12.26.37.37,0,0,1-.11.25l-1.09,1a6,6,0,0,1-2.1-1Z" fill="#ffe35a"/><path d="M11.18,50.43a1.59,1.59,0,0,0,.1-1.88l-1.06-1.64a.74.74,0,0,0-1.32-.15L7.84,48.09a2,2,0,0,0-.18,2l1,1.55a.87.87,0,0,0,1.45.07Z" fill="#ffde17"/><path d="M9.24,51.21l-1-1.52a1.29,1.29,0,0,1,.14-1.15l1.05-1.31.06,0s0,0,0,.07L10.66,49a.86.86,0,0,1,0,1l-1.1,1.29c-.06.07-.11.1-.14.1a.11.11,0,0,1-.09,0Z" fill="#ffe35a"/><path d="M4.82,49.72C-2.91,56,.42,64.78,2.76,65.2,3.14,61.84,15,44.54,19.4,34.4,13.89,40.89,8.62,46.61,4.82,49.72Z" fill="#88c836"/><path d="M3.58,65l-.05,0a.89.89,0,0,1-.77.21.62.62,0,0,0,.08.48,2.46,2.46,0,0,0,.82.66A2,2,0,0,1,3.58,65Z" fill="#a7ce33"/><path d="M36.75.63S19.88,21.69,21,28.32c.21,1.3-.42,3.45-1.56,6.08,2.54-3,5.13-6.14,7.66-9.28Z" fill="#a7ce33"/><path d="M13,57A171.12,171.12,0,0,0,21.25,39.7C17.41,45.68,11.06,55.41,6.86,61A49,49,0,0,1,13,57Z" fill="#a7ce33"/><path d="M3.53,65l.05,0C3.9,63.76,5.1,62.42,6.86,61c4.2-5.62,10.55-15.35,14.39-21.33.74-1.75,1.16-2.84,1.16-2.84l4.65-11.74c-2.53,3.14-5.12,6.29-7.66,9.28C15,44.54,3.14,61.84,2.76,65.2A.89.89,0,0,0,3.53,65Z" fill="#a7ce33"/><path d="M20.28,65.18c3.11-3.8,8.83-9.07,15.32-14.58C25.46,55,8.17,66.86,4.8,67.24,5.22,69.58,14,72.91,20.28,65.18Z" fill="#88c836"/><path d="M30.3,48.75A171.12,171.12,0,0,0,13,57a49,49,0,0,1-4,6.1C14.59,58.94,24.32,52.59,30.3,48.75Z" fill="#a7ce33"/><path d="M5,66.47l0,0a2,2,0,0,1-1.39-.08,2.49,2.49,0,0,0,.66.83.62.62,0,0,0,.48.07A.89.89,0,0,1,5,66.47Z" fill="#a7ce33"/><path d="M44.88,42.94c-3.14,2.53-6.29,5.12-9.28,7.66,2.63-1.14,4.78-1.77,6.08-1.56,6.63,1.08,27.69-15.79,27.69-15.79Z" fill="#a7ce33"/><path d="M5.05,66.42A32.19,32.19,0,0,1,9,63.14,49,49,0,0,0,13,57a49,49,0,0,0-6.1,4A32.19,32.19,0,0,1,3.58,65a2,2,0,0,0,.08,1.39A2,2,0,0,0,5.05,66.42Z" fill="#a7ce33"/><path d="M3.58,65A32.19,32.19,0,0,0,6.86,61C5.1,62.42,3.9,63.76,3.58,65Z" fill="#a7ce33"/><path d="M33.14,47.59s-1.09.42-2.84,1.16C24.32,52.59,14.59,58.94,9,63.14c-1.39,1.76-2.73,3-3.92,3.28l0,0a.89.89,0,0,0-.21.77C8.17,66.86,25.46,55,35.6,50.6c3-2.54,6.14-5.13,9.28-7.66Z" fill="#a7ce33"/><path d="M5.05,66.42C6.24,66.11,7.58,64.9,9,63.14A32.19,32.19,0,0,0,5.05,66.42Z" fill="#a7ce33"/><g opacity="0.53"><path d="M50.45,15.8a.91.91,0,1,1,0-1.28A.89.89,0,0,1,50.45,15.8Z" fill="#fff"/></g><g opacity="0.53"><path d="M47.45,13.36a.64.64,0,1,1,0-.9A.63.63,0,0,1,47.45,13.36Z" fill="#fff"/></g><g opacity="0.53"><path d="M47.24,18a.6.6,0,1,1,0-.85A.59.59,0,0,1,47.24,18Z" fill="#fff"/></g><g opacity="0.53"><path d="M44.47,15.9a.59.59,0,0,1-.85,0,.6.6,0,0,1,.85-.85A.59.59,0,0,1,44.47,15.9Z" fill="#fff"/></g><g opacity="0.53"><path d="M44.29,20.64a.6.6,0,1,1,0-.84A.59.59,0,0,1,44.29,20.64Z" fill="#fff"/></g><g opacity="0.53"><path d="M41.52,18.54a.6.6,0,1,1,0-.85A.61.61,0,0,1,41.52,18.54Z" fill="#fff"/></g><g opacity="0.53"><path d="M41.34,23.28a.6.6,0,1,1,0-.85A.61.61,0,0,1,41.34,23.28Z" fill="#fff"/></g><g opacity="0.53"><circle cx="38.15" cy="20.75" r="0.6" fill="#fff"/></g><g opacity="0.53"><path d="M38.39,25.91a.59.59,0,0,1-.85,0,.6.6,0,1,1,.85,0Z" fill="#fff"/></g><g opacity="0.53"><path d="M35.62,23.81a.6.6,0,0,1-.85-.85.59.59,0,0,1,.85,0A.61.61,0,0,1,35.62,23.81Z" fill="#fff"/></g><g opacity="0.53"><path d="M51.2,11.25a.67.67,0,1,1,0-.95A.68.68,0,0,1,51.2,11.25Z" fill="#fff"/></g><g opacity="0.53"><path d="M57.14,10.75a.68.68,0,0,1-1,0,.66.66,0,0,1,0-.94.68.68,0,0,1,1,0A.66.66,0,0,1,57.14,10.75Z" fill="#fff"/></g><g opacity="0.53"><path d="M55.12,9.38a.67.67,0,1,1,0-1A.68.68,0,0,1,55.12,9.38Z" fill="#fff"/></g><g opacity="0.53"><path d="M53.58,13.08a.66.66,0,0,1-.94,0,.68.68,0,0,1,0-.95.66.66,0,0,1,.94,0A.68.68,0,0,1,53.58,13.08Z" fill="#fff"/></g></g></g></svg>