<svg xmlns="http://www.w3.org/2000/svg" viewBox="0 0 70 70.03"><g id="ba2ae24e-177e-4152-8702-f69062ed0c02" data-name="Layer 2"><g id="ab995c39-e1c3-4262-a8f0-018af6026851" data-name="—ÎÓÈ_1"><path d="M66.82,3c-4.21-4.22-11.71-3.67-17,1.25l-43.65,40C-.75,50.74-1.92,60.71,3.59,66.21l.1.1L66.9,3.1Z" fill="#79ba2d"/><path d="M66.9,3.1,66.82,3c-4.21-4.22-11.71-3.67-17,1.25l-43.65,40C-.75,50.74-1.92,60.71,3.59,66.21l.1.1Z" fill="#80c612"/><path d="M.25,55.72s0,.18,0,.49a8.25,8.25,0,0,0,0,1.31A14.75,14.75,0,0,0,1,61.35a15.36,15.36,0,0,0,.87,1.87c.27.61.64,1.1.88,1.57s.56.8.72,1.08l.27.42,0,0a3.5,3.5,0,0,1-.4-.31,9.31,9.31,0,0,1-1-.92,8.1,8.1,0,0,1-1.06-1.57,10.27,10.27,0,0,1-.77-2,13.85,13.85,0,0,1-.46-4,11.33,11.33,0,0,1,.11-1.31c0-.32.06-.5.06-.5Z" fill="#d0ff85"/><path d="M55.52.85,56,.67A13,13,0,0,1,57.36.29,12.33,12.33,0,0,1,61.6.11a8.94,8.94,0,0,1,1.15.21,7.17,7.17,0,0,1,1.08.34,5.38,5.38,0,0,1,1,.48,4.66,4.66,0,0,1,.78.54,5.7,5.7,0,0,1,1,1,3.16,3.16,0,0,1,.33.41l0,0-.45-.29a8.5,8.5,0,0,0-1.15-.72,6.49,6.49,0,0,0-.79-.42,7.72,7.72,0,0,0-.92-.4,7.26,7.26,0,0,0-1-.38A6.5,6.5,0,0,0,61.51.63,12.82,12.82,0,0,0,57.4.52a13.66,13.66,0,0,0-1.35.26l-.51.13Z" fill="#d0ff85"/><path d="M3.69,66.31l0-.07C.91,63.49,9,51,12.48,47.77L52.55,9.5C55.2,7,64.75,1,66.86,3.07Z" fill="#6fb617"/><path d="M56.34,6.64a36.25,36.25,0,0,1,4.94-3,16.33,16.33,0,0,1,2-.87,6.4,6.4,0,0,1,1.88-.34,2.64,2.64,0,0,1,1.36.3,1.35,1.35,0,0,1,.39.35l0,0a2.14,2.14,0,0,0-.44-.19,2.88,2.88,0,0,0-1.21,0,13.71,13.71,0,0,0-1.72.47c-.63.2-1.3.43-2,.7a47.15,47.15,0,0,0-5.12,2.61Z" fill="#d0ff85"/><path d="M7,55.1s-.35.68-.89,1.69A38.48,38.48,0,0,0,4.38,60.6a21.06,21.06,0,0,0-.65,2.11,11.5,11.5,0,0,0-.36,1.83,2.82,2.82,0,0,0,.13,1.28,2.28,2.28,0,0,1,.22.48l-.06,0s-.12-.1-.36-.39a2.56,2.56,0,0,1-.45-1.39,6.35,6.35,0,0,1,.22-2,15,15,0,0,1,.82-2.13,33.43,33.43,0,0,1,2-3.72c.6-1,1-1.61,1-1.61Z" fill="#d0ff85"/><path d="M3.69,66.31,66.9,3.1Z" fill="#79ba2d"/><path d="M58.71,11.25,62.63,7l1.44-1.55c.49-.48,1-.91,1.37-1.26s.77-.63,1-.82l.41-.29,0,0-.29.41c-.18.26-.47.61-.82,1s-.78.88-1.25,1.36L63,7.38,58.76,11.3Z" fill="#d0ff85"/><path d="M12.35,57.7,8.2,62.18,6.67,63.82c-.51.5-1,1-1.44,1.33s-.81.68-1.09.88l-.43.31,0,0L4,65.86c.2-.27.51-.64.87-1.08s.83-.93,1.33-1.44l1.64-1.53,4.49-4.16Z" fill="#d0ff85"/><path d="M65.72,20.19C70.64,14.9,71.2,7.4,67,3.18L66.9,3.1,3.69,66.31l.1.11c5.51,5.5,15.47,4.33,21.89-2.58Z" fill="#539300"/><path d="M3.69,66.31c2.11,2.11,11.76-3,14.81-6.48L57.84,20.31C61,17.37,68.82,6.69,66.9,3.1Z" fill="#62a502"/><path d="M66.9,3.1a2,2,0,0,1,.45.9l.14-.15Z" fill="#62a502"/><path d="M69.26,13.93a13.32,13.32,0,0,0,.29-1.76,11.73,11.73,0,0,0-.21-3.89,10.55,10.55,0,0,0-.67-1.94,6.79,6.79,0,0,0-.39-.86,5.84,5.84,0,0,0-.39-.75,9.4,9.4,0,0,0-.67-1.1L67,3.2l0,0,.39.32a5.36,5.36,0,0,1,.94,1,3.45,3.45,0,0,1,.51.74,5.31,5.31,0,0,1,.46.89,9.1,9.1,0,0,1,.56,2.11,11.55,11.55,0,0,1-.08,4A12.63,12.63,0,0,1,69.32,14Z" fill="#d0ff85"/><path d="M15.1,69.7a12.5,12.5,0,0,1-1.9.28A13,13,0,0,1,9,69.66a6.85,6.85,0,0,1-1.12-.31,6.13,6.13,0,0,1-1.06-.41c-.32-.18-.64-.34-.93-.51l-.75-.58a6.64,6.64,0,0,1-1-1l-.34-.41,0,0,.45.29c.29.16.63.49,1.14.74.25.14.51.29.78.46l.9.44a7.32,7.32,0,0,0,1,.45,6.77,6.77,0,0,0,1,.39,14,14,0,0,0,4.08.59,14.66,14.66,0,0,0,1.9-.11Z" fill="#d0ff85"/><path d="M14.41,63.4a33.57,33.57,0,0,1-5.06,2.83,15.22,15.22,0,0,1-2,.76,5.9,5.9,0,0,1-1.91.19,2.53,2.53,0,0,1-1.32-.43,2.22,2.22,0,0,1-.37-.36l0,0a2.48,2.48,0,0,0,.43.21,2.89,2.89,0,0,0,1.21.11,10.92,10.92,0,0,0,1.74-.33c.64-.16,1.33-.35,2-.59a41.93,41.93,0,0,0,5.23-2.39Z" fill="#d0ff85"/><path d="M63,14.18A48.56,48.56,0,0,0,65.79,8.8c.29-.7.55-1.4.77-2.07a13.24,13.24,0,0,0,.52-1.81,3,3,0,0,0,0-1.29,2.06,2.06,0,0,0-.19-.46l0,0a1.31,1.31,0,0,1,.37.42A2.81,2.81,0,0,1,67.61,5a7.18,7.18,0,0,1-.4,2A17.43,17.43,0,0,1,66.26,9,37.72,37.72,0,0,1,63,14.22Z" fill="#d0ff85"/><path d="M11.88,58.17,8,62.42,6.52,64c-.49.48-.95.91-1.37,1.25s-.76.64-1,.83l-.41.29,0,0L4,65.88c.19-.26.48-.61.82-1S5.56,64,6,63.49L7.59,62l4.25-3.92Z" fill="#d0ff85"/><path d="M58.24,11.72,62.4,7.24,63.93,5.6c.51-.5,1-1,1.43-1.33s.81-.68,1.09-.88l.43-.31,0,0-.31.43c-.2.27-.51.64-.87,1.08s-.83.93-1.33,1.44L62.77,7.61l-4.48,4.16Z" fill="#d0ff85"/><path d="M27.71,46.92l0,0a1.11,1.11,0,0,1,0,1.58l-.55.55a1.12,1.12,0,0,1-1.59,0h0a1.12,1.12,0,0,1,0-1.59l.55-.55A1.11,1.11,0,0,1,27.71,46.92Z" fill="#79ba2d"/><path d="M27.69,46.94l-.29-.21a1.17,1.17,0,0,0-.94,0,3.5,3.5,0,0,0-1,.93,1.13,1.13,0,0,0,.14,1.46,2,2,0,0,0,.37.17,1.5,1.5,0,0,0,.37,0,1.48,1.48,0,0,0,.51-.31,3.78,3.78,0,0,0,.51-.44,3.29,3.29,0,0,0,.38-.4,1.11,1.11,0,0,0,.09-.78c-.08-.2-.12-.34-.13-.34l0,0a3.18,3.18,0,0,1,.28.27,1.24,1.24,0,0,1,.18,1.1,2.14,2.14,0,0,1-.41.63,3.14,3.14,0,0,1-.55.54,1,1,0,0,1-.94.12,2.52,2.52,0,0,1-.4-.21,2.7,2.7,0,0,0-.31-.28,1.13,1.13,0,0,1-.09-1.42,3.72,3.72,0,0,1,1-.94,1.21,1.21,0,0,1,.94,0l.33.2Z" fill="#4a7c03"/><path d="M25.88,58l0,0a1.11,1.11,0,0,1,0,1.58l-.55.55a1.12,1.12,0,0,1-1.59,0v0a1.11,1.11,0,0,1,0-1.58L24.3,58A1.11,1.11,0,0,1,25.88,58Z" fill="#79ba2d"/><path d="M25.86,58l-.29-.21a1.17,1.17,0,0,0-.94,0,3.5,3.5,0,0,0-1,.93,1.13,1.13,0,0,0,.14,1.46,3,3,0,0,0,.37.17,1.5,1.5,0,0,0,.37,0A1.35,1.35,0,0,0,25,60c.14-.05.35-.31.51-.43a4.24,4.24,0,0,0,.38-.4,1.11,1.11,0,0,0,.09-.78c-.08-.2-.12-.34-.13-.34l.05,0a3.18,3.18,0,0,1,.28.27,1.22,1.22,0,0,1,.18,1.09A2.07,2.07,0,0,1,26,60a3.54,3.54,0,0,1-.55.54,1,1,0,0,1-.94.12,2.52,2.52,0,0,1-.4-.21,2,2,0,0,0-.31-.28,1.13,1.13,0,0,1-.09-1.42,3.72,3.72,0,0,1,1-.94,1.21,1.21,0,0,1,.94,0l.33.2Z" fill="#4a7c03"/><path d="M35,49l0,0a1.11,1.11,0,0,1,0,1.58l-.55.55a1.12,1.12,0,0,1-1.59,0h0a1.12,1.12,0,0,1,0-1.59l.55-.55A1.11,1.11,0,0,1,35,49Z" fill="#79ba2d"/><path d="M34.93,49.05l-.29-.21a1.17,1.17,0,0,0-.94-.05,3.66,3.66,0,0,0-1,.93,1.13,1.13,0,0,0,.15,1.46,2.31,2.31,0,0,0,.36.17,1.54,1.54,0,0,0,.38,0,1.35,1.35,0,0,0,.51-.32,3.06,3.06,0,0,0,.51-.43,3.29,3.29,0,0,0,.38-.4,1.11,1.11,0,0,0,.09-.78c-.08-.2-.12-.34-.13-.34l0,0a2.42,2.42,0,0,1,.29.27,1.27,1.27,0,0,1,.18,1.1A2.36,2.36,0,0,1,35,51a2.91,2.91,0,0,1-.56.54,1,1,0,0,1-.93.12,2.15,2.15,0,0,1-.4-.21,2.7,2.7,0,0,0-.31-.28,1.15,1.15,0,0,1-.1-1.42,3.91,3.91,0,0,1,1-.94,1.21,1.21,0,0,1,.94,0L35,49Z" fill="#4a7c03"/><path d="M37.81,38.46h0a1.14,1.14,0,0,1,0,1.59l-.55.55a1.14,1.14,0,0,1-1.59,0v0a1.11,1.11,0,0,1,0-1.58l.55-.55A1.11,1.11,0,0,1,37.81,38.46Z" fill="#79ba2d"/><path d="M37.79,38.48l-.29-.21a1.13,1.13,0,0,0-.94-.05,3.4,3.4,0,0,0-1,.93,1.13,1.13,0,0,0,.15,1.46,2.22,2.22,0,0,0,.36.16,1.11,1.11,0,0,0,.37,0,1.6,1.6,0,0,0,.52-.32,4.51,4.51,0,0,0,.51-.44,4.4,4.4,0,0,0,.38-.39,1.13,1.13,0,0,0,.09-.79c-.08-.19-.12-.34-.13-.33l0,0a2.16,2.16,0,0,1,.29.28,1.25,1.25,0,0,1,.18,1.09,2.42,2.42,0,0,1-.41.64,2.9,2.9,0,0,1-.56.53,1,1,0,0,1-.93.13,3,3,0,0,1-.4-.21,2,2,0,0,0-.31-.28,1.15,1.15,0,0,1-.1-1.43,4,4,0,0,1,1-.93,1.17,1.17,0,0,1,.94,0l.32.19Z" fill="#4a7c03"/><path d="M44.29,38.46h0a1.14,1.14,0,0,1,0,1.59l-.55.55a1.14,1.14,0,0,1-1.59,0v0a1.11,1.11,0,0,1,0-1.58l.55-.55A1.11,1.11,0,0,1,44.29,38.46Z" fill="#79ba2d"/><path d="M44.27,38.48,44,38.27a1.13,1.13,0,0,0-.94-.05,3.52,3.52,0,0,0-1,.93,1.13,1.13,0,0,0,.15,1.46,2.22,2.22,0,0,0,.36.16,1.11,1.11,0,0,0,.37,0,1.6,1.6,0,0,0,.52-.32,4.51,4.51,0,0,0,.51-.44,4.4,4.4,0,0,0,.38-.39,1.13,1.13,0,0,0,.09-.79c-.08-.19-.12-.34-.13-.33l0,0a2.16,2.16,0,0,1,.29.28,1.25,1.25,0,0,1,.18,1.09,2.42,2.42,0,0,1-.41.64,2.9,2.9,0,0,1-.56.53,1,1,0,0,1-.93.13,3,3,0,0,1-.4-.21,2,2,0,0,0-.31-.28,1.15,1.15,0,0,1-.1-1.43,4,4,0,0,1,1-.93,1.17,1.17,0,0,1,.94,0l.32.19Z" fill="#4a7c03"/><path d="M54.34,29.25h0a1.12,1.12,0,0,1,0,1.57l-.55.54a1.1,1.1,0,0,1-1.56,0l0,0a1.1,1.1,0,0,1,0-1.56l.55-.54A1.09,1.09,0,0,1,54.34,29.25Z" fill="#79ba2d"/><path d="M54.32,29.27,54,29.06a1.14,1.14,0,0,0-.93,0,3.55,3.55,0,0,0-1,.92,1.12,1.12,0,0,0,.15,1.44,1.89,1.89,0,0,0,.36.16,1.38,1.38,0,0,0,.36,0,1.34,1.34,0,0,0,.5-.31c.15-.06.35-.31.51-.43a3.12,3.12,0,0,0,.37-.39,1.08,1.08,0,0,0,.09-.77,2.76,2.76,0,0,0-.12-.33l0-.05a2.42,2.42,0,0,1,.29.27,1.27,1.27,0,0,1,.18,1.08,2.36,2.36,0,0,1-.41.63,2.81,2.81,0,0,1-.55.53,1,1,0,0,1-.92.12,2.84,2.84,0,0,1-.39-.2,2.61,2.61,0,0,0-.31-.28,1.14,1.14,0,0,1-.1-1.41,4,4,0,0,1,1-.92A1.17,1.17,0,0,1,54,29l.32.19Z" fill="#4a7c03"/><path d="M17,47.63h0a1.12,1.12,0,0,1,0,1.59l-.55.55a1.12,1.12,0,0,1-1.59,0v0a1.11,1.11,0,0,1,0-1.58l.55-.55A1.11,1.11,0,0,1,17,47.63Z" fill="#79ba2d"/><path d="M17,47.65l-.29-.21a1.13,1.13,0,0,0-.94,0,3.5,3.5,0,0,0-1,.93,1.13,1.13,0,0,0,.14,1.46,2,2,0,0,0,.37.16,1.14,1.14,0,0,0,.37,0,1.65,1.65,0,0,0,.51-.32c.14-.05.35-.31.51-.44a3.32,3.32,0,0,0,.38-.39,1.13,1.13,0,0,0,.09-.79c-.08-.19-.12-.34-.13-.33l.05,0s.1.09.28.28A1.22,1.22,0,0,1,17.46,49a2.42,2.42,0,0,1-.41.64,3.13,3.13,0,0,1-.55.53,1.06,1.06,0,0,1-.94.13,3.75,3.75,0,0,1-.4-.21,2,2,0,0,0-.31-.28,1.14,1.14,0,0,1-.09-1.42,3.72,3.72,0,0,1,1-.94,1.21,1.21,0,0,1,.94,0l.33.19Z" fill="#4a7c03"/><path d="M18.38,36.53h0a1.12,1.12,0,0,1,0,1.59l-.55.55a1.13,1.13,0,0,1-1.58,0l0,0a1.11,1.11,0,0,1,0-1.58l.55-.55A1.12,1.12,0,0,1,18.38,36.53Z" fill="#79ba2d"/><path d="M18.35,36.55l-.29-.21a1.13,1.13,0,0,0-.94-.05,3.5,3.5,0,0,0-1,.93,1.12,1.12,0,0,0,.15,1.46,1.65,1.65,0,0,0,.36.16,1.14,1.14,0,0,0,.37,0,1.44,1.44,0,0,0,.51-.32,3.25,3.25,0,0,0,.51-.44,3.32,3.32,0,0,0,.38-.39,1.08,1.08,0,0,0,.09-.79c-.08-.19-.12-.34-.13-.33l0,0a3.36,3.36,0,0,1,.29.28,1.29,1.29,0,0,1,.18,1.09,2.71,2.71,0,0,1-.41.64,2.9,2.9,0,0,1-.56.53,1,1,0,0,1-.93.13,2.48,2.48,0,0,1-.4-.21,3.73,3.73,0,0,0-.31-.28,1.14,1.14,0,0,1-.1-1.43,3.87,3.87,0,0,1,1-.93,1.17,1.17,0,0,1,.94,0l.32.19Z" fill="#4a7c03"/><rect x="6.58" y="45.46" width="3.02" height="2.26" rx="1.12" transform="translate(-30.58 19.37) rotate(-45)" fill="#79ba2d"/><path d="M9.13,45.54l-.29-.21a1.13,1.13,0,0,0-.94,0,3.66,3.66,0,0,0-1,.93A1.13,1.13,0,0,0,7,47.67a2.22,2.22,0,0,0,.36.16,1.18,1.18,0,0,0,.38,0,1.49,1.49,0,0,0,.51-.32c.14-.05.34-.31.51-.44a4.4,4.4,0,0,0,.38-.39,1.13,1.13,0,0,0,.09-.79c-.08-.19-.12-.34-.13-.33l0,0a3.55,3.55,0,0,1,.29.28,1.25,1.25,0,0,1,.18,1.09,2.42,2.42,0,0,1-.41.64,2.9,2.9,0,0,1-.56.53,1,1,0,0,1-.93.13,3,3,0,0,1-.4-.21A2,2,0,0,0,7,47.67a1.15,1.15,0,0,1-.1-1.42,3.91,3.91,0,0,1,1-.94,1.21,1.21,0,0,1,.94,0l.32.19Z" fill="#4a7c03"/><rect x="37.16" y="17.56" width="3.02" height="2.26" rx="1.12" transform="translate(-1.89 32.81) rotate(-44.99)" fill="#79ba2d"/><path d="M39.7,17.64l-.29-.22a1.21,1.21,0,0,0-.94-.05,3.54,3.54,0,0,0-1,.94,1.11,1.11,0,0,0,.15,1.45,1.69,1.69,0,0,0,.36.17,1.5,1.5,0,0,0,.37,0,1.48,1.48,0,0,0,.51-.31,3.78,3.78,0,0,0,.51-.44,4.35,4.35,0,0,0,.38-.39,1.14,1.14,0,0,0,.09-.79c-.08-.19-.12-.34-.13-.33l0-.05a2.74,2.74,0,0,1,.28.28A1.24,1.24,0,0,1,40.22,19a2.39,2.39,0,0,1-.42.63,2.83,2.83,0,0,1-.55.54,1,1,0,0,1-.93.12,2.25,2.25,0,0,1-.41-.21,3.84,3.84,0,0,0-.3-.28,1.12,1.12,0,0,1-.1-1.42,3.89,3.89,0,0,1,1-.94,1.21,1.21,0,0,1,.94,0l.33.19Z" fill="#4a7c03"/><rect x="35.24" y="28.12" width="3.02" height="2.26" rx="1.12" transform="translate(-9.92 34.56) rotate(-45)" fill="#79ba2d"/><path d="M37.79,28.2,37.5,28a1.17,1.17,0,0,0-.94,0,3.4,3.4,0,0,0-1,.93,1.13,1.13,0,0,0,.15,1.46,2.31,2.31,0,0,0,.36.17,1.42,1.42,0,0,0,.37,0,1.32,1.32,0,0,0,.52-.32c.14,0,.34-.3.51-.43a4.33,4.33,0,0,0,.38-.4,1.11,1.11,0,0,0,.09-.78c-.08-.2-.12-.34-.13-.34l0,0a2.42,2.42,0,0,1,.29.27,1.27,1.27,0,0,1,.18,1.1,2.36,2.36,0,0,1-.41.63,2.91,2.91,0,0,1-.56.54,1,1,0,0,1-.93.12,2.15,2.15,0,0,1-.4-.21,2.7,2.7,0,0,0-.31-.28,1.14,1.14,0,0,1-.1-1.42,3.91,3.91,0,0,1,1-.94,1.21,1.21,0,0,1,.94,0l.32.2Z" fill="#4a7c03"/><rect x="25.14" y="36.47" width="3.02" height="2.26" rx="1.12" transform="translate(-18.78 29.86) rotate(-45)" fill="#79ba2d"/><path d="M27.69,36.55l-.29-.21a1.13,1.13,0,0,0-.94-.05,3.5,3.5,0,0,0-1,.93,1.13,1.13,0,0,0,.14,1.46,2,2,0,0,0,.37.16,1.14,1.14,0,0,0,.37,0,1.65,1.65,0,0,0,.51-.32,3.78,3.78,0,0,0,.51-.44,3.32,3.32,0,0,0,.38-.39,1.13,1.13,0,0,0,.09-.79c-.08-.19-.12-.34-.13-.33l0,0a2.74,2.74,0,0,1,.28.28,1.22,1.22,0,0,1,.18,1.09,2.2,2.2,0,0,1-.41.64,3.13,3.13,0,0,1-.55.53,1.05,1.05,0,0,1-.94.13,3.75,3.75,0,0,1-.4-.21,2,2,0,0,0-.31-.28,1.15,1.15,0,0,1-.09-1.43,3.84,3.84,0,0,1,1-.93,1.17,1.17,0,0,1,.94,0l.33.19Z" fill="#4a7c03"/><rect x="27.13" y="27.25" width="3.02" height="2.26" rx="1.12" transform="translate(-11.68 28.57) rotate(-45)" fill="#79ba2d"/><path d="M29.68,27.33l-.29-.21a1.17,1.17,0,0,0-.94-.05,3.5,3.5,0,0,0-1,.93,1.13,1.13,0,0,0,.14,1.46,2,2,0,0,0,.37.17,1.5,1.5,0,0,0,.37,0,1.35,1.35,0,0,0,.51-.32,3.06,3.06,0,0,0,.51-.43,3.29,3.29,0,0,0,.38-.4,1.11,1.11,0,0,0,.09-.78c-.08-.2-.12-.34-.13-.34l.05,0a3.18,3.18,0,0,1,.28.27,1.27,1.27,0,0,1,.18,1.1,2.36,2.36,0,0,1-.41.63,3.14,3.14,0,0,1-.55.54,1.05,1.05,0,0,1-.94.12,2.15,2.15,0,0,1-.4-.21,2.7,2.7,0,0,0-.31-.28A1.13,1.13,0,0,1,27.49,28a3.72,3.72,0,0,1,1-.94,1.21,1.21,0,0,1,.94,0l.33.2Z" fill="#4a7c03"/><path d="M46.62,31h0a1.12,1.12,0,0,1,0,1.59l-.55.55a1.12,1.12,0,0,1-1.59,0v0a1.11,1.11,0,0,1,0-1.58L45,31A1.11,1.11,0,0,1,46.62,31Z" fill="#79ba2d"/><path d="M46.6,31l-.29-.21a1.17,1.17,0,0,0-.94-.05,3.52,3.52,0,0,0-1,.93,1.13,1.13,0,0,0,.15,1.46,2.22,2.22,0,0,0,.36.16,1.11,1.11,0,0,0,.37,0,1.44,1.44,0,0,0,.52-.32c.14-.05.35-.31.51-.44a4.4,4.4,0,0,0,.38-.39,1.13,1.13,0,0,0,.09-.79c-.08-.19-.12-.34-.13-.33l0,0a2.42,2.42,0,0,1,.29.27,1.25,1.25,0,0,1,.18,1.09,2.42,2.42,0,0,1-.41.64,2.9,2.9,0,0,1-.56.53,1,1,0,0,1-.93.13,2.15,2.15,0,0,1-.4-.21,2,2,0,0,0-.31-.28,1.15,1.15,0,0,1-.1-1.42,3.91,3.91,0,0,1,1-.94,1.21,1.21,0,0,1,.94,0l.32.2Z" fill="#4a7c03"/><path d="M48,17h0a1.12,1.12,0,0,1,0,1.59l-.55.55a1.13,1.13,0,0,1-1.58,0l0,0a1.11,1.11,0,0,1,0-1.58l.55-.55A1.12,1.12,0,0,1,48,17Z" fill="#79ba2d"/><path d="M48,17l-.29-.22a1.17,1.17,0,0,0-.94,0,3.36,3.36,0,0,0-1,.93,1.12,1.12,0,0,0,.15,1.46,1.65,1.65,0,0,0,.36.16,1.51,1.51,0,0,0,.37,0,1.65,1.65,0,0,0,.51-.32,3.25,3.25,0,0,0,.51-.44,3.32,3.32,0,0,0,.38-.39,1.13,1.13,0,0,0,.09-.79C48.05,17.15,48,17,48,17l0-.05a2.74,2.74,0,0,1,.28.28,1.25,1.25,0,0,1,.19,1.09,2.24,2.24,0,0,1-.42.63,2.83,2.83,0,0,1-.55.54,1.06,1.06,0,0,1-.93.13,2.48,2.48,0,0,1-.4-.21,3.73,3.73,0,0,0-.31-.28,1.14,1.14,0,0,1-.1-1.43,4.27,4.27,0,0,1,1-.94,1.21,1.21,0,0,1,.94,0l.33.19Z" fill="#4a7c03"/><rect x="53.55" y="18.16" width="2.3" height="1.72" rx="0.85" transform="translate(2.57 44.26) rotate(-45.01)" fill="#79ba2d"/><path d="M55.48,18.23a.85.85,0,0,0-.93-.21,2.44,2.44,0,0,0-.77.71.85.85,0,0,0,.11,1.11,1.08,1.08,0,0,0,.28.11.82.82,0,0,0,.28-.05,1.11,1.11,0,0,0,.34-.26c.09,0,.26-.23.39-.32s.18-.19.28-.27a.77.77,0,0,0,.1-.56,2.22,2.22,0,0,0-.08-.26l.05-.05a2.49,2.49,0,0,1,.23.21,1,1,0,0,1,.18.86,1.94,1.94,0,0,1-.32.51,2.15,2.15,0,0,1-.43.42.77.77,0,0,1-.76.07,2.29,2.29,0,0,1-.31-.18,1.66,1.66,0,0,0-.23-.23.88.88,0,0,1-.07-1.08,3.06,3.06,0,0,1,.74-.71,1,1,0,0,1,1,.13Z" fill="#4a7c03"/><path d="M18.38,57.14h0a1.12,1.12,0,0,1,0,1.59l-.55.55a1.13,1.13,0,0,1-1.58,0l0,0a1.11,1.11,0,0,1,0-1.58l.55-.55A1.12,1.12,0,0,1,18.38,57.14Z" fill="#79ba2d"/><path d="M18.35,57.16l-.29-.22a1.17,1.17,0,0,0-.94,0,3.36,3.36,0,0,0-1,.93,1.12,1.12,0,0,0,.15,1.46,1.65,1.65,0,0,0,.36.16,1.51,1.51,0,0,0,.37,0,1.44,1.44,0,0,0,.51-.32,3.25,3.25,0,0,0,.51-.44,3.32,3.32,0,0,0,.38-.39,1.08,1.08,0,0,0,.09-.79c-.08-.19-.12-.34-.13-.33l0,0a3.36,3.36,0,0,1,.29.28,1.29,1.29,0,0,1,.18,1.09,2.45,2.45,0,0,1-.41.63,2.64,2.64,0,0,1-.56.54,1.06,1.06,0,0,1-.93.13,2.48,2.48,0,0,1-.4-.21,3.73,3.73,0,0,0-.31-.28,1.14,1.14,0,0,1-.1-1.43,4.11,4.11,0,0,1,1-.94,1.21,1.21,0,0,1,.94,0l.32.19Z" fill="#4a7c03"/></g></g></svg>