<svg xmlns="http://www.w3.org/2000/svg" viewBox="0 0 68.07 70"><g id="a1f2ce7a-eb44-43b2-a814-df64fb8e92bf" data-name="Layer 2"><g id="ebe270a1-30cf-4808-89a1-267f1479d60c" data-name="—ÎÓÈ_1"><path d="M58.08,11c-.44.68-.92,1.42-1.4,2.21.66.12,1.8.34,2.65.57.28-.71.55-1.39.77-2,1.09-3,3.32-2.92,1.88-3.38C62.92,8.63,59.93,8.05,58.08,11Z" fill="#380f31"/><path d="M56.05,10.18l-.8.85a13,13,0,0,1,.89,2l.54.1c.48-.79,1-1.53,1.4-2.21,1.85-2.9,4.84-2.32,3.9-2.62A6.91,6.91,0,0,0,56.05,10.18Z" fill="#380f31"/><path d="M55.25,11l.8-.85A6.91,6.91,0,0,1,62,8.33c-.06,0-4.56-1.53-8,1.09A5.09,5.09,0,0,1,55.25,11Z" fill="#380f31"/><path d="M60.1,11.71c-.22.63-.49,1.31-.77,2a3.92,3.92,0,0,1,1,.38l1.34,1a26.17,26.17,0,0,0,.42-2.62C62.45,9.29,63.92,9,62,8.33,63.42,8.79,61.19,8.67,60.1,11.71Z" fill="#380f31"/><path d="M64.16,13.24c0,.33.07.68.1,1A3,3,0,0,1,65.48,14h.7C65,10.54,64.92,9.28,62,8.33,64.42,9.12,63.7,9.92,64.16,13.24Z" fill="#380f31"/><path d="M62.13,12.47a26.17,26.17,0,0,1-.42,2.62l.68.5a6,6,0,0,1,1.87-1.32c0-.35-.06-.7-.1-1-.46-3.32.26-4.12-2.18-4.91C63.92,9,62.45,9.29,62.13,12.47Z" fill="#380f31"/><path d="M54,9.42a18.19,18.19,0,0,0-6.76,7.36A23.74,23.74,0,0,1,54,9.42Z" fill="#380f31"/><path d="M66.18,14h-.7a3,3,0,0,0-1.22.26,24.3,24.3,0,0,1-1,8A61.75,61.75,0,0,1,27.75,62.39C14.43,66.63,3.12,65.68,1.41,61.18,4.74,69.93,15,72.47,29.14,67.45A66.68,66.68,0,0,0,66.42,23.37,16.24,16.24,0,0,0,66.18,14Z" fill="#190017"/><path d="M64.26,14.27a6,6,0,0,0-1.87,1.32l-.68-.5-1.34-1a3.92,3.92,0,0,0-1-.38c-.74,1.85-1.63,4-2.49,6.35C51.36,35.21,40.05,47.38,25,52.27,13.36,55-.11,57.17,1.41,61.18c1.71,4.5,13,5.45,26.34,1.21A61.75,61.75,0,0,0,63.23,22.27,24.3,24.3,0,0,0,64.26,14.27Z" fill="#290124"/><path d="M56.68,13.16l-.54-.1a13,13,0,0,0-.89-2A5.09,5.09,0,0,0,54,9.42a23.74,23.74,0,0,0-6.76,7.36C41.43,28.43,31.75,36,20.81,37.09,11.75,37.45-5,44.41,1.41,61.18c-1.52-4,12-6.22,23.56-8.91,15.08-4.89,26.39-17.06,31.87-32.19.86-2.38,1.75-4.5,2.49-6.35C58.48,13.5,57.34,13.28,56.68,13.16Z" fill="#380f31"/><path d="M62.07,9.35l-1.62-.81a5.15,5.15,0,0,0-2.3-6.91L59,0A7,7,0,0,1,62.07,9.35Z" fill="#a5b658"/><g opacity="0.64"><path d="M36.4,35.83c3.3.17-4.29,10.23-17.76,12.7-4.36.8-8.12.07-8.38-1.46s3-4.27,7.47-4.08C30.33,43.55,34.85,35.75,36.4,35.83Z" fill="#d1aaca"/></g><path d="M62.27,7.26a9.61,9.61,0,0,0-4.48-.36c-1.91-.12-6.84,4.46-8.52,5.41,1.24,1,6.91.36,6.91.36s.07,7,.66,7.41c0,0,0,0,.06,0L62.3,7.27Z" fill="#cee56c"/><path d="M62.3,7.27,56.9,20.08c.78.18,5.53-4.88,5.53-4.88s1.12-1.95,2.56,2.7a8.77,8.77,0,0,0,3.08,3.94C66.57,16.25,68.64,9.52,62.3,7.27Z" fill="#b9d34f"/></g></g></svg>