<svg xmlns="http://www.w3.org/2000/svg" viewBox="0 0 64.59 70"><g id="b04a6179-fad2-4a1f-a138-397e4c434b22" data-name="Layer 2"><g id="b9e38643-79f6-4bdb-b379-b539b58e5554" data-name="—ÎÓÈ_1"><path d="M41.52,47.88C41.52,34,38.8,27.07,36.46,22,33.7,16.08,33.07,1,33.07,1l-.39-1s.32,16.08,1.7,22c1.17,5.05,2.53,12,2.53,25.86C36.91,60,35.5,70,33.75,70h1.46C38.7,70,41.53,60,41.52,47.88Z" fill="#e77c2a"/><path d="M46.14,47.88c0-13.87-4.09-20.81-7.6-25.86-4.13-5.94-5.09-22-5.09-22l-.38,1s.63,15.08,3.39,21c2.34,5.05,5.06,12,5.06,25.86C41.53,60,38.7,70,35.21,70h1.45C41.89,70,46.14,60,46.14,47.88Z" fill="#e67624"/><path d="M36.91,47.88C36.91,34,35.55,27.07,34.38,22,33,16.08,32.68,0,32.68,0L32.3,1V70h1.45C35.5,70,36.91,60,36.91,47.88Z" fill="#e77c2a"/><path d="M60,47.88C60,34,51.79,27.07,44.77,22,36.52,16.08,34.6,1,34.6,1l-.38-1s1.59,16.08,8.48,22c5.84,5.05,12.66,12,12.67,25.86C55.37,60,48.29,70,39.57,70H41C51.49,70,60,60,60,47.88Z" fill="#e25e0e"/><path d="M46.85,22C37.22,16.08,35,0,35,0L34.6,1s1.92,15.08,10.17,21C51.79,27.07,60,34,60,47.88,60,60,51.49,70,41,70h1.46A22.17,22.17,0,0,0,64.59,47.88C64.59,34,55,27.07,46.85,22Z" fill="#e15808"/><path d="M50.75,47.88C50.75,34,45.29,27.07,40.62,22c-5.51-5.94-6.79-21-6.79-21l-.38-1s1,16.08,5.09,22c3.51,5.05,7.6,12,7.6,25.86C46.14,60,41.89,70,36.66,70h1.45C45.09,70,50.75,60,50.75,47.88Z" fill="#e5701f"/><path d="M55.37,47.88C55.36,34,48.54,27.07,42.7,22c-6.89-5.94-8.48-22-8.48-22l-.39,1s1.28,15.08,6.79,21c4.67,5.05,10.13,12,10.13,25.86C50.75,60,45.09,70,38.11,70h1.46C48.29,70,55.37,60,55.37,47.88Z" fill="#e46a19"/><path d="M18.46,47.88c0-13.87,4.09-20.81,7.6-25.86,4.13-5.94,5.08-22,5.08-22l-.38,1S29.48,16.08,24,22C19.3,27.07,13.84,34,13.84,47.88,13.84,60,19.5,70,26.48,70h1.45C22.7,70,18.45,60,18.46,47.88Z" fill="#ffaf68"/><path d="M13.84,47.88C13.84,34,19.3,27.07,24,22c5.5-5.94,6.78-21,6.78-21l-.38-1s-1.6,16.08-8.48,22C16.05,27.07,9.23,34,9.23,47.88,9.23,60,16.3,70,25,70h1.45C19.5,70,13.84,60,13.84,47.88Z" fill="#ffb979"/><path d="M4.61,47.88C4.62,34,12.8,27.07,19.82,22,28.08,16.08,30,1,30,1l-.38-1S27.37,16.08,17.74,22C9.55,27.07,0,34,0,47.88A22.18,22.18,0,0,0,22.12,70h1.45C13.1,70,4.61,60,4.61,47.88Z" fill="#ffc389"/><path d="M9.23,47.88C9.23,34,16.05,27.07,21.9,22c6.88-5.94,8.48-22,8.48-22L30,1S28.08,16.08,19.82,22c-7,5.05-15.2,12-15.21,25.86C4.61,60,13.1,70,23.57,70H25C16.3,70,9.23,60,9.23,47.88Z" fill="#ffc389"/><path d="M12.15,45.84c0-11.2,4.4-16.81,8.18-20.89,4.45-4.79,3.31-4.79-3.36,0C11.3,29,4.69,34.64,4.69,45.84,4.69,55.63,12.14,55.63,12.15,45.84Z" fill="#ffdec2"/><path d="M32.3,22V1l-.39-1s-.32,16.08-1.69,22c-1.17,5.05-2.54,12-2.54,25.86C27.68,60,29.1,70,30.84,70H32.3V22Z" fill="#ff9136"/><path d="M23.07,47.88C23.07,34,25.8,27.07,28.14,22c2.75-5.94,3.39-21,3.39-21l-.39-1s-.95,16.08-5.08,22c-3.51,5.05-7.6,12-7.6,25.86C18.45,60,22.7,70,27.93,70h1.46C25.9,70,23.07,60,23.07,47.88Z" fill="#ffa557"/><path d="M27.68,47.88C27.68,34,29.05,27.07,30.22,22c1.37-5.94,1.69-22,1.69-22l-.38,1s-.64,15.08-3.39,21c-2.34,5.05-5.07,12-5.07,25.86C23.07,60,25.9,70,29.39,70h1.45C29.1,70,27.68,60,27.68,47.88Z" fill="#ff9b47"/></g></g></svg>