<svg xmlns="http://www.w3.org/2000/svg" viewBox="0 0 66.88 70"><g id="bf63da8c-8977-4dfc-a1af-6961754db135" data-name="Layer 2"><g id="a88298b3-215b-4cc7-8b8a-2b0e1d3b9de3" data-name="—ÎÓÈ_1"><path d="M54.33,3.3S41.82,27.61,38.67,33.12c-10.32,18-22.56,35.45-22.56,35.45s9.74,5.56,19.54-5.26S62,23.29,57.33,14.89c-2.22-4-2-11-2-11Z" fill="#75b008"/><path d="M54.17,2.83s-18.51,20.11-23,24.59C16.42,42.07,0,55.62,0,55.62s7.92,7.94,20.24.11,36-31.6,33.74-40.94c-1.07-4.46,1-11.16,1-11.16Z" fill="#75b008"/><path d="M55.17,3.83S36.67,24,32.16,28.42C17.43,43.08,1,56.62,1,56.62s7.92,7.94,20.24.12S57.24,25.13,55,15.8c-1.08-4.46,1-11.16,1-11.16Z" fill="#60a003"/><path d="M55.18,3.84S37,24.17,32.55,28.73c-14.41,14.92-30.21,29-30.21,29s6.34,6.68,18-1.68S55.13,23.45,54,15c-.56-4.05,1.87-10.46,1.87-10.46Z" fill="#60a003"/><path d="M47.38,12.23l-.55.56a1.53,1.53,0,0,0-.34,1.57,2.18,2.18,0,0,1,0,1.19A2,2,0,0,0,47,17.4l.75.76a3.42,3.42,0,0,0,4.83,0l0-.05a3.39,3.39,0,0,0,0-4.82l-.75-.76A2,2,0,0,0,50.05,12a2.12,2.12,0,0,1-1.11-.15A1.52,1.52,0,0,0,47.38,12.23Z" fill="#9bca24"/><path d="M49.3,14.34c-1.24-1.24.27-2.88,1.57-1.58C53,14.16,51,16.46,49.3,14.34Z" fill="#e9ffb3"/><path d="M41.6,19l-.79.8a2.19,2.19,0,0,0-.49,2.25,3,3,0,0,1,.06,1.69,2.78,2.78,0,0,0,.73,2.65l1.07,1.07a4.86,4.86,0,0,0,6.88,0l.07-.07a4.85,4.85,0,0,0,0-6.87l-1.07-1.08a2.78,2.78,0,0,0-2.65-.73,3.19,3.19,0,0,1-1.6-.21A2.13,2.13,0,0,0,41.6,19Z" fill="#9bca24"/><path d="M44.41,22.44a1.94,1.94,0,1,1,2.72-2.72C50.57,22.16,47.14,26,44.41,22.44Z" fill="#e9ffb3"/><path d="M34,26.63l-.79.79a2.19,2.19,0,0,0-.49,2.25,3,3,0,0,1,.06,1.69A2.78,2.78,0,0,0,33.5,34l1.07,1.07a4.86,4.86,0,0,0,6.88,0l.07-.07a4.87,4.87,0,0,0,0-6.87l-1.08-1.08a2.79,2.79,0,0,0-2.64-.73,3.08,3.08,0,0,1-1.6-.21A2.13,2.13,0,0,0,34,26.63Z" fill="#9bca24"/><path d="M36.8,30.05a1.93,1.93,0,1,1,2.71-2.71C43,29.77,39.53,33.57,36.8,30.05Z" fill="#e9ffb3"/><path d="M26.38,34.24l-.79.8a2.17,2.17,0,0,0-.49,2.24A3,3,0,0,1,25.16,39a2.78,2.78,0,0,0,.73,2.65L27,42.69a4.86,4.86,0,0,0,6.88,0l.06-.07a4.85,4.85,0,0,0,0-6.87l-1.07-1.07a2.79,2.79,0,0,0-2.65-.74,3.06,3.06,0,0,1-1.59-.21A2.12,2.12,0,0,0,26.38,34.24Z" fill="#9bca24"/><path d="M29.19,37.66A1.93,1.93,0,1,1,31.9,35C35.35,37.39,31.92,41.18,29.19,37.66Z" fill="#e9ffb3"/><path d="M18.26,41.35l-.79.8A2.19,2.19,0,0,0,17,44.39,3.12,3.12,0,0,1,17,46.08a2.8,2.8,0,0,0,.73,2.65l1.08,1.07a4.85,4.85,0,0,0,6.87,0l.07-.07a4.85,4.85,0,0,0,0-6.87l-1.07-1.07a2.79,2.79,0,0,0-2.65-.74,3,3,0,0,1-1.59-.21A2.14,2.14,0,0,0,18.26,41.35Z" fill="#9bca24"/><path d="M21.07,44.77a1.93,1.93,0,1,1,2.72-2.71C27.23,44.5,23.81,48.29,21.07,44.77Z" fill="#e9ffb3"/><path d="M10.62,49l-.74.75a2,2,0,0,0-.45,2.1,2.92,2.92,0,0,1,.05,1.58,2.6,2.6,0,0,0,.68,2.48l1,1a4.55,4.55,0,0,0,6.44,0l.06-.07a4.55,4.55,0,0,0,0-6.44l-1-1a2.63,2.63,0,0,0-2.48-.69,2.9,2.9,0,0,1-1.5-.19A2,2,0,0,0,10.62,49Z" fill="#9bca24"/><path d="M13.35,52a1.76,1.76,0,1,1,2.48-2.47C19,51.8,15.86,55.27,13.35,52Z" fill="#e9ffb3"/><path d="M57.88,9.18c4,4.53,2,3.88,2,3.88a4.8,4.8,0,0,0-4-2.56c-2.95-.22-1.33-7.41-1.33-7.41s.16,3.6-2.32,4.3A29.73,29.73,0,0,1,45.47,8s5.31-1.13,6.09-3.25S58.44-1.45,62.25.52,66.88,2.3,66.88,2.3L65.54,3.64s-2.62-2.45-5.07-2.38S53.86,4.66,57.88,9.18Z" fill="#cbdc4f"/></g></g></svg>