<svg xmlns="http://www.w3.org/2000/svg" viewBox="0 0 68.48 70"><g id="ae537abf-edb8-4dd6-99c1-48fc5e0ac063" data-name="Layer 2"><g id="a67e90fb-170d-4d69-b37e-747ec246bde1" data-name="—ÎÓÈ_1"><path d="M1.43,61.33a49.14,49.14,0,0,0,7.19,2A37.47,37.47,0,0,0,19.17,64a29.15,29.15,0,0,0,5.12-.88c5.19-1.39,9.51-4.77,13.45-8.34a41.88,41.88,0,0,0,7.64-8.69A52.6,52.6,0,0,0,49.46,38c.56-1.36,1-2.72,1.46-4.11,1.23-3.75,2.59-8,3.43-11.84.26-1.21.31-2.76.49-4a13.2,13.2,0,0,1,1.65-5.32l.68-.54-2.56.64a12.94,12.94,0,0,0-2.28,5.78,89.68,89.68,0,0,1-4.68,17.16A55.07,55.07,0,0,1,38.9,52.06a29.87,29.87,0,0,1-13.62,9.72c-7.59,2.44-16.55,1.59-24-.92a1,1,0,0,0-.87,1.7C-.24,62.09.46,61,1.43,61.33Z" fill="#f41616"/><path d="M2,63.23c1.82,1,3.69,1.73,5.6,2.6A30.36,30.36,0,0,0,16,68.26a30.67,30.67,0,0,0,4.28.29c4.44,0,8.62-1.57,12.79-2.83,7.73-2.32,14.16-8,19.1-14.51a71.84,71.84,0,0,0,9.1-16.37A57.23,57.23,0,0,0,64,26.27c.49-2,1.32-6.28,1.63-8,0-.24-.79-2.23-.76-2.48a11.4,11.4,0,0,0-.59-2.13l-2,1.28a6,6,0,0,1,.1,1.42c-.07.49-1,9.37-1.63,11.81a59.44,59.44,0,0,1-2.4,7.46,65.51,65.51,0,0,1-7.85,14.31A44.35,44.35,0,0,1,34.26,63c-4.07,2-8.33,3.85-12.95,4.21a30.72,30.72,0,0,1-4.5,0,32.29,32.29,0,0,1-8.92-2c-2-.78-4.06-1.53-6-2.45a3.18,3.18,0,0,0-1.48-.2C.75,62.8,1.36,62.88,2,63.23Z" fill="#f41616"/><path d="M34.91,63.92A48.77,48.77,0,0,0,46.55,56,34.81,34.81,0,0,1,34.91,63.92ZM55,45.15a75.64,75.64,0,0,0,4.41-9.1,61.41,61.41,0,0,0,2.45-7.59c.63-2.41,1.67-11.84,1.66-12a3.87,3.87,0,0,0,0-1l.19-.12c.05.16,1.08,3-.73,10.63a55.79,55.79,0,0,1-2.66,8.41A80.05,80.05,0,0,1,55,45.15Z" fill="#f88487"/><path d="M68.43,17.67a1.11,1.11,0,0,1,0,.17A1.11,1.11,0,0,0,68.43,17.67Z" fill="#f7414e"/><path d="M68.41,17.84a1.11,1.11,0,0,0,0-.17c0-.11,0-.22,0-.34L66,12.58l-1.73,1.08c.28.88.54,1.9.59,2.13.74,3.06-.38,8.48-.87,10.48a57.23,57.23,0,0,1-2.71,8.57,71.84,71.84,0,0,1-9.1,16.37C47.26,57.67,40.83,63.4,33.1,65.72c-4.17,1.26-8.35,2.81-12.79,2.83A30.67,30.67,0,0,1,16,68.26a30.36,30.36,0,0,1-8.39-2.43C5.73,65,3.86,64.2,2,63.23c-.68-.35-1.29-.43-1.63-.67a64,64,0,0,0,7,3.9,29.3,29.3,0,0,0,7.84,2.87,33.54,33.54,0,0,0,16.7-.87c8.78-2.74,16.3-8.73,22-16A77.78,77.78,0,0,0,64.26,34.05a54.84,54.84,0,0,0,3-9.68c.33-1.56.27-3.52.79-5A8,8,0,0,0,68.41,17.84Z" fill="#d40203"/><path d="M1.58,61.81A55.52,55.52,0,0,0,8.38,64a36,36,0,0,0,10,1.12,30.64,30.64,0,0,0,4.91-.59c5-1,9.23-4,13.29-7A42.37,42.37,0,0,0,47.09,47.38,55.42,55.42,0,0,0,52.42,37.2c.71-1.73,1.23-3.44,1.77-5.22,1-3.33,2.27-7.59,3-10.88.21-1,0-2.63.18-3.6.25-1.67.33-3.91,1-4.85l.48-.52-.27-.27-1.41.35-.68.54a13.2,13.2,0,0,0-1.65,5.32c-.18,1.21-.23,2.76-.49,4-.84,3.82-2.2,8.09-3.43,11.84-.45,1.39-.9,2.75-1.46,4.11a52.6,52.6,0,0,1-4.08,8.11,41.88,41.88,0,0,1-7.64,8.69c-3.94,3.57-8.26,7-13.45,8.34a29.15,29.15,0,0,1-5.12.88,37.47,37.47,0,0,1-10.55-.67,49.14,49.14,0,0,1-7.19-2c-1-.36-1.67.76-1,1.23C0,62.26.69,61.45,1.58,61.81Z" fill="#ff1f1f"/><path d="M51.68,34.13c1.64-4.16,2.43-10,3-14.49a11.76,11.76,0,0,1,1.2-4.11.45.45,0,0,1,.85.24c-.18,1.72-2.41,13.59-3.81,17.68-6,17.62-13.28,21.32-13.65,21S44.35,52.7,51.68,34.13Z" fill="#ffccd3"/><path d="M7.89,65.21a32.29,32.29,0,0,0,8.92,2,30.72,30.72,0,0,0,4.5,0c4.62-.36,8.88-2.22,13-4.21A44.35,44.35,0,0,0,50.49,49.94a65.51,65.51,0,0,0,7.85-14.31,59.44,59.44,0,0,0,2.4-7.46c.65-2.44,1.56-11.32,1.63-11.81a6,6,0,0,0-.1-1.42l-.34.21L60,13.27c-.16,1,0,2.7-.15,3.66-.1.73.28,2.5.13,3.23-.57,2.76-1.7,7-2.52,9.92a58.6,58.6,0,0,1-2.09,6.33,60,60,0,0,1-6.59,12.25,43.43,43.43,0,0,1-13.37,11.6c-4.08,2.43-8.31,4.88-13.12,5.58a29.38,29.38,0,0,1-4.7.3,34.3,34.3,0,0,1-9.47-1.55,62.83,62.83,0,0,1-6.39-2.31c-.83-.36-1.49.16-1.33.28a3.18,3.18,0,0,1,1.48.2C3.83,63.68,5.84,64.43,7.89,65.21Z" fill="#e40309"/><path d="M1.74,62.28a62.83,62.83,0,0,0,6.39,2.31,34.3,34.3,0,0,0,9.47,1.55,29.38,29.38,0,0,0,4.7-.3c4.81-.7,9-3.15,13.12-5.58a43.43,43.43,0,0,0,13.37-11.6,60,60,0,0,0,6.59-12.25,58.6,58.6,0,0,0,2.09-6.33c.82-2.89,2-7.16,2.52-9.92.15-.73-.23-2.5-.13-3.23.15-1,0-2.62.15-3.66l-1.16-1.14-.48.52c-.69.94-.77,3.18-1,4.85-.14,1,0,2.63-.18,3.6-.71,3.29-2,7.55-3,10.88-.54,1.78-1.06,3.49-1.77,5.22a55.42,55.42,0,0,1-5.33,10.18A42.37,42.37,0,0,1,36.58,57.53c-4.06,2.94-8.28,5.91-13.29,7a30.64,30.64,0,0,1-4.91.59A36,36,0,0,1,8.38,64a55.52,55.52,0,0,1-6.8-2.15c-.89-.36-1.58.45-1.17.75C.25,62.44.91,61.92,1.74,62.28Z" fill="#f41616"/><path d="M64.43,0c-.06.53-1,2.62-1.21,3.42-1.43,5.44-3.94,3.26-6.12,6.05-1.44,1.84-2,2.72-2.49,3.38l4-1,3.35,3.29.14-.06L65.29.27Z" fill="#6ca32e"/><path d="M66.51.65,65.29.27,62.07,15.09l3.44-1.59,3,3.83c.12-1.45-.7-5.08-2.46-8.62-.83-1.65-1-1.36-.53-4.62Z" fill="#498b1f"/></g></g></svg>