<svg xmlns="http://www.w3.org/2000/svg" viewBox="0 0 53.31 56.53"><g style="isolation:isolate"><g id="b4102f44-5162-41c9-b128-d1c7ac34dce7" data-name="Layer 2"><g id="f698e0e4-401f-4973-aa1a-a18b5abd7764" data-name="—ÎÓÈ_1"><path d="M44.19,3.32c-2-1-4.27-2.07-4.57-2.17A24.62,24.62,0,0,0,28.83.22,34.07,34.07,0,0,0,14.32,6.07,34,34,0,0,0,1.76,20.88c-3.9,9.56-.85,17.87,4.57,26L47.57,5.61C47.85,5.33,46.11,4.32,44.19,3.32Z" fill="#f7b94c"/><path d="M20.26,21.73c-1.39,2.18-6,.22-7.46-.8-5.21-3.55.35-8.8,1.57-9.67,2.75-2,6.75-5.07,10-6,3.06-.84,9.4-3,12-.34C41.61,10.26,29.73,6.87,20.26,21.73Z" fill="#fee392"/><path d="M39.67,46.58a22.61,22.61,0,0,0,2.85-5.28c1.19-3.19,1.6-6.8,3.33-9.76,2.33-4,7.59-5.86,7.46-11.11a28.15,28.15,0,0,0-.24-2.89,14.06,14.06,0,0,1-5.25,4.84c-5.77,2.77-9,12.91-12.64,19.46s-4.57,7.68-9.51,9.51c-7.08,2.62-13.56.29-17.21-1.63.52.62,1,1.22,1.63,1.79a16.92,16.92,0,0,0,11.06,5C28.28,56.88,35.59,52.2,39.67,46.58Z" fill="#c97d2f"/><path d="M35.18,41.84c3.6-6.55,6.87-16.69,12.64-19.46a14.06,14.06,0,0,0,5.25-4.84A25.33,25.33,0,0,0,52.31,14a19.51,19.51,0,0,0-4.74-8.37L6.33,46.85l.12.17q.94,1.41,2,2.7c3.65,1.92,10.13,4.25,17.21,1.63C30.61,49.52,31.58,48.39,35.18,41.84Z" fill="#eda43b"/><g opacity="0.49" style="mix-blend-mode:multiply"><path d="M7.23,30.67a.54.54,0,0,1-.41-.17.59.59,0,0,1,.83-.83l-.18.18a.33.33,0,0,0-.48,0,.34.34,0,0,0,0,.48.34.34,0,0,0,.48,0l.18.18A.58.58,0,0,1,7.23,30.67Z" fill="#ea984e"/><path d="M13.71,29.41a.54.54,0,0,1-.41-.17.59.59,0,1,1,.83-.83l-.18.18a.33.33,0,0,0-.48,0,.34.34,0,0,0,.48.48l.18.17A.58.58,0,0,1,13.71,29.41Z" fill="#ea984e"/><path d="M10,24.42a.59.59,0,0,1-.42-.18.6.6,0,0,1,0-.83.62.62,0,0,1,.84,0l-.18.18a.34.34,0,1,0,0,.48l.18.17A.59.59,0,0,1,10,24.42Z" fill="#ea984e"/><path d="M16.87,24.74a.54.54,0,0,1-.41-.17.59.59,0,0,1,.83-.83l-.18.18a.33.33,0,0,0-.47,0,.33.33,0,0,0,.47.47l.18.18A.55.55,0,0,1,16.87,24.74Z" fill="#ea984e"/><path d="M23.35,23.48a.54.54,0,0,1-.41-.17.59.59,0,0,1,.83-.83l-.18.18a.33.33,0,1,0,0,.47l.18.18A.57.57,0,0,1,23.35,23.48Z" fill="#ea984e"/><path d="M19.62,18.48a.54.54,0,0,1-.41-.17.59.59,0,0,1,.83-.83l-.18.18a.34.34,0,1,0,0,.48l.18.17A.58.58,0,0,1,19.62,18.48Z" fill="#ea984e"/></g><g opacity="0.49" style="mix-blend-mode:multiply"><path d="M8.47,18.83H8.4a.6.6,0,0,1-.51-.66.6.6,0,0,1,.22-.39.63.63,0,0,1,.44-.12.59.59,0,0,1,.39.23l-.2.15A.33.33,0,0,0,8.27,18a.29.29,0,0,0-.13.22.32.32,0,0,0,.06.25.36.36,0,0,0,.23.13.32.32,0,0,0,.25-.07l.15.2A.58.58,0,0,1,8.47,18.83Z" fill="#ea984e"/><path d="M15.06,18.41H15a.59.59,0,0,1-.39-.23.6.6,0,0,1-.11-.43.57.57,0,0,1,.22-.39.55.55,0,0,1,.43-.12.57.57,0,0,1,.39.22l-.19.16a.34.34,0,0,0-.48-.06.36.36,0,0,0-.13.22.37.37,0,0,0,.07.25.35.35,0,0,0,.48.06l.15.2A.6.6,0,0,1,15.06,18.41Z" fill="#ea984e"/><path d="M12,13h-.08a.6.6,0,0,1-.39-.22.58.58,0,0,1-.12-.44.58.58,0,0,1,.66-.5.57.57,0,0,1,.39.22l-.2.15a.34.34,0,0,0-.47-.06.34.34,0,0,0-.06.48.36.36,0,0,0,.22.13.37.37,0,0,0,.25-.07l.15.2A.55.55,0,0,1,12,13Z" fill="#ea984e"/><path d="M18.79,14.18h-.07a.55.55,0,0,1-.39-.23.56.56,0,0,1-.12-.43.57.57,0,0,1,.22-.39.58.58,0,0,1,.44-.12.62.62,0,0,1,.39.22l-.2.16a.35.35,0,0,0-.48-.07.36.36,0,0,0-.06.48.35.35,0,0,0,.48.06l.15.2A.58.58,0,0,1,18.79,14.18Z" fill="#ea984e"/><path d="M25.38,13.76H25.3a.62.62,0,0,1-.39-.22.61.61,0,0,1-.11-.43.57.57,0,0,1,.22-.39.55.55,0,0,1,.43-.12.57.57,0,0,1,.39.22l-.19.15a.35.35,0,0,0-.23-.12.32.32,0,0,0-.25.06.36.36,0,0,0-.06.48.42.42,0,0,0,.22.13.37.37,0,0,0,.25-.07l.16.2A.6.6,0,0,1,25.38,13.76Z" fill="#ea984e"/><path d="M22.32,8.32A.58.58,0,0,1,22,7.27a.66.66,0,0,1,.43-.12.57.57,0,0,1,.39.23l-.2.15a.32.32,0,0,0-.22-.13.32.32,0,0,0-.25.07.33.33,0,0,0-.06.47.34.34,0,0,0,.47.07l.15.19A.57.57,0,0,1,22.32,8.32Z" fill="#ea984e"/></g><g opacity="0.49" style="mix-blend-mode:multiply"><path d="M27,31a.63.63,0,0,1-.42-.17.61.61,0,0,1-.17-.42.59.59,0,0,1,1-.42l-.17.18a.34.34,0,0,0-.48,0,.31.31,0,0,0-.1.24.33.33,0,0,0,.1.24.34.34,0,0,0,.48,0l.17.18A.58.58,0,0,1,27,31Z" fill="#ea984e"/><path d="M33.44,29.77A.61.61,0,0,1,33,29.6a.59.59,0,1,1,.83-.84l-.18.18a.33.33,0,0,0-.47,0,.33.33,0,0,0,0,.48.33.33,0,0,0,.47,0l.18.18A.58.58,0,0,1,33.44,29.77Z" fill="#ea984e"/><path d="M29.7,24.77a.59.59,0,1,1,.42-1l-.18.17a.35.35,0,0,0-.47,0,.33.33,0,0,0,0,.48.33.33,0,0,0,.47,0l.18.18A.59.59,0,0,1,29.7,24.77Z" fill="#ea984e"/><path d="M36.6,25.1a.59.59,0,0,1-.42-.18.57.57,0,0,1-.17-.41.59.59,0,0,1,1-.42l-.17.18a.34.34,0,0,0-.48,0,.35.35,0,0,0-.1.24.37.37,0,0,0,.1.24.34.34,0,0,0,.48,0l.17.17A.55.55,0,0,1,36.6,25.1Z" fill="#ea984e"/><path d="M43.08,23.84a.59.59,0,0,1-.42-.18.59.59,0,0,1,.83-.83l-.17.18a.34.34,0,1,0,0,.48l.17.17A.55.55,0,0,1,43.08,23.84Z" fill="#ea984e"/><path d="M39.35,18.84a.61.61,0,0,1-.42-.17.6.6,0,0,1,0-.84.6.6,0,0,1,.83,0l-.17.18a.34.34,0,1,0,0,.48l.17.18A.58.58,0,0,1,39.35,18.84Z" fill="#ea984e"/></g><g opacity="0.49" style="mix-blend-mode:multiply"><path d="M28.75,8.33a.63.63,0,0,1-.42-.17.59.59,0,1,1,.83-.83L29,7.5a.35.35,0,0,0-.48,0A.34.34,0,0,0,29,8l.17.18A.58.58,0,0,1,28.75,8.33Z" fill="#ea984e"/><path d="M35.23,7.07a.59.59,0,1,1,.41-1l-.18.17a.33.33,0,0,0-.47,0,.34.34,0,0,0,0,.48.33.33,0,0,0,.47,0l.18.18A.58.58,0,0,1,35.23,7.07Z" fill="#ea984e"/><path d="M31.49,2.07a.54.54,0,0,1-.41-.17.59.59,0,1,1,.83-.83l-.18.18a.32.32,0,0,0-.47,0,.32.32,0,0,0,0,.47.32.32,0,0,0,.47,0l.18.18A.58.58,0,0,1,31.49,2.07Z" fill="#ea984e"/><path d="M38.39,3.71A.63.63,0,0,1,38,3.54a.6.6,0,0,1,0-.84.6.6,0,0,1,.83,0l-.17.18a.34.34,0,1,0,0,.48l.17.18A.58.58,0,0,1,38.39,3.71Z" fill="#ea984e"/></g><g opacity="0.49" style="mix-blend-mode:multiply"><path d="M28.2,19.19h-.08a.6.6,0,0,1-.39-.22.58.58,0,0,1-.12-.44.58.58,0,0,1,.66-.5.57.57,0,0,1,.39.22l-.2.15a.36.36,0,0,0-.22-.13.37.37,0,0,0-.25.07.36.36,0,0,0-.13.23.33.33,0,0,0,.07.25.3.3,0,0,0,.22.12.32.32,0,0,0,.25-.06l.15.19A.51.51,0,0,1,28.2,19.19Z" fill="#ea984e"/><path d="M34.78,18.76h-.07a.57.57,0,0,1-.39-.22.58.58,0,0,1-.12-.44.62.62,0,0,1,.22-.39.68.68,0,0,1,.44-.12.59.59,0,0,1,.39.23l-.2.15a.32.32,0,0,0-.22-.13.32.32,0,0,0-.25.07.34.34,0,0,0-.07.47.36.36,0,0,0,.23.13.32.32,0,0,0,.25-.07l.15.2A.58.58,0,0,1,34.78,18.76Z" fill="#ea984e"/><path d="M31.72,13.33a.58.58,0,0,1-.58-.66.58.58,0,0,1,1-.29l-.19.16a.34.34,0,0,0-.48-.06.34.34,0,0,0-.06.47.36.36,0,0,0,.23.13.33.33,0,0,0,.25-.07l.15.2A.6.6,0,0,1,31.72,13.33Z" fill="#ea984e"/><path d="M38.52,14.53a.58.58,0,0,1-.36-1,.64.64,0,0,1,.43-.12.57.57,0,0,1,.39.23l-.2.15a.33.33,0,0,0-.47-.06.34.34,0,1,0,.41.53l.15.2A.57.57,0,0,1,38.52,14.53Z" fill="#ea984e"/><path d="M45.1,14.11a.58.58,0,0,1-.46-.23.56.56,0,0,1-.12-.43.57.57,0,0,1,.22-.39.63.63,0,0,1,.44-.12.62.62,0,0,1,.39.22l-.2.16a.34.34,0,0,0-.22-.13.32.32,0,0,0-.25.07.34.34,0,0,0-.07.47.36.36,0,0,0,.23.13.32.32,0,0,0,.25-.07l.15.2A.58.58,0,0,1,45.1,14.11Z" fill="#ea984e"/><path d="M42,8.68H42a.62.62,0,0,1-.39-.22A.6.6,0,0,1,41.46,8a.58.58,0,0,1,1-.29l-.19.15a.35.35,0,0,0-.23-.12.32.32,0,0,0-.25.06.35.35,0,0,0-.06.48.36.36,0,0,0,.48.06l.15.2A.6.6,0,0,1,42,8.68Z" fill="#ea984e"/></g><g opacity="0.49" style="mix-blend-mode:multiply"><path d="M27.12,40.36a.59.59,0,0,1-.42-.17.58.58,0,0,1-.17-.41.59.59,0,0,1,1-.42l-.18.17a.33.33,0,0,0-.47,0,.33.33,0,0,0-.1.24.31.31,0,0,0,.1.24.32.32,0,0,0,.47,0l.18.18A.58.58,0,0,1,27.12,40.36Z" fill="#ea984e"/></g><g opacity="0.49" style="mix-blend-mode:multiply"><path d="M33.59,39.1a.59.59,0,0,1-.41-1,.59.59,0,0,1,.83,0l-.18.18a.33.33,0,0,0-.47,0,.33.33,0,0,0,.47.47l.18.18A.59.59,0,0,1,33.59,39.1Z" fill="#ea984e"/></g><g opacity="0.49" style="mix-blend-mode:multiply"><path d="M7.45,46.41A.58.58,0,0,1,7,46.24a.61.61,0,0,1,0-.84.62.62,0,0,1,.84,0l-.18.18a.34.34,0,1,0,0,.48l.18.18A.63.63,0,0,1,7.45,46.41Z" fill="#ea984e"/></g><g opacity="0.49" style="mix-blend-mode:multiply"><path d="M14.34,46.73a.54.54,0,0,1-.41-.17.59.59,0,1,1,.83-.83l-.18.18a.33.33,0,0,0-.47,0,.33.33,0,0,0,0,.48.35.35,0,0,0,.47,0l.18.17A.55.55,0,0,1,14.34,46.73Z" fill="#ea984e"/></g><g opacity="0.49" style="mix-blend-mode:multiply"><path d="M20.82,45.47a.54.54,0,0,1-.41-.17.59.59,0,0,1,.83-.83l-.18.18a.34.34,0,1,0,0,.48l.18.17A.58.58,0,0,1,20.82,45.47Z" fill="#ea984e"/></g><g opacity="0.49" style="mix-blend-mode:multiply"><path d="M19.31,40.55h0a.59.59,0,1,1,.42-1l-.18.17a.34.34,0,0,0-.48.48.33.33,0,0,0,.24.1h0a.31.31,0,0,0,.24-.1l.18.18A.59.59,0,0,1,19.31,40.55Z" fill="#ea984e"/></g><g opacity="0.49" style="mix-blend-mode:multiply"><path d="M5.94,40.83H5.87a.57.57,0,0,1-.39-.22.6.6,0,0,1,.1-.83A.68.68,0,0,1,6,39.65a.59.59,0,0,1,.39.23l-.2.15A.34.34,0,0,0,6,39.9a.32.32,0,0,0-.25.07.35.35,0,0,0-.07.48.36.36,0,0,0,.48.06l.15.19A.59.59,0,0,1,5.94,40.83Z" fill="#ea984e"/></g><g opacity="0.49" style="mix-blend-mode:multiply"><path d="M12.53,40.4a.6.6,0,0,1-.47-.23.59.59,0,0,1-.11-.43.6.6,0,0,1,.22-.39.57.57,0,0,1,.82.11l-.19.15a.36.36,0,0,0-.23-.13.32.32,0,0,0-.25.07.36.36,0,0,0-.13.22.37.37,0,0,0,.07.25.35.35,0,0,0,.48.06l.15.2A.6.6,0,0,1,12.53,40.4Z" fill="#ea984e"/></g><g opacity="0.49" style="mix-blend-mode:multiply"><path d="M9.47,35A.6.6,0,0,1,9,34.74a.56.56,0,0,1-.12-.43.55.55,0,0,1,.23-.39.58.58,0,0,1,.82.1l-.2.16a.34.34,0,1,0-.53.41.32.32,0,0,0,.22.13.37.37,0,0,0,.25-.07l.16.2A.62.62,0,0,1,9.47,35Z" fill="#ea984e"/></g><g opacity="0.49" style="mix-blend-mode:multiply"><path d="M16.26,36.17a.58.58,0,0,1-.46-.23.55.55,0,0,1-.12-.43.59.59,0,0,1,1.05-.28l-.2.15a.34.34,0,0,0-.48-.06.34.34,0,0,0-.06.47.34.34,0,0,0,.48.06l.15.2A.6.6,0,0,1,16.26,36.17Z" fill="#ea984e"/></g><g opacity="0.49" style="mix-blend-mode:multiply"><path d="M22.85,35.75h-.08a.59.59,0,1,1,.54-1l-.19.16a.34.34,0,0,0-.48-.06.34.34,0,0,0-.06.47.36.36,0,0,0,.23.13.35.35,0,0,0,.25-.07l.15.2A.6.6,0,0,1,22.85,35.75Z" fill="#ea984e"/></g><g opacity="0.49" style="mix-blend-mode:multiply"><path d="M19.79,30.32h-.08a.6.6,0,0,1-.39-.22.58.58,0,0,1-.12-.44.58.58,0,0,1,.66-.5.57.57,0,0,1,.39.22l-.2.15a.34.34,0,0,0-.47-.06.36.36,0,0,0-.13.23.33.33,0,0,0,.07.25A.34.34,0,0,0,20,30l.15.2A.55.55,0,0,1,19.79,30.32Z" fill="#ea984e"/></g><g opacity="0.49" style="mix-blend-mode:multiply"><path d="M18.22,55.11a.59.59,0,1,1,.42-1l-.18.17a.34.34,0,1,0,0,.48l.18.18A.63.63,0,0,1,18.22,55.11Z" fill="#ea984e"/><path d="M24.7,53.85a.59.59,0,1,1,.42-1l-.18.17a.34.34,0,1,0,0,.48l.18.18A.63.63,0,0,1,24.7,53.85Z" fill="#ea984e"/><path d="M21,48.85a.58.58,0,0,1-.42-.17.6.6,0,0,1,0-.83.6.6,0,0,1,.84,0l-.18.18a.33.33,0,0,0-.48,0,.34.34,0,1,0,.48.47l.18.18A.58.58,0,0,1,21,48.85Z" fill="#ea984e"/><path d="M27.86,49.18a.58.58,0,0,1-.41-.17.6.6,0,0,1,0-.84.6.6,0,0,1,.83,0l-.18.18a.33.33,0,0,0-.47,0,.33.33,0,0,0,0,.48.33.33,0,0,0,.47,0l.18.18A.61.61,0,0,1,27.86,49.18Z" fill="#ea984e"/><path d="M34.34,47.92a.58.58,0,0,1-.41-.17.6.6,0,0,1,0-.84.6.6,0,0,1,.83,0l-.18.18a.33.33,0,0,0-.47,0,.33.33,0,0,0,0,.48.33.33,0,0,0,.47,0l.18.18A.63.63,0,0,1,34.34,47.92Z" fill="#ea984e"/><path d="M30.61,42.92a.59.59,0,1,1,.42-1l-.18.17a.37.37,0,0,0-.48,0,.34.34,0,0,0,.48.48l.18.18A.63.63,0,0,1,30.61,42.92Z" fill="#ea984e"/></g><g opacity="0.49" style="mix-blend-mode:multiply"><path d="M15.42,50.86a.59.59,0,0,1-.36-1.06.59.59,0,0,1,.82.11l-.2.15a.33.33,0,0,0-.47-.06.34.34,0,0,0-.06.48.34.34,0,0,0,.47.06l.15.19A.53.53,0,0,1,15.42,50.86Z" fill="#ea984e"/><path d="M22,50.43h-.07a.57.57,0,0,1-.39-.22.58.58,0,0,1-.12-.44.62.62,0,0,1,.22-.39.59.59,0,0,1,.83.11l-.2.15a.35.35,0,0,0-.48-.06.3.3,0,0,0-.12.22.33.33,0,0,0,.29.38.32.32,0,0,0,.25-.07l.15.2A.58.58,0,0,1,22,50.43Z" fill="#ea984e"/><path d="M18.94,45h-.08a.59.59,0,0,1-.39-.23.55.55,0,0,1-.11-.43.57.57,0,0,1,.22-.39.59.59,0,0,1,.43-.12.57.57,0,0,1,.39.22l-.19.16a.34.34,0,0,0-.48-.06.36.36,0,0,0-.13.22.37.37,0,0,0,.07.25.36.36,0,0,0,.23.13.35.35,0,0,0,.25-.07l.15.2A.6.6,0,0,1,18.94,45Z" fill="#ea984e"/><path d="M25.74,46.2h-.08a.6.6,0,0,1-.39-.22.58.58,0,0,1-.12-.44.59.59,0,0,1,.23-.39.64.64,0,0,1,.43-.12.57.57,0,0,1,.39.23l-.2.15a.33.33,0,0,0-.47-.06.32.32,0,0,0-.13.22.34.34,0,0,0,.54.31l.15.2A.55.55,0,0,1,25.74,46.2Z" fill="#ea984e"/><path d="M32.32,45.78h-.07a.55.55,0,0,1-.39-.23.59.59,0,0,1,.54-.94.62.62,0,0,1,.39.22l-.2.16a.34.34,0,0,0-.22-.13.32.32,0,0,0-.25.07.29.29,0,0,0-.13.22.32.32,0,0,0,.06.25.36.36,0,0,0,.23.13.32.32,0,0,0,.25-.07l.15.2A.58.58,0,0,1,32.32,45.78Z" fill="#ea984e"/><path d="M29.26,40.35h-.08a.62.62,0,0,1-.39-.22.66.66,0,0,1-.12-.43.63.63,0,0,1,.23-.39.55.55,0,0,1,.43-.12.57.57,0,0,1,.39.22l-.19.15a.36.36,0,0,0-.48-.06.34.34,0,0,0,.41.54l.16.2A.6.6,0,0,1,29.26,40.35Z" fill="#ea984e"/></g><g opacity="0.49" style="mix-blend-mode:multiply"><path d="M35.69,40.35a.59.59,0,0,1-.42-1,.6.6,0,0,1,.84,0l-.18.18a.33.33,0,0,0-.48,0,.33.33,0,0,0,0,.47.34.34,0,0,0,.48,0l.18.18A.61.61,0,0,1,35.69,40.35Z" fill="#ea984e"/><path d="M42.17,39.09a.58.58,0,0,1-.42-.17.59.59,0,0,1-.17-.42.59.59,0,0,1,1-.41l-.17.18a.33.33,0,0,0-.48,0,.35.35,0,0,0-.1.24.34.34,0,0,0,.58.23l.17.18A.54.54,0,0,1,42.17,39.09Z" fill="#ea984e"/><path d="M38.44,34.1a.59.59,0,0,1-.42-.18.59.59,0,0,1,.83-.83l-.17.18a.34.34,0,1,0,0,.48l.17.17A.55.55,0,0,1,38.44,34.1Z" fill="#ea984e"/></g></g></g></g></svg>