<svg xmlns="http://www.w3.org/2000/svg" viewBox="0 0 73.27 65.63"><g id="adeb9fd6-78cd-407d-acd1-fc60aeabda37" data-name="Layer 2"><g id="ac775444-6d84-4045-9aaa-3aae629bd1a3" data-name="—ÎÓÈ_1"><path d="M36.57,15.9s-16.15-5.36-23.6,0S-1.48,29.17.27,41.63,9.47,65,18.32,65.51a105.21,105.21,0,0,0,18.25-.82h0Z" fill="#fd8002"/><path d="M19.63,15.9s-6.3,2.56-8.4,8.15S7,37.67,11.93,48s7.42,16.3,13.73,16.19a95.31,95.31,0,0,1,10.91.38V15.9S25.94,11.26,19.63,15.9Z" fill="#f99608"/><path d="M36.57,15.9s16.28-5.36,23.74,0S74.75,29.17,73,41.63,63.8,65,55,65.51a107.11,107.11,0,0,1-18.38-.82h0Z" fill="#f97600"/><path d="M53.6,15.9s6.31,2.56,8.41,8.15,4.2,13.62-.7,24-7.43,16.3-13.73,16.19a98,98,0,0,0-11,.38V15.9S47.3,11.26,53.6,15.9Z" fill="#fd8002"/><path d="M39.28,2.78l-.11,0L38.24,0S37,.51,34.05,3.76c-2.4,2.68-4.43,12.48-4.43,12.48A11.49,11.49,0,0,0,35,18.49a112.46,112.46,0,0,1,2.7-12.55A13.46,13.46,0,0,1,39.28,2.78Z" fill="#9aad54"/><path d="M45.7,3.76l-3.15.11,0-.13a17,17,0,0,0-2.5,8c-.2,2.28-.34,4.85-.42,6.56a6.24,6.24,0,0,0,3.53-2.12,37.46,37.46,0,0,1-.35-8.54C43.25,4.29,45.7,3.76,45.7,3.76Z" fill="#81962c"/><path d="M42.52,3.74,42.09,2l-2.81.77a13.46,13.46,0,0,0-1.62,3.16A112.46,112.46,0,0,0,35,18.49a13.9,13.9,0,0,0,2,.15,10.46,10.46,0,0,0,2.64-.34c.08-1.71.22-4.28.42-6.56A17,17,0,0,1,42.52,3.74Z" fill="#9db539"/><path d="M36.57,14.83s-4.85-.84-7.3,1-6.52,8.69-5.71,17.31,4.47,28.48,8,29.93a19.05,19.05,0,0,0,5,1.55Z" fill="#ff9e1f"/><path d="M36.57,14.83s4.86-.84,7.31,1,6.52,8.69,5.7,17.31-4.46,28.48-8,29.93a19.16,19.16,0,0,1-5,1.55Z" fill="#f99608"/><g opacity="0.7"><path d="M18.59,23.51c-1.19,3,.6,6.82-3.81,6.83-4.16,0-2.58-3.85-1.39-6.86S19,17.28,21,18.05,19.78,20.49,18.59,23.51Z" fill="#ffd983"/></g></g></g></svg>