<svg xmlns="http://www.w3.org/2000/svg" viewBox="0 0 75 71.5"><g id="a47c3ee3-fcdd-4a32-8ece-5d50c33e43ac" data-name="Layer 2"><g id="f98df0b8-9eaa-4649-a347-72b8d89f0360" data-name="—ÎÓÈ_1"><path d="M41.31,39.87S65.13,29.33,75,29.63Z" fill="#9dbe33"/><path d="M40.36,40.42s9.57-4.32,17.78-7.07A90.12,90.12,0,0,1,69.6,30.2L70.74,30l1.05-.13a13.36,13.36,0,0,1,1.69-.17L75,29.63a1.77,1.77,0,0,0,0-.71,4.21,4.21,0,0,0-1.09-2,4,4,0,0,0-3.31-1.38,3.27,3.27,0,0,0-1.13.23A3.75,3.75,0,0,0,69,26a1.13,1.13,0,0,0-.1-.64,2.53,2.53,0,0,0-1.45-1.23c-2.11-.88-3.27-.51-3.87,0a2.18,2.18,0,0,0-.65,1.29s.26-1.61-1.87-2c-1.91-.31-5.12,1.17-5.6,3.2a14.13,14.13,0,0,1-2.33,4.75,5.22,5.22,0,0,0,.15-1.57A1.76,1.76,0,0,0,51.75,28c-1.12-.16-1.89,1-2.35,2.15a11.93,11.93,0,0,0-.63,2.38s-.5-1.12-2.43.22-.16,4.57-.16,4.57L40.05,40Z" fill="#c9e553"/><path d="M40.36,40.42s9.57-4.32,17.78-7.07A90.12,90.12,0,0,1,69.6,30.2L70.74,30l1.05-.13a13.36,13.36,0,0,1,1.69-.17L75,29.63a1.63,1.63,0,0,1,0,.7A7.58,7.58,0,0,1,74,32.39a3.52,3.52,0,0,1-2.2,1.9,4.57,4.57,0,0,1-.9.1,2.14,2.14,0,0,1-.38,0,1.25,1.25,0,0,1,.13.64,2.72,2.72,0,0,1-.63,1.63c-1.16,1.57-2.1,1.77-2.77,1.54a2.17,2.17,0,0,1-1.08-.82,2,2,0,0,1-.39,2.6c-1.17,1.17-4.17,1.69-5.71.36A12,12,0,0,0,55.53,38a5.28,5.28,0,0,1,1.08,1.14,1.82,1.82,0,0,1,0,2.35c-.7.83-1.94.43-3-.16a12.78,12.78,0,0,1-2-1.37s.38,1.14-1.85,1.45-3.24-3.31-3.24-3.31l-6.15,2.58Z" fill="#b0c91b"/><path d="M39.07,37.84,47.19.09Z" fill="#e5be33"/><path d="M38.87,38.49,47.18.12s-.88-.49-2.9.51a4.27,4.27,0,0,0-2.47,4.16s-.91-.63-2.32.67c-3.3,3-.79,4.64-.79,4.64s-1.31-1-2.61.75c-1.17,1.53-1.5,5.1,0,6.61a13.61,13.61,0,0,1,2.79,4.68s-2.12-2.45-3.61-.61,2.15,5.23,2.15,5.23-1.2-.19-1.19,2.3,3.63,3.32,3.63,3.32l-1.38,5.93Z" fill="#c9e553"/><path d="M38.7,38.54,47.18.12s1-.08,2.44,1.66a4.27,4.27,0,0,1,.54,4.81s1.09-.2,1.84,1.56c1.77,4.13-1.19,4.55-1.19,4.55s1.6-.34,2.08,1.76c.43,1.88-.73,5.26-2.7,6a13.78,13.78,0,0,0-4.47,3.13s2.94-1.37,3.54.92-4.11,3.88-4.11,3.88,1.18.32.14,2.6-3.83,1.51-3.83,1.51L39,38.46Z" fill="#b0c91b"/><path d="M39.68,39.37,64.23,9.57Z" fill="#e5be33"/><path d="M39.2,39.86l25-30.27s-.57-.84-2.82-.88a4.24,4.24,0,0,0-4.1,2.56s-.52-1-2.37-.48C50.6,12,52.1,14.56,52.1,14.56s-.72-1.47-2.67-.54c-1.74.83-3.67,3.84-3,5.86a13.82,13.82,0,0,1,.33,5.45s-.76-3.16-2.93-2.2-.49,5.62-.49,5.62-1-.72-2.12,1.5,1.7,4.62,1.7,4.62L38.92,39.5Z" fill="#c9e553"/><path d="M39,39.82,64.22,9.59s.93.39,1.4,2.59a4.26,4.26,0,0,1-1.73,4.52s1.06.33.92,2.24c-.33,4.47-3.15,3.49-3.15,3.49s1.57.43,1,2.52c-.48,1.86-3.07,4.34-5.18,4.12a13.58,13.58,0,0,0-5.4.71s3.24.14,2.72,2.46-5.43,1.55-5.43,1.55.89.83-1.07,2.37-4.09-.42-4.09-.42l-4.92,4.15Z" fill="#b0c91b"/><path d="M27.15,64.2A14.47,14.47,0,1,1,44.88,54,14.46,14.46,0,0,1,27.15,64.2Z" fill="#e1093c"/><path d="M25.76,64.94c2.77-.21,8.58-1.15,8.58-1.15L19.66,57.28s1.48,3.63,2.31,6.47c.59,2-2.83,3.5-5.22,5.37l1,.62C20.84,68.4,23.44,65.11,25.76,64.94Z" fill="#e1093c"/><path d="M17.79,69.74l-1-.62C7,73.22,0,69.16,0,69.16S6,74,17.79,69.74Z" fill="#f9efee"/><path d="M30.26,46c-1.43,2.39-4.18,3.38-6.14,2.21s-2.41-4.06-1-6.45,4.17-3.38,6.13-2.21S31.68,43.61,30.26,46Z" fill="#e54051"/></g></g></svg>