<svg xmlns="http://www.w3.org/2000/svg" viewBox="0 0 58.45 58.38"><g id="e531bfcb-252d-48bd-88b6-6bced8166793" data-name="Layer 2"><g id="a446b844-b8c2-4221-a54f-1ca765240699" data-name="—ÎÓÈ_1"><path d="M30.47,6.68c0-4.06,0-6.68,0-6.68L29.23.51V11.82l2.21.43S30.48,10.75,30.47,6.68Z" fill="#7e9b46"/><path d="M28.57.79a16.93,16.93,0,0,0-.46,5.55A8.74,8.74,0,0,1,27,11.39l2.22.43V.51Z" fill="#a5c45b"/><path d="M29.23,11,23.71,9.7a10.83,10.83,0,0,1-5.85-3.62l0,0a10.7,10.7,0,0,0-4-3l-.35-.15a9.56,9.56,0,0,1,3.77,4.06c1.18,2.65,2.42,6.1,8.44,6.18S29.23,11,29.23,11Z" fill="#7e9b46"/><path d="M29.23,13.39s-2.62-.3-5.07-3.58A12.43,12.43,0,0,1,21.6,3.47l.86,1.41A17.45,17.45,0,0,0,27.32,10,4.09,4.09,0,0,1,29.23,13.39Z" fill="#7e9b46"/><path d="M29.73,11,35.24,9.7a10.83,10.83,0,0,0,5.85-3.62l0,0a10.78,10.78,0,0,1,4-3l.35-.15a9.63,9.63,0,0,0-3.77,4.06c-1.18,2.65-2.41,6.1-8.44,6.18S29.73,11,29.73,11Z" fill="#74733d"/><path d="M29.73,13.39s2.62-.3,5.07-3.58a12.54,12.54,0,0,0,2.56-6.34l-.87,1.41A17.32,17.32,0,0,1,31.63,10,4.08,4.08,0,0,0,29.73,13.39Z" fill="#74733d"/><path d="M29.23,58.38H24.3C10.88,58.38,0,46.6,0,32.07V31.6C0,20.5,8.39,10.18,18.56,11.51c2.73.35,10.67.94,10.67.94Z" fill="#ff521d"/><path d="M29.23,58.38h4.92c13.42,0,24.3-11.78,24.3-26.31V31.6c0-11.1-8.39-21.42-18.56-20.09-2.73.35-10.66.94-10.66.94Z" fill="#ff3a1a"/><path d="M14.61,14.75a9.82,9.82,0,0,0-6.92,5.88c-3.06,7.45.6,14,4.6,13.52S18.73,21.42,18.77,19C18.84,14.07,14.61,14.75,14.61,14.75Z" fill="#f8784b"/></g></g></svg>